<svg width="147" height="173" fill="none" xmlns="http://www.w3.org/2000/svg"><g clip-path="url(#clip0_234_204)" fill="#130E54"><path d="M137.583 5.05c.298.658-.244-.598 0 .048l.153.383c.128.323.244.646.361.969.226.652.423 1.31.614 1.975s.321 1.341.44 2.012c.09.263.135.538.132.815l-.051-.383.051.407.064.6c.128 1.373.16 2.754.096 4.132-.032.6-.094 1.237-.149 1.855-.073.726.103-.697 0 0l-.058.408a31.7 31.7 0 01-.196 1.123 30.118 30.118 0 01-1.375 4.917l-.189.487c-.076.193-.313.602 0-.048-.326.602-.555 1.264-.869 1.878a28.222 28.222 0 01-2.123 3.542c-.119.175-.718 1.109-.267.386a6.949 6.949 0 01-.595.724 24.74 24.74 0 01-1.447 1.618c-.506.52-.876.87-1.335 1.281-.257.23-.519.46-.787.677-.036 0-.597.455-.185.152.411-.303-.287.212-.359.266a25.81 25.81 0 01-4.356 2.562c-.042 0-.67.323-.221.104.448-.22-.18.073-.222.092a28.545 28.545 0 01-6.043 1.698c-.06 0-.749.101-.227.038.521-.064-.174 0-.234.001a30.323 30.323 0 01-3.167.208c-.636.005-1.272.01-1.909-.04-.348.003-.702-.037-1.057-.07a2.592 2.592 0 01-.522-.05c-.252.001-.948.048-.15 0a7.793 7.793 0 01-1.88-.31 29.676 29.676 0 01-2.164-.519 22.923 22.923 0 01-1.901-.592 27.58 27.58 0 01-.987-.371c-.162-.06-.523-.14.133.059a4.483 4.483 0 01-.602-.254 27.2 27.2 0 01-3.699-2.007c-.295-.19-.603-.386-.874-.594l-.344-.25c-.603-.415.507.41-.06-.041a27.673 27.673 0 01-1.612-1.374 19.9 19.9 0 01-1.372-1.394 23.068 23.068 0 01-.605-.698c0-.042-.436-.597-.151-.185l-.255-.358a23.07 23.07 0 01-2.077-3.47 5.43 5.43 0 01-.39-.85c.21.76.055.126 0-.054l-.153-.382a23.003 23.003 0 01-.669-2.065 22.146 22.146 0 01-.44-1.899l-.068-.407c-.131-.707.071.707 0 0l-.097-1.007a18.597 18.597 0 01-.05-2.003l.047-.895.045-.486c.055-.696-.121.703 0 0 .12-.702.22-1.201.377-1.802.076-.283.164-.565.252-.842L92 14.22l.071-.18c.118-.301.095-.24-.077.18 0 0 .74-1.457.8-1.56.166-.276.344-.553.528-.825.035-.048.416-.603.119-.169-.297.434.208-.253.267-.32.402-.466.834-.906 1.293-1.316l.394-.339c.328-.296-.597.43-.036.03.31-.224.597-.436.938-.636.525-.334 1.196-.542 1.71-.918-.394.303-.401.159-.15.061l.598-.22c.318-.116.647-.22.976-.313a19.557 19.557 0 012.013-.458c.36-.069.083-.145-.18.001a1.61 1.61 0 01.516-.063c.4-.04.784-.066 1.152-.08a20.563 20.563 0 012.106.027c.282-.002.564.05.847.077.732.061-.685-.12.042 0 .21.035.42.063.6.098 1.399.268 2.772.66 4.101 1.17.181.065.499.105-.126-.058.168.059.331.132.487.218.289.13.602.266.862.414a19.95 19.95 0 011.928 1.126c.301.198.597.396.886.594.091.071.718.558.145.107l.374.29a27.193 27.193 0 011.769 1.566c.562.548 1.101 1.156 1.627 1.752.26.292.514.596.768.894l.297.37c.502.597-.364-.495.115.143a44.032 44.032 0 012.638 3.965 49.892 49.892 0 012.227 4.273c.152.323.305.652.451.987l.244.55c-.25-.598-.079-.173-.001-.048.33.814.666 1.627.978 2.453a87.756 87.756 0 014.563 17.255l.17 1.121c.031.21-.039.48-.001-.126.009.151.03.301.063.45.108.82.209 1.642.293 2.469a94.11 94.11 0 01.461 13.326 97.414 97.414 0 01-.469 6.661l-.113 1.015-.068.558c-.097.81.063-.414-.029.217a101.403 101.403 0 01-1.558 8.69 100.254 100.254 0 01-2.405 8.734 91.67 91.67 0 01-1.512 4.27c-.24.637-.487 1.269-.743 1.894l-.047.12-.171.422-.537 1.245a91.792 91.792 0 01-8.687 15.574c-.404.603-.82 1.176-1.242 1.755l-.594.814-.179.235-.315.416a86.74 86.74 0 01-8.955 9.859 101.026 101.026 0 01-3.351 3.023c-.543.46-1.086.914-1.641 1.362l-.788.605c-.597.478.501-.387-.107.079l-.532.411a91.71 91.71 0 01-15.08 9.327 100.25 100.25 0 01-4.079 1.894c-.496.226 0 0 .096-.036-.203.091-.413.177-.598.262-.186.085-.55.232-.832.342-.76.317-1.532.611-2.298.91a96.952 96.952 0 01-17.11 4.764c-.702.131-1.409.25-2.11.363l-1.001.151c-.042 0-.78.113-.27.044.51-.07-.408.05-.492.063-1.45.19-2.905.349-4.365.475-2.95.257-5.908.374-8.872.351a91.097 91.097 0 01-9.972-.614l-.559-.068c-.552-.068.042 0 .132-.001-.816-.066-1.64-.222-2.445-.354a80.104 80.104 0 01-4.308-.792 86.745 86.745 0 01-8.38-2.196 3.008 3.008 0 00-2.277.299 3.008 3.008 0 00-1.399 1.821 3.069 3.069 0 002.126 3.674 93.602 93.602 0 0037.232 3.75 101.113 101.113 0 0036.475-10.774 91.368 91.368 0 0029.069-23.558 96.763 96.763 0 0017.541-33.891 98.569 98.569 0 003.311-37.533 92.997 92.997 0 00-3.944-18.904c-2.037-6.302-4.68-12.594-8.768-17.856-4.088-5.262-9.675-9.638-16.429-10.88-6.393-1.154-13.357.095-18.07 4.843-9.2 9.273-4.754 25.282 4.546 32.69 9.891 7.885 24.38 9.216 35.467 2.947 10.627-6.008 16.614-18.99 15.125-31a31.466 31.466 0 00-2.518-9.046C142.1.549 139.876.12 138.634.939c-1.493.97-1.74 2.574-1.051 4.11z"/><path d="M32.85 133.976c-9.754 2.121-19.513 4.237-29.275 6.35-2.133.465-2.975 3.59-1.285 5.024l23.77 20.347 6.713 5.741c1.207 1.018 3.105 1.232 4.242-.03 1.03-1.135 1.244-3.152-.03-4.24A28939.558 28939.558 0 0013.21 146.82l-6.707-5.741-1.29 5.024c9.757-2.121 19.516-4.237 29.274-6.35a2.997 2.997 0 002.05-3.703 3.072 3.072 0 00-3.705-2.074h.018z"/></g><defs><clipPath id="clip0_234_204"><path fill="#fff" transform="rotate(89.595 72.45 73.458)" d="M0 0h171v145H0z"/></clipPath></defs></svg>