<svg width="174" height="148" fill="none" xmlns="http://www.w3.org/2000/svg"><g clip-path="url(#clip0_234_455)" fill="#FFC38F"><path d="M168.627 137.404c-.657.302.597-.247-.048 0l-.382.155c-.323.13-.645.248-.968.365-.651.23-1.309.43-1.972.623a19.73 19.73 0 01-2.011.45 2.449 2.449 0 01-.814.136l.383-.053-.407.053-.599.067a29.69 29.69 0 01-4.132.114c-.6-.029-1.237-.087-1.855-.14-.727-.07.697.1 0 0l-.409-.055c-.378-.056-.751-.124-1.124-.191a30.29 30.29 0 01-3.947-1.01 25.438 25.438 0 01-.976-.343l-.488-.186c-.193-.076-.603-.312.048-.001-.604-.323-1.266-.549-1.882-.86a28.275 28.275 0 01-3.552-2.107c-.175-.118-1.112-.713-.387-.266a6.86 6.86 0 01-.726-.591 24.65 24.65 0 01-1.625-1.44 24.975 24.975 0 01-1.287-1.329 20.446 20.446 0 01-.681-.784c-.001-.036-.457-.595-.152-.184.304.41-.214-.286-.269-.357a25.867 25.867 0 01-2.582-4.345c0-.042-.326-.668-.104-.221.221.448-.075-.179-.093-.221a28.573 28.573 0 01-1.726-6.034c-.001-.06-.105-.749-.039-.228s-.002-.174-.003-.234a30.894 30.894 0 01-.223-3.166 22.947 22.947 0 01.032-1.909c-.004-.348.034-.702.066-1.057a2.588 2.588 0 01.048-.522c-.003-.252-.053-.948-.002-.15.023-.638.125-1.27.302-1.882.141-.728.313-1.45.509-2.167.195-.716.362-1.3.583-1.903.116-.331.238-.663.367-.988.058-.163.137-.524-.059.133.069-.207.153-.409.251-.603a27.185 27.185 0 011.99-3.708c.189-.297.383-.605.59-.877l.248-.345c.413-.605-.408.508.041-.06.45-.57.887-1.097 1.367-1.62a23.067 23.067 0 012.083-1.986c.042 0 .594-.439.184-.152l.357-.256a23.059 23.059 0 013.461-2.093 5.41 5.41 0 01.847-.394c-.76.213-.125.055.054 0l.382-.155c.675-.26 1.368-.484 2.062-.678a22.121 22.121 0 011.896-.448l.407-.071c.707-.134-.707.074 0 0l1.007-.102a18.571 18.571 0 012.003-.06l.894.044.487.043c.696.051-.704-.118 0 0a19.92 19.92 0 011.804.368c.282.075.565.162.842.249l.548.191.181.07c.302.117.241.093-.181-.076 0 0 1.461.733 1.563.792.278.165.556.342.828.525.049.035.605.413.17.118-.436-.295.254.207.321.266.468.4.91.83 1.323 1.287l.34.392c.298.326-.433-.595-.03-.036.225.31.439.595.64.935.337.524.548 1.194.926 1.705-.304-.392-.16-.4-.062-.149l.223.598c.118.316.224.645.318.974.191.662.347 1.333.467 2.011.07.359.145.082-.002-.18.049.167.072.341.066.515a19.726 19.726 0 01.068 3.258c.003.282-.047.565-.074.847-.057.733.118-.685 0 .042-.033.21-.061.421-.094.601a24.137 24.137 0 01-1.152 4.106c-.064.181-.102.5.058-.126a3.219 3.219 0 01-.216.488c-.129.29-.263.604-.41.863a19.963 19.963 0 01-1.117 1.934c-.197.302-.393.598-.59.889-.071.091-.555.72-.106.145l-.289.375a27.523 27.523 0 01-1.557 1.777c-.546.564-1.151 1.106-1.745 1.635-.291.261-.594.517-.891.772l-.368.299c-.594.505.493-.366-.143.115a44.134 44.134 0 01-3.952 2.657 49.735 49.735 0 01-4.263 2.246c-.322.154-.651.308-.985.456l-.549.246c.597-.253.173-.08.048-.001-.812.334-1.624.674-2.448.989a87.646 87.646 0 01-17.235 4.642l-1.119.175c-.21.033-.481-.036.126-.001-.151.01-.302.032-.449.065-.821.112-1.642.217-2.468.305a94.476 94.476 0 01-13.324.522 95.976 95.976 0 01-6.664-.439l-1.015-.108-.559-.065c-.811-.093.415.061-.216-.028-2.92-.386-5.823-.88-8.698-1.518a100.26 100.26 0 01-8.744-2.365 90.682 90.682 0 01-4.277-1.492 71.856 71.856 0 01-1.898-.734l-.12-.047-.423-.169-1.248-.531a91.832 91.832 0 01-15.613-8.615 54.236 54.236 0 01-1.76-1.234l-.817-.591-.236-.177-.418-.313a86.524 86.524 0 01-9.9-8.91 101.593 101.593 0 01-3.039-3.337 91.444 91.444 0 01-1.368-1.635l-.61-.785c-.48-.594.39.5-.079-.107l-.414-.529a92.044 92.044 0 01-9.396-15.037 100.79 100.79 0 01-1.913-4.07c-.228-.496 0 0 .037.095-.092-.203-.179-.412-.265-.597-.086-.185-.234-.55-.346-.83-.32-.758-.617-1.529-.92-2.294a96.95 96.95 0 01-4.843-17.088 85.33 85.33 0 01-.372-2.108l-.156-1c0-.042-.117-.78-.045-.27a99.849 99.849 0 01-.56-4.854 93.471 93.471 0 01-.392-8.871c.007-3 .157-6.003.459-8.971.032-.337.07-.667.108-1.004l.066-.559c.065-.552 0 .043.001.133.062-.817.215-1.641.343-2.447.217-1.443.477-2.886.772-4.312a86.602 86.602 0 012.157-8.39 3.003 3.003 0 00-2.136-3.666 3.07 3.07 0 00-3.664 2.143 93.583 93.583 0 00-3.579 37.248 101.085 101.085 0 0010.942 36.425 91.353 91.353 0 0023.692 28.961 96.737 96.737 0 0033.971 17.384 98.547 98.547 0 0037.548 3.138 92.928 92.928 0 0018.886-4.031c6.292-2.066 12.572-4.738 17.815-8.85 5.243-4.111 9.593-9.719 10.804-16.479 1.125-6.398-.156-13.356-4.926-18.047-9.316-9.157-25.304-4.638-32.67 4.696-7.838 9.927-9.103 24.423-2.783 35.481 6.057 10.599 19.066 16.526 31.07 14.982a31.488 31.488 0 009.034-2.56c1.432-.653 1.85-2.878 1.026-4.117-.977-1.489-2.582-1.728-4.115-1.032z"/><path d="M39.22 33.266c-2.166-9.744-4.328-19.493-6.485-29.245-.475-2.131-3.604-2.959-5.03-1.262L7.467 26.622l-5.71 6.74c-1.011 1.212-1.217 3.11.05 4.242 1.14 1.025 3.158 1.23 4.24-.05a29066.79 29066.79 0 0020.238-23.868l5.71-6.734-5.03-1.268A38299.19 38299.19 0 0133.45 34.93a3 3 0 003.713 2.033 3.07 3.07 0 002.056-3.715v.018z"/></g><defs><clipPath id="clip0_234_455"><path fill="#fff" transform="rotate(179.331 86.188 73.103)" d="M0 0h171v145H0z"/></clipPath></defs></svg>