<svg width="324" height="389" fill="none" xmlns="http://www.w3.org/2000/svg"><path transform="translate(0 .277)" fill="url(#paint0_linear_278_65)" d="M0 0h324v388H0z"/><mask id="a" style="mask-type:alpha" maskUnits="userSpaceOnUse" x="0" y="0" width="324" height="389"><rect y=".277" width="324" height="388" rx="16" fill="url(#paint1_linear_278_65)"/></mask><g mask="url(#a)"><path d="M401.136 529.889l6.052-3.489 5.851 3.355 1.961 1.124v-2.365l-6.79-3.909v-16.844l6.79-3.926v-2.365l-7.862 4.513-5.03-2.886-9.606-5.553v-16.878l9.606-5.553 5.03-2.885 4.593 2.667 3.219 1.846v-2.349l-6.79-3.926v-16.877l6.79-3.926v-2.366l-1.978 1.158-5.834 3.355-6.036-3.472-8.566-4.95v-16.877l7.024-4.06 7.578-4.379 7.611 4.396.201.117v-2.365l-.989-.571-5.801-3.355v-16.827l6.79-3.926v-2.349h-.118l-7.694 4.463-7.645-4.412-6.957-4.027v-16.877l6.27-3.624 8.382-4.815 7.812 4.513v-2.366l-6.79-3.909v-16.877l6.79-3.926v-2.365l-1.123.654-6.706 3.859-6.739-3.909-7.812-4.53v-16.878l8.566-4.949 6.035-3.489 5.834 3.355 1.979 1.158v-2.349l-6.79-3.926v-16.877l5.515-3.188 1.275-.738v-2.366l-3.219 1.863-4.677 2.667-5.03-2.886-9.606-5.553v-16.877l6.958-4.027 7.678-4.412 7.678 4.446h.134v-2.298l-6.79-3.926v-16.878l6.79-3.909v-2.365l-3.135 1.812-4.677 2.701-4.946-2.852-9.606-5.637v-8.389h-2.045v8.389l-9.086 5.251-5.516 3.187-5.716-3.355-8.885-5.083v-8.389h-2.046v8.389l-9.153 5.352-5.415 3.137-5.23-3.02-9.472-5.469v-8.389h-2.045v8.389l-9.388 5.419-5.214 3.019-5.029-2.885-9.522-5.553v-8.389h-2.029v8.389l-9.941 5.737-4.677 2.701-5.03-2.852-9.572-5.586v-8.389h-2.028v8.389l-9.087 5.251-5.532 3.187-5.7-3.355-8.902-5.083v-8.389h-2.045v8.389l-9.187 5.301-5.415 3.137-5.213-3.019-9.388-5.419v-8.389h-2.045v8.389l-9.372 5.469-5.23 3.02-5.029-2.886-9.573-5.603v-8.389h-2.045v8.389l-9.925 5.788-4.677 2.701-5.029-2.852-9.572-5.637v-8.389h-1.995v8.389l-9.12 5.301-5.532 3.188-5.7-3.356-8.902-5.133v-8.389h-2.045v8.389l-9.187 5.352-5.415 3.137-5.214-3.02-9.388-5.469v-8.389h-2.045v8.389l-9.388 5.419-5.18 3.07-5.03-2.886-9.605-5.603v-8.389h-2.046v8.389L40 230.642v2.365l7.812-4.513 8.4 4.882 6.202 3.574v16.844l-6.438 3.724-8.164 4.715L40 257.72v2.365l6.79 3.926v16.877L40 284.797v2.366l7.812-4.513 9.388 5.419 5.214 3.02v16.877l-8.382 4.849-6.203 3.59L40 311.892v2.365l6.79 3.909v16.878L40 338.97v2.365l1.123-.587 6.706-3.859 7.259 4.144 7.292 4.228v16.877l-8.851 5.033-5.75 3.356-7.779-4.48v2.366l.654.386 6.135 3.54v16.877l-6.705 3.926v2.349l1.877-1.057 5.851-3.356 6.454 3.725 8.148 4.664v16.776l-5.365 3.104-9.237 5.335L40 420.22v2.365l6.79 3.926v16.877l-6.706 3.909v2.366l7.812-4.513 14.602 8.388v16.878l-6.455 3.724-8.147 4.714L40 474.392v2.349l6.79 3.925v16.878L40 501.47v2.365l7.812-4.513 14.602 8.389v16.877l-14.602 8.388L40 528.547v2.366l6.79 3.926v8.388h2.045v-8.388l8.281-4.782 6.354-3.657 6.454 3.724 8.148 4.715v8.388h2.045v-8.388l8.147-4.715 6.455-3.724 6.538 3.775 8.063 4.664v8.388h2.046v-8.388l7.644-4.413 6.957-4.026 6.89 3.926 7.729 4.513v8.388h2.045v-8.388l8.566-4.95 6.036-3.489 5.867 3.355 8.734 5.033v8.389h2.045v-8.389l8.282-4.781 6.32-3.657 6.454 3.724 8.148 4.714v8.389h2.045v-8.389l8.164-4.714 6.438-3.724 6.555 3.774 8.046 4.664v8.389h2.046v-8.389l7.644-4.412 6.957-4.026 6.958 3.976 7.694 4.446v8.388h2.029v-8.388l8.566-4.95 6.035-3.489 5.868 3.355 8.751 5.033v8.389h2.028v-8.389l8.282-4.781 6.337-3.658 6.437 3.725 8.165 4.714v8.389h1.894v-8.389l8.147-4.714 6.455-3.725 6.538 3.775 8.063 4.664v8.389h2.046v-8.389l7.627-4.412 6.974-4.027 6.907 3.993 7.695 4.446v8.389h2.045v-8.389l8.617-4.832zm5.029-76.3v16.877l-6.32 3.657-8.281 4.782-8.064-4.664-6.538-3.775v-16.877l14.602-8.389 14.601 8.389zm-302.796-84.673l5.918 3.356v16.877l-6.538 3.775-8.064 4.664-8.164-4.715-6.438-3.724v-16.81l5.767-3.356 8.835-5.033 8.684 4.966zm-7.661-6.711v-16.944l7.309-4.228 7.292-4.211 7.829 4.513 6.706 3.926v16.877l-8.382 4.815-6.27 3.624-5.75-3.355-8.734-5.017zm0 37.278l8.164-4.714 6.437-3.724 6.974 4.026 7.628 4.396v16.776l-5.029 2.886-9.623 5.553-9.237-5.335-5.314-3.104v-16.76zm21.642-6.71l-6.018-3.473v-16.961l5.432-3.071 9.17-5.301 9.404 5.301 5.248 3.071v16.877l-5.834 3.355-8.768 5.033-8.634-4.831zm9.606-30.551v-16.961l7.31-4.228 7.292-4.211 7.309 4.211 7.293 4.228v16.877l-9.053 5.218-5.549 3.221-5.918-3.355-8.684-5zm0 37.278l8.064-4.647 6.538-3.791 6.32 3.657 8.282 4.748v16.776l-5.03 2.92-9.555 5.519-9.003-5.083-5.616-3.356V399.5zm22.582-6.174l-6.957-4.026v-16.961l6.269-3.624 8.383-4.815 8.382 4.899 6.135 3.54v16.877l-6.906 3.993-7.695 4.446-7.611-4.329zm8.667-31.104v-16.961l7.913-4.513 6.705-3.859 7.31 4.211 7.292 4.228v16.81l-8.852 5.033-5.75 3.356-5.18-2.936-9.438-5.369zm0 37.278l8.751-5.033 5.851-3.355 6.454 3.724 8.147 4.631v16.776l-5.364 3.104-9.237 5.335-8.751-5.083-5.818-3.356-.033-16.743zm21.928-6.559l-6.304-3.641v-16.961l5.566-3.222 9.036-5.217 8.835 5.033 5.767 3.355v16.878l-6.421 3.724-8.181 4.714-8.298-4.663zm9.32-30.719v-16.961l6.706-3.876 7.896-4.563 6.706 3.909 7.812 4.53v16.877l-9.17 5.302-5.432 3.137-6.119-3.557-8.399-4.798zm0 37.278l7.695-4.429 6.907-4.009 6.052 3.489 8.55 5.033v16.659l-5.985 3.54-8.583 5.033-10.059-5.771-4.577-2.802V399.5zm22.062-6.476l-6.437-3.724v-16.961l5.767-3.356 8.834-5.033 8.684 5.033 5.918 3.356v16.877l-6.521 3.775-8.081 4.664-8.164-4.631zm9.187-30.802v-16.961l7.309-4.228 7.293-4.211 7.829 4.513 6.705 3.926v16.877l-8.382 4.815-6.27 3.624-5.75-3.355-8.734-5zm0 37.278l8.164-4.714 6.438-3.724 6.974 4.026 7.627 4.412v16.743l-5.029 2.886-9.623 5.553-9.22-5.335-5.331-3.104V399.5zm21.66-6.71l-6.036-3.473v-16.978l5.449-3.071 9.153-5.301 9.422 5.301 5.197 3.004v16.877l-5.851 3.355-8.768 5.033-8.566-4.747zm9.589-30.551v-16.978l7.309-4.228 7.292-4.211 7.31 4.211 7.309 4.228v16.877l-9.053 5.218-5.566 3.221-5.901-3.355-8.7-4.983zm0 37.278l8.063-4.647 6.538-3.792 6.337 3.658 8.282 4.781v16.726l-5.029 2.92-9.573 5.519-8.986-5.201-5.632-3.238v-16.726zm22.581-6.174l-6.957-4.026v-16.978l6.287-3.624 8.382-4.815 8.382 4.899 6.152 3.54v16.877l-6.923 3.993-7.695 4.446-7.628-4.312zm8.667-31.104v-16.978l7.913-4.513 6.706-3.859 7.292 4.211 7.309 4.228v16.81l-8.851 5.033-5.75 3.356-5.18-2.936-9.439-5.352zm0 37.278l8.751-5.033 5.868-3.355 6.437 3.724 8.164 4.614v16.776l-5.381 3.104-9.22 5.335-8.802-5.033-5.817-3.355v-16.777zm21.945-6.56l-6.32-3.64v-16.978l5.582-3.222 9.036-5.217 8.835 5.033 5.767 3.355v16.878l-6.404 3.775-8.164 4.714-8.332-4.698zm9.304-30.718v-16.978l6.706-3.876 7.912-4.563 6.706 3.909 7.829 4.53v16.877l-9.187 5.302-5.415 3.137-6.135-3.557-8.416-4.781zm0 37.278l7.695-4.429 6.923-4.01 5.985 3.356 8.567 5.033v16.776l-6.035 3.49-8.567 5.033-10.059-5.771-4.509-2.752v-16.726zm22.062-6.476l-6.488-3.825v-16.877l5.767-3.356 8.835-5.033 8.667 5.033 5.934 3.356v16.877l-6.538 3.775-8.063 4.664-8.114-4.614zm9.203-30.802v-16.978l7.293-4.228 7.309-4.211 7.812 4.513 6.79 3.926v16.877l-8.383 4.815-6.253 3.624-5.766-3.355-8.802-4.983zm0 37.278l8.148-4.714 6.454-3.725 6.957 4.027 7.645 4.412v16.726l-5.03 2.886-9.606 5.553-9.237-5.335-5.364-3.104.033-16.726zm21.643-6.711l-6.018-3.472v-16.995l5.431-3.071 9.17-5.301 9.405 5.301 5.197 3.004v16.877l-5.834 3.355-8.768 5.033-8.583-4.731zm.754-53.685l-6.705-3.926v-17.029l7.644-4.412 6.957-4.026 6.907 3.993 7.695 4.445v16.878l-6.706 3.875-7.896 4.564-7.896-4.362zm6.807-31.004l-7.729 4.463-6.873 3.976-6.22-3.59-8.382-4.849v-17.028l5.214-3.02 9.388-5.419 9.656 5.587 4.946 2.852v17.028zm-23.705 5.553l8.08 4.647v16.727l-7.309 4.228-7.292 4.211-7.31-4.211-7.359-4.228v-16.878l8.164-4.714 6.438-3.724 6.588 3.942zm-7.544-5.553l-8.902 5.134-5.7 3.355-6.806-3.926-7.812-4.513v-17.078l4.677-2.701 9.941-5.738 8.885 5.15 5.717 3.356v16.961zm-23.805 5.486l8.181 4.714v16.727l-7.309 4.228-7.293 4.211-7.309-4.211-7.309-4.228v-16.878l8.382-4.781 6.32-3.657 6.337 3.875zm-7.444-5.486l-8.382 4.849-6.202 3.59-5.415-3.137-9.204-5.302v-17.028l5.532-3.188 9.087-5.251 9.371 5.419 5.23 3.02-.017 17.028zm-24.308 4.983l8.768 5.033v16.911l-7.913 4.58-6.706 3.859-6.705-3.909-7.829-4.53v-16.878l8.583-4.949 6.019-3.489 5.783 3.372zm-6.856-5.134l-8.617 5.033-6.002 3.473-6.353-3.674-8.248-4.765v-16.944l5.414-3.121 9.187-5.318 9.64 5.57 5.029 2.869-.05 16.877zm-23.319 5.755l7.694 4.445v16.878l-6.705 3.875-7.913 4.564-7.812-4.513-6.706-3.926v-16.878l7.645-4.412 6.957-4.026 6.84 3.993zm-7.947-5.755l-7.711 4.463-6.89 3.976-6.203-3.59-8.382-4.849v-16.877l5.23-3.02 9.371-5.419 9.657 5.587 4.945 2.852-.017 16.877zm-23.688 5.553l8.064 4.647v16.878l-7.292 4.228-7.31 4.211-7.292-4.211-7.393-4.228v-16.878l8.164-4.714 6.437-3.724 6.622 3.791zm-7.56-5.553l-8.885 5.134-5.717 3.355-6.706-3.926-7.812-4.513v-16.927l4.677-2.701 9.925-5.738 8.902 5.15 5.699 3.356-.083 16.81zm-23.873 5.486l8.165 4.714v16.878l-7.293 4.228-7.309 4.211-7.293-4.211-7.309-4.228v-16.878l8.382-4.781 6.304-3.657 6.353 3.724zm-7.46-5.486l-8.382 4.849-6.219 3.59-5.399-3.137-9.186-5.302v-16.877l5.532-3.188 9.069-5.251 9.388 5.419 5.214 3.02-.017 16.877zm-24.392 5.134l8.768 5.033v16.911l-7.896 4.58-6.706 3.859-6.705-3.909-7.829-4.53v-16.878l8.583-4.949 6.018-3.489 5.767 3.372zm-6.856-5.134l-8.6 5.033-6.002 3.473-6.354-3.741-8.248-4.765v-16.877l5.415-3.121 9.187-5.318 9.623 5.57 5.029 2.869-.05 16.877zm-23.319 5.755l7.745 4.445v16.878l-6.706 3.875-7.913 4.564-7.845-4.513-6.79-3.926v-16.878l7.644-4.412 6.958-4.026 6.907 3.993zm-7.93-5.755l-7.795 4.463-6.874 3.976-6.202-3.59-8.383-4.849v-16.877l5.214-3.02 9.388-5.419 9.707 5.587 4.945 2.852v16.877zm-23.688 5.553l8.064 4.647v16.878l-7.259 4.228-7.31 4.211-7.292-4.211-7.343-4.228v-16.878l8.165-4.714 6.437-3.724 6.538 3.791zm-7.577-5.553L84.76 313.1l-5.717 3.355-6.79-3.926-7.812-4.513v-16.927l4.678-2.701 9.924-5.738 8.902 5.15 5.7 3.356v16.81zm-7.796 32.782l7.796 4.513v16.877l-9.187 5.302-5.398 3.137-6.12-3.557-8.482-4.882v-16.877l6.706-3.876 7.912-4.563 6.773 3.926zm-.754 53.686l8.55 5.033v16.776l-6.019 3.49-8.583 5.033-10.059-5.771-4.526-2.752v-16.776l7.695-4.429 6.907-4.01 6.035 3.406zm8.55 59.155v16.877l-6.957 4.027-7.645 4.412-8.751-5.033-5.85-3.356v-16.927l14.601-8.389 14.602 8.389zm-5.398-5.47l-8.165-4.714v-16.894l6.606-3.825 7.996-4.614 7.93 4.58 6.705 3.859v16.877l-8.097 4.731-6.538 3.775-6.437-3.775zm7.46 5.486l14.601-8.388 14.602 8.388v16.878l-6.035 3.489-8.567 4.95-8.147-4.715-6.454-3.724v-16.878zm23.268-5.788l-7.644-4.412v-16.894l6.27-3.557 8.382-4.815 8.416 4.815 6.186 3.557v16.877l-7.695 4.446-6.907 3.976-7.008-3.993zm7.98 5.788l14.602-8.388 14.602 8.388v16.878l-6.32 3.657-8.282 4.782-8.064-4.664-6.538-3.775v-16.878zm24.208-5.251l-8.583-4.949v-16.894l7.024-4.06 7.577-4.379 7.611 4.396 6.991 4.043v16.877l-8.768 5.033-5.834 3.356-6.018-3.423zm7.041 5.251l14.602-8.388 14.601 8.388v16.878l-6.437 3.724-8.164 4.715-7.678-4.446-6.924-3.993v-16.878zm23.923-5.486l-8.383-4.781v-16.827l6.538-3.775 8.064-4.664 7.997 4.614 6.605 3.825v16.877l-8.081 4.731-6.437 3.708-6.303-3.708zm7.325 5.419l14.602-8.388 14.602 8.388v16.878l-6.957 4.026-7.645 4.412-8.734-5.033-5.868-3.355v-16.928zm23.789-5.419l-8.164-4.714v-16.894l6.605-3.825 7.996-4.614 7.93 4.58 6.706 3.859v16.877l-8.097 4.731-6.539 3.775-6.437-3.775zm7.46 5.486l14.602-8.388 14.601 8.388v16.878l-6.035 3.489-8.566 4.95-8.148-4.715-6.454-3.724v-16.878zm23.269-5.788l-7.645-4.412v-16.894l6.27-3.624 8.382-4.815 8.466 4.882 6.153 3.557v16.877l-7.661 4.446-6.924 3.976-7.041-3.993zm7.98 5.788l14.601-8.388 14.619 8.388v16.878l-6.337 3.657-8.282 4.782-8.046-4.664-6.555-3.775v-16.878zm24.207-5.251l-8.583-4.949v-16.894l7.024-4.06 7.578-4.379 7.627 4.396 6.991 4.043v16.877l-8.768 5.033-5.85 3.356-6.019-3.423zm7.041 5.251l14.619-8.388 14.601 8.388v16.878l-6.454 3.724-8.147 4.715-7.695-4.446-6.924-3.993v-16.878zm23.923-5.486l-8.382-4.781v-16.827l6.538-3.775 8.08-4.664 7.997 4.614 6.605 3.825v16.877l-8.097 4.731-6.421 3.708-6.32-3.708zm7.326 5.419l14.618-8.388 14.602 8.388v16.878l-6.974 4.026-7.628 4.412-8.751-5.033-5.867-3.355v-16.928zm23.805-5.486l-8.231-4.664v-16.877l6.605-3.825 7.997-4.614 7.929 4.58 6.706 3.859v16.877l-8.047 4.731-6.521 3.775-6.438-3.842zm7.46 5.486l14.602-8.388 14.602 8.388v16.878l-6.052 3.489-8.55 4.949-8.164-4.714-6.438-3.724v-16.878zm23.269-5.788l-7.644-4.412v-16.827l6.253-3.624 8.382-4.815 8.382 4.882 6.152 3.557v16.877l-7.694 4.446-6.907 3.976-6.924-4.06zm28.902-53.165l8.281 4.781v16.877l-5.029 2.92-9.556 5.519-9.002-5.201-5.616-3.238v-16.776l8.047-4.647 6.555-3.792 6.32 3.557zm.972-53.602l7.309 4.228v16.927l-9.086 5.218-5.549 3.221-5.918-3.355-8.684-5.033v-16.928l7.293-4.228 7.309-4.211 7.326 4.161zm2.33-52.814l5.03 2.869v16.928l-8.617 5.033-5.985 3.473-6.371-3.674-8.281-4.832v-16.877l5.415-3.121 9.187-5.318 9.622 5.519zm-24.224-51.253l6.354-3.674 8.248-4.748 8.6 5.033 6.001 3.456v16.811l-6.303 3.657-8.298 4.782-8.081-4.664-6.521-3.775v-16.878zm7.728 23.706l5.851 3.355v16.911l-8.801 5.033-5.801 3.356-6.035-3.49-8.566-5.033v-16.743l6.035-3.49 8.566-4.949 8.751 5.05zm-38.977-23.706l6.203-3.54 8.382-4.848 8.885 5.134 5.717 3.355v16.777l-6.035 3.489-8.567 4.95-8.181-4.715-6.42-3.724.016-16.878zm7.041 23.303l6.538 3.792v16.877l-9.002 5.184-5.599 3.255-5.382-3.104-9.287-5.335v-16.877l6.504-3.792 8.165-4.714 8.063 4.714zm-38.306-23.303l5.415-3.12 9.203-5.302 7.662 4.463 6.89 3.959v16.878l-6.89 4.026-7.645 4.413-8.768-5.033-5.85-3.356-.017-16.928zm7.192 23.303l6.454 3.725v16.944l-9.237 5.335-5.365 3.104-5.029-2.919-9.572-5.52v-16.877l6.32-3.657 8.382-4.782 8.047 4.647zm-38.39-23.37l6.806-3.926 7.812-4.496 8.382 4.849 6.22 3.573v16.945l-6.438 3.724-8.164 4.715-7.695-4.446-6.923-3.993v-16.945zm6.705 23.102l6.924 3.993v16.944l-10.059 5.772-4.61 2.667-5.029-2.886-9.623-5.553v-16.877l6.974-4.027 7.628-4.412 7.795 4.379zm-38.004-23.035l6.37-3.674 8.231-4.748 8.617 5.033 6.002 3.456v16.811l-6.32 3.657-8.382 4.782-8.064-4.664-6.538-3.775.084-16.878zm7.661 23.706l5.867 3.355v16.911l-8.801 5.033-5.817 3.356-6.018-3.49-8.584-5.033v-16.743l6.035-3.49 8.567-4.949 8.751 5.05zm-38.91-23.706l6.22-3.54 8.382-4.848 8.902 5.134 5.699 3.355v16.777l-6.018 3.489-8.583 4.95-8.164-4.715-6.438-3.724v-16.878zm7.058 23.303l6.538 3.792v16.877l-8.986 5.184-5.616 3.255-5.348-3.104-9.237-5.335v-16.877l6.421-3.792 8.147-4.714 8.081 4.714zm-38.307-23.303l5.415-3.12 9.187-5.302 7.729 4.463 6.873 3.959v16.878l-6.957 4.026-7.645 4.413-8.768-5.033-5.834-3.356v-16.928zm7.142 23.303l6.438 3.725v16.944l-9.221 5.335-5.381 3.104-5.029-2.919-9.556-5.52v-16.877l6.32-3.657 8.282-4.782 8.147 4.647zm-38.39-23.303l6.806-3.925 7.796-4.497 8.382 4.849 6.202 3.573v16.878l-6.437 3.724-8.147 4.715-7.695-4.446-6.907-3.993v-16.878zm6.706 23.102l6.906 3.993v16.877l-10.058 5.772-4.577 2.667-5.029-2.886-9.623-5.553v-16.877l6.957-4.027 7.645-4.412 7.779 4.446zm-37.955-23.102l6.371-3.674 8.231-4.748 8.617 5.033 5.985 3.456v16.811l-6.304 3.657-8.382 4.782-8.063-4.664-6.539-3.775.084-16.878zm7.729 23.706l5.85 3.355v16.911l-8.784 5.033-5.817 3.356-6.019-3.49-8.583-5.033v-16.743l6.035-3.49 8.567-4.949 8.751 5.05zm-38.977-23.706l6.202-3.54 8.383-4.848 8.885 5.134 5.716 3.355v16.777l-6.018 3.489-8.567 4.95-8.164-4.715-6.437-3.724v-16.878zm7.041 23.303l6.538 3.792v16.877l-8.936 5.184-5.616 3.255-5.364-3.104-9.237-5.335v-16.877l6.387-3.792 8.164-4.714 8.064 4.714zm-38.29-23.303l5.415-3.12 9.187-5.302 7.728 4.463 6.857 3.959v16.878l-6.957 4.026-7.628 4.413-8.768-5.033-5.834-3.356v-16.928zm-6.018 49.492l-9.556-5.52v-16.877l6.203-3.657 8.382-4.782 8.13 4.647 6.438 3.725v16.944l-9.237 5.335-5.331 3.104-5.03-2.919zm-2.314 52.864l-7.292-4.228v-16.878l8.382-4.781 6.253-3.657 6.438 3.724 8.164 4.714v16.878l-7.293 4.228-7.309 4.211-7.343-4.211zm-1.04 53.585l-6.303-3.641v-16.877l5.566-3.222 9.12-5.217 8.835 5.033 5.767 3.355v16.878l-6.438 3.724-8.164 4.765-8.382-4.798zm1.996 55.363l-8.382-4.781v-16.928l6.521-3.775 8.248-4.664 7.996 4.614 6.606 3.825v16.877l-8.198 4.731-6.404 3.691-6.387-3.59zm1.358 54.843l-9.556-5.519v-16.878l9.556-5.519 5.029-2.919 5.365 3.103 9.237 5.335v16.878l-14.602 8.388-5.03-2.869zm35.205 21.575l-14.602 8.389-14.602-8.389v-16.877l14.602-8.388 14.602 8.388v16.877zm-4.342-21.809l-9.237-5.336v-16.827l9.237-5.335 5.364-3.103 5.683 3.254 8.986 5.184v16.878l-14.602 8.388-5.431-3.103zm35.59 21.809l-14.601 8.389-14.602-8.389v-16.877l14.602-8.388 14.601 8.388v16.877zm-5.029-22.128l-8.583-5.033v-16.811l8.583-5.033 6.018-3.489 5.818 3.355 8.784 5.033v16.878l-14.602 8.388-6.018-3.288zm36.244 22.128l-14.601 8.389-14.602-8.389v-16.877l14.602-8.388 14.601 8.388v16.877zm-3.956-21.541l-9.623-5.553v-16.878l9.623-5.553 5.029-2.885 4.61 2.734 10.059 5.771v16.878l-14.602 8.388-5.096-2.902zm35.205 21.541l-14.602 8.389-14.601-8.389v-16.877l14.601-8.388 14.602 8.388v16.877zm-4.023-21.575l-9.556-5.519v-16.878l9.556-5.519 5.029-2.919 5.381 3.103 9.22 5.335v16.878l-14.601 8.388-5.029-2.869zm35.205 21.575l-14.602 8.389-14.602-8.389v-16.877l14.602-8.388 14.602 8.388v16.877zm-4.342-21.809l-9.238-5.336v-16.827l9.238-5.335 5.364-3.103 5.616 3.254 8.986 5.184v16.878l-14.602 8.388-5.364-3.103zm35.59 21.809l-14.602 8.389-14.601-8.389v-16.877l14.601-8.388 14.602 8.388v16.877zm-5.029-22.128l-8.583-5.033v-16.811l8.583-5.033 6.018-3.489 5.817 3.355 8.802 5.033v16.878l-14.619 8.388-6.018-3.288zm36.261 22.128l-14.618 8.389-14.602-8.389v-16.877l14.602-8.388 14.618 8.388v16.877zm-3.973-21.541l-9.623-5.553v-16.878l9.623-5.553 5.029-2.885 4.61 2.667 10.059 5.771v16.878l-14.619 8.388-5.079-2.835zm35.205 21.541l-14.602 8.389-14.618-8.389v-16.877l14.618-8.388 14.602 8.388v16.877zm-4.024-21.575l-9.572-5.519v-16.878l9.572-5.519 5.03-2.919 5.364 3.103 9.237 5.335v16.878l-14.601 8.388-5.03-2.869zm35.205 21.575l-14.601 8.389-14.619-8.389v-16.877l14.619-8.388 14.601 8.388v16.877zm-4.358-21.809l-9.221-5.336v-16.827l9.221-5.335 5.381-3.103 5.599 3.254 9.003 5.184v16.878l-14.602 8.388-5.381-3.103zm35.607 21.809l-14.602 8.389-14.601-8.389v-16.877l14.601-8.388 14.602 8.388v16.877zm-5.029-22.128l-8.567-5.033v-16.811l8.567-5.033 6.035-3.489 5.8 3.355 8.801 5.033v16.878l-14.601 8.388-6.035-3.288zm7.309 22.128v-16.877l14.602-8.388 14.601 8.388v16.877l-14.601 8.389-14.602-8.389z" fill="url(#paint2_radial_278_65)"/></g><defs><linearGradient id="paint0_linear_278_65" x1="162" y1="0" x2="162" y2="388" gradientUnits="userSpaceOnUse"><stop stop-color="#867DFD"/><stop offset="1" stop-color="#2B1FC7"/></linearGradient><linearGradient id="paint1_linear_278_65" x1="162" y1=".277" x2="162" y2="388.277" gradientUnits="userSpaceOnUse"><stop stop-color="#867DFD"/><stop offset="1" stop-color="#2B1FC7"/></linearGradient><radialGradient id="paint2_radial_278_65" cx="0" cy="0" r="1" gradientUnits="userSpaceOnUse" gradientTransform="matrix(0 162.475 -187.517 0 227.517 380.752)"><stop stop-color="#fff"/><stop offset="1" stop-color="#fff" stop-opacity="0"/></radialGradient></defs></svg>