<svg width="573" height="624" fill="none" xmlns="http://www.w3.org/2000/svg"><path fill="url(#paint0_linear_292_238)" d="M.397.279h572v623h-572z"/><path d="M553.762 483.266l7.698-4.434 7.442 4.263 2.495 1.429v-3.006l-8.636-4.968v-21.404l8.636-4.989v-3.006l-10.001 5.735-6.397-3.667-12.219-7.057v-21.447l12.219-7.057 6.397-3.667 5.843 3.39 4.094 2.345v-2.985l-8.636-4.988v-21.448l8.636-4.989v-3.006l-2.516 1.471-7.421 4.264-7.677-4.413-10.896-6.289v-21.447l8.934-5.16 9.639-5.564 9.681 5.586.256.149v-3.006l-1.258-.725-7.378-4.264v-21.383l8.636-4.989v-2.985h-.149l-9.788 5.671-9.724-5.607-8.849-5.116v-21.448l7.975-4.605 10.662-6.119 9.937 5.735v-3.006l-8.636-4.967v-21.447l8.636-4.989v-3.006l-1.429.831-8.529 4.904-8.573-4.968-9.937-5.756v-21.447l10.897-6.29 7.677-4.434 7.42 4.264 2.517 1.471v-2.985l-8.637-4.989v-21.447l7.016-4.051 1.621-.938v-3.006l-4.095 2.367-5.949 3.39-6.397-3.667-12.219-7.057v-21.447l8.849-5.117 9.767-5.607 9.766 5.65h.171v-2.921l-8.636-4.989v-21.447l8.636-4.968v-3.006l-3.988 2.303-5.949 3.432-6.291-3.624-12.218-7.163v-10.66h-2.602v10.66l-11.558 6.673-7.015 4.05-7.272-4.264-11.302-6.46v-10.66h-2.601v10.66l-11.643 6.801-6.888 3.987-6.653-3.837-12.048-6.95v-10.66h-2.602v10.66l-11.941 6.886-6.632 3.837-6.397-3.667-12.112-7.056v-10.66h-2.581v10.66l-12.645 7.291-5.949 3.432-6.398-3.624-12.176-7.1v-10.66h-2.58v10.66l-11.558 6.674-7.037 4.05-7.25-4.264-11.323-6.46v-10.66h-2.601v10.66l-11.686 6.737-6.888 3.987-6.632-3.837-11.941-6.886v-10.66h-2.602v10.66l-11.92 6.95-6.653 3.837-6.397-3.667-12.176-7.12v-10.66h-2.602v10.66l-12.624 7.355-5.949 3.432-6.397-3.624-12.177-7.163v-10.66h-2.537v10.66l-11.6 6.736-7.037 4.051-7.251-4.264-11.323-6.523v-10.66h-2.601v10.66l-11.686 6.8-6.888 3.987-6.631-3.837-11.942-6.95v-10.66h-2.602v10.66l-11.941 6.886-6.589 3.901-6.397-3.667-12.219-7.12v-10.66h-2.602v10.66l-8.636 5.052v3.006l9.937-5.735 10.683 6.204 7.89 4.541v21.405l-8.188 4.733-10.385 5.991-9.937-5.735v3.006l8.636 4.989v21.447l-8.636 4.967v3.006l9.937-5.735 11.942 6.887 6.631 3.837v21.447l-10.662 6.162-7.89 4.562-9.958-5.735v3.006l8.636 4.968v21.447l-8.636 4.989v3.006l1.429-.746 8.529-4.904 9.234 5.266 9.276 5.373v21.447l-11.259 6.396-7.315 4.264-9.894-5.693v3.006l.832.491 7.804 4.498v21.448l-8.53 4.988v2.985l2.389-1.343 7.442-4.264 8.21 4.733 10.363 5.927v21.319l-6.823 3.944-11.75 6.78-9.937-5.671v3.006l8.636 4.989v21.447l-8.53 4.967v3.006l9.938-5.735 18.573 10.66v21.448l-8.21 4.732-10.363 5.991-10.044-5.671v2.985l8.636 4.989v21.447l-8.636 4.989v3.006l9.937-5.735 18.573 10.66v21.447l-18.573 10.66-9.937-5.629v3.006l8.636 4.989v10.66h2.602v-10.66l10.534-6.076 8.082-4.647 8.21 4.732 10.363 5.991v10.66h2.602v-10.66l10.363-5.991 8.21-4.732 8.316 4.796 10.257 5.927v10.66h2.602v-10.66l9.724-5.607 8.849-5.116 8.764 4.988 9.831 5.735v10.66h2.601v-10.66l10.897-6.289 7.677-4.434 7.463 4.263 11.11 6.396v10.66h2.602v-10.66l10.534-6.076 8.039-4.647 8.21 4.732 10.363 5.991v10.66h2.602v-10.66l10.385-5.991 8.188-4.732 8.338 4.796 10.236 5.927v10.66h2.601v-10.66l9.724-5.607 8.849-5.116 8.85 5.052 9.788 5.65v10.66h2.58v-10.66l10.897-6.289 7.676-4.435 7.464 4.264 11.131 6.396v10.66h2.58v-10.66l10.534-6.076 8.061-4.648 8.188 4.733 10.385 5.991v10.66h2.41v-10.66l10.363-5.991 8.21-4.733 8.317 4.797 10.256 5.927v10.66h2.602v-10.66l9.703-5.607 8.87-5.117 8.786 5.074 9.788 5.65v10.66h2.601v-10.66l10.961-6.14zm6.397-96.961v21.448l-8.039 4.647-10.534 6.076-10.257-5.927-8.317-4.796v-21.448l18.574-10.66 18.573 10.66zM175.002 278.706l7.528 4.264v21.447l-8.317 4.797-10.257 5.927-10.385-5.991-8.188-4.733v-21.362l7.336-4.264 11.237-6.396 11.046 6.311zm-9.745-8.528v-21.532l9.297-5.373 9.276-5.351 9.959 5.735 8.53 4.989v21.447l-10.663 6.119-7.975 4.605-7.314-4.264-11.11-6.375zm0 47.372l10.385-5.991 8.188-4.733 8.871 5.117 9.703 5.586v21.319l-6.397 3.667-12.241 7.057-11.749-6.78-6.76-3.944V317.55zm27.53-8.528l-7.656-4.413v-21.554l6.909-3.901 11.665-6.737 11.962 6.737 6.675 3.901v21.448l-7.421 4.263-11.152 6.396-10.982-6.14zm12.218-38.822v-21.554l9.298-5.373 9.276-5.351 9.297 5.351 9.276 5.373v21.447l-11.515 6.63-7.058 4.094-7.528-4.264-11.046-6.353zm0 47.371l10.257-5.905 8.317-4.818 8.039 4.647 10.534 6.034v21.319l-6.397 3.71-12.155 7.014-11.451-6.46-7.144-4.264v-21.277zm28.724-7.845l-8.85-5.117v-21.554l7.976-4.605 10.662-6.119 10.662 6.226 7.804 4.498v21.448l-8.785 5.074-9.788 5.649-9.681-5.5zm11.025-39.526v-21.554l10.065-5.735 8.529-4.904 9.298 5.351 9.276 5.373v21.362l-11.26 6.396-7.314 4.264-6.589-3.731-12.005-6.822zm0 47.371l11.131-6.396 7.442-4.263 8.21 4.733 10.363 5.884v21.319l-6.823 3.944-11.75 6.78-11.131-6.46-7.4-4.264-.042-21.277zm27.892-8.336l-8.018-4.626v-21.554l7.079-4.093 11.494-6.631 11.238 6.396 7.335 4.264v21.448l-8.167 4.732-10.406 5.991-10.555-5.927zm11.856-39.035v-21.554l8.529-4.925 10.044-5.799 8.53 4.967 9.937 5.757v21.447l-11.664 6.737-6.909 3.987-7.784-4.52-10.683-6.097zm0 47.371l9.788-5.628 8.785-5.095 7.698 4.434 10.875 6.396v21.17l-7.612 4.498-10.918 6.396-12.795-7.334-5.821-3.56v-21.277zm28.062-8.229l-8.188-4.733v-21.554l7.335-4.264 11.238-6.396 11.046 6.396 7.528 4.264v21.448l-8.296 4.796-10.278 5.927-10.385-5.884zM324.25 270.2v-21.554l9.297-5.373 9.276-5.351 9.959 5.735 8.529 4.989v21.447l-10.662 6.119-7.975 4.605-7.314-4.264-11.11-6.353zm0 47.371l10.385-5.99 8.188-4.733 8.871 5.116 9.703 5.607v21.277l-6.398 3.667-12.24 7.057-11.728-6.78-6.781-3.944v-21.277zm27.551-8.527l-7.677-4.414v-21.575l6.93-3.901 11.643-6.737 11.985 6.737 6.61 3.816v21.447l-7.442 4.264-11.153 6.396-10.896-6.033zm12.197-38.823v-21.575l9.298-5.373 9.276-5.351 9.297 5.351 9.297 5.373v21.447l-11.515 6.63-7.079 4.094-7.507-4.264-11.067-6.332zm0 47.372l10.257-5.906 8.317-4.818 8.06 4.648 10.534 6.076v21.255l-6.397 3.71-12.176 7.014-11.43-6.609-7.165-4.115v-21.255zm28.724-7.846l-8.85-5.117v-21.575l7.997-4.605 10.662-6.119 10.662 6.226 7.826 4.498v21.448l-8.807 5.074-9.788 5.649-9.702-5.479zm11.024-39.526v-21.575l10.065-5.735 8.53-4.904 9.276 5.351 9.297 5.373v21.362l-11.259 6.396-7.314 4.264-6.589-3.731-12.006-6.801zm0 47.372l11.132-6.396 7.463-4.264 8.189 4.733 10.384 5.863v21.319l-6.845 3.944-11.728 6.78-11.195-6.396-7.4-4.264v-21.319zm27.914-8.336l-8.039-4.627v-21.575l7.101-4.093 11.493-6.631 11.238 6.396 7.336 4.264v21.448l-8.146 4.796-10.385 5.991-10.598-5.969zm11.835-39.036v-21.575l8.529-4.925 10.065-5.799 8.53 4.967 9.958 5.757v21.447l-11.685 6.737-6.888 3.987-7.805-4.52-10.704-6.076zm0 47.372l9.787-5.629 8.807-5.095 7.613 4.264 10.897 6.396v21.319l-7.677 4.435-10.897 6.395-12.794-7.334-5.736-3.496v-21.255zm28.062-8.23l-8.252-4.86v-21.448l7.335-4.264 11.238-6.396 11.025 6.396 7.548 4.264v21.448l-8.316 4.796-10.257 5.927-10.321-5.863zm11.707-39.142v-21.575l9.276-5.373 9.298-5.351 9.937 5.735 8.636 4.989v21.447l-10.662 6.119-7.954 4.605-7.336-4.264-11.195-6.332zm0 47.372l10.364-5.991 8.21-4.733 8.849 5.117 9.724 5.607v21.255l-6.397 3.667-12.219 7.057-11.75-6.78-6.823-3.944.042-21.255zm27.53-8.528l-7.656-4.413v-21.597l6.909-3.901 11.665-6.737 11.963 6.737 6.61 3.816v21.447l-7.421 4.264-11.152 6.396-10.918-6.012zm.959-68.222l-8.529-4.989v-21.639l9.723-5.607 8.85-5.117 8.786 5.074 9.787 5.65v21.447l-8.529 4.925-10.044 5.799-10.044-5.543zm8.658-39.399l-9.831 5.671-8.742 5.053-7.912-4.562-10.662-6.162v-21.639l6.632-3.837 11.942-6.887 12.282 7.1 6.291 3.624v21.639zm-30.152 7.057l10.278 5.906v21.255l-9.298 5.373-9.276 5.351-9.297-5.351-9.361-5.373v-21.447l10.385-5.991 8.188-4.733 8.381 5.01zm-9.596-7.057l-11.323 6.524-7.251 4.264-8.657-4.989-9.937-5.735v-21.703l5.949-3.432 12.645-7.292 11.302 6.546 7.272 4.263v21.554zm-30.281 6.972l10.407 5.991v21.255l-9.298 5.373-9.276 5.351-9.297-5.351-9.297-5.373v-21.447l10.662-6.076 8.039-4.648 8.06 4.925zm-9.468-6.972l-10.662 6.162-7.89 4.562-6.887-3.987-11.707-6.737v-21.639l7.037-4.051 11.557-6.673 11.921 6.887 6.653 3.837-.022 21.639zm-30.92 6.332l11.153 6.396v21.49l-10.065 5.82-8.53 4.904-8.529-4.968-9.959-5.756v-21.447l10.918-6.29 7.656-4.434 7.356 4.285zm-8.721-6.524l-10.961 6.396-7.634 4.413-8.082-4.669-10.491-6.054v-21.533l6.888-3.965 11.685-6.759 12.262 7.079 6.397 3.645-.064 21.447zm-29.662 7.313l9.788 5.65v21.447l-8.53 4.925-10.065 5.799-9.937-5.735-8.53-4.989v-21.447l9.724-5.607 8.85-5.117 8.7 5.074zm-10.108-7.313l-9.809 5.671-8.764 5.053-7.89-4.562-10.662-6.162v-21.447l6.653-3.837 11.92-6.887 12.283 7.1 6.291 3.624-.022 21.447zm-30.131 7.057l10.257 5.906v21.447l-9.276 5.373-9.297 5.351-9.276-5.351-9.404-5.373v-21.447l10.385-5.991 8.188-4.733 8.423 4.818zm-9.617-7.057l-11.302 6.524-7.271 4.264-8.53-4.989-9.937-5.735v-21.511l5.949-3.432 12.624-7.292 11.323 6.546 7.251 4.263-.107 21.362zm-30.366 6.972l10.385 5.991v21.447l-9.276 5.373-9.297 5.351-9.276-5.351-9.297-5.373v-21.447l10.662-6.076 8.018-4.648 8.081 4.733zm-9.489-6.972l-10.662 6.162-7.911 4.562-6.866-3.987-11.686-6.737v-21.447l7.037-4.051 11.536-6.673 11.942 6.887 6.632 3.837-.022 21.447zm-31.026 6.524l11.152 6.396v21.49l-10.044 5.82-8.529 4.904-8.53-4.968-9.958-5.756v-21.447l10.918-6.29 7.655-4.434 7.336 4.285zm-8.722-6.524l-10.939 6.396-7.634 4.413-8.082-4.754-10.492-6.055v-21.447l6.888-3.965 11.686-6.759 12.24 7.079 6.397 3.645-.064 21.447zm-29.662 7.313l9.852 5.65v21.447l-8.53 4.925-10.065 5.799-9.979-5.735-8.637-4.989v-21.447l9.724-5.607 8.85-5.117 8.785 5.074zm-10.086-7.313l-9.916 5.671-8.743 5.053-7.89-4.562-10.662-6.162v-21.447l6.632-3.837 11.941-6.887 12.347 7.1 6.291 3.624v21.447zm-30.131 7.057l10.257 5.906v21.447l-9.234 5.373-9.297 5.351-9.276-5.351-9.34-5.373v-21.447l10.385-5.991 8.188-4.733 8.317 4.818zm-9.639-7.057l-11.302 6.524-7.271 4.264-8.636-4.989-9.937-5.735v-21.511l5.949-3.432 12.624-7.292 11.323 6.546 7.25 4.263v21.362zm-9.915 41.659l9.915 5.735v21.447l-11.685 6.737-6.867 3.987-7.783-4.52-10.79-6.204v-21.447l8.53-4.925 10.065-5.799 8.615 4.989zm-.96 68.222l10.875 6.396v21.319l-7.655 4.435-10.918 6.395-12.795-7.334-5.757-3.496v-21.319l9.788-5.629 8.785-5.095 7.677 4.328zm10.875 75.172v21.448l-8.849 5.116-9.724 5.607-11.131-6.396-7.442-4.264v-21.511l18.573-10.66 18.573 10.66zm-6.866-6.95l-10.385-5.991v-21.468l8.402-4.861 10.171-5.863 10.087 5.82 8.529 4.904v21.447l-10.299 6.012-8.317 4.797-8.188-4.797zm9.489 6.972l18.573-10.66 18.574 10.66v21.447l-7.677 4.434-10.897 6.289-10.363-5.99-8.21-4.733v-21.447zm29.598-7.356l-9.724-5.607v-21.468l7.975-4.52 10.663-6.119 10.704 6.119 7.869 4.52v21.447l-9.788 5.65-8.785 5.052-8.914-5.074zm10.15 7.356l18.574-10.66 18.573 10.66v21.447l-8.039 4.647-10.534 6.076-10.257-5.926-8.317-4.797v-21.447zm30.792-6.673l-10.918-6.29v-21.468l8.935-5.16 9.639-5.564 9.681 5.586 8.892 5.138v21.447l-11.152 6.396-7.421 4.264-7.656-4.349zm8.957 6.673l18.573-10.66 18.573 10.66v21.447l-8.188 4.733-10.385 5.99-9.767-5.649-8.806-5.074v-21.447zm30.429-6.972l-10.662-6.076v-21.383l8.316-4.797 10.257-5.927 10.172 5.863 8.402 4.861v21.447l-10.279 6.012-8.188 4.712-8.018-4.712zm9.319 6.886l18.573-10.66 18.573 10.66v21.448l-8.849 5.116-9.724 5.607-11.11-6.396-7.463-4.263v-21.512zm30.259-6.886l-10.385-5.991v-21.468l8.402-4.861 10.171-5.863 10.087 5.82 8.529 4.904v21.447l-10.299 6.012-8.317 4.797-8.188-4.797zm9.489 6.972l18.573-10.66 18.574 10.66v21.447l-7.677 4.434-10.897 6.289-10.363-5.99-8.21-4.733v-21.447zm29.598-7.356l-9.724-5.607v-21.468l7.975-4.605 10.662-6.119 10.769 6.204 7.826 4.52v21.447l-9.745 5.65-8.807 5.052-8.956-5.074zm10.15 7.356l18.574-10.66 18.594 10.66v21.447l-8.06 4.647-10.534 6.076-10.236-5.926-8.338-4.797v-21.447zm30.792-6.673l-10.918-6.29v-21.468l8.935-5.16 9.639-5.564 9.702 5.586 8.892 5.138v21.447l-11.152 6.396-7.442 4.264-7.656-4.349zm8.956 6.673l18.595-10.66 18.573 10.66v21.447l-8.209 4.733-10.364 5.99-9.788-5.649-8.807-5.074v-21.447zm30.43-6.972l-10.662-6.076v-21.383l8.316-4.797 10.279-5.927 10.171 5.863 8.402 4.861v21.447l-10.3 6.012-8.167 4.712-8.039-4.712zm9.319 6.886l18.594-10.66 18.574 10.66v21.448l-8.871 5.116-9.703 5.607-11.131-6.396-7.463-4.263v-21.512zm30.28-6.971l-10.47-5.927v-21.447l8.402-4.861 10.171-5.863 10.086 5.82 8.53 4.904v21.447l-10.235 6.012-8.296 4.797-8.188-4.882zm9.489 6.971l18.574-10.66 18.573 10.66v21.448l-7.698 4.434-10.875 6.289-10.385-5.991-8.189-4.732v-21.448zm29.598-7.355l-9.724-5.607v-21.383l7.954-4.605 10.662-6.119 10.662 6.204 7.826 4.52v21.447l-9.787 5.65-8.786 5.052-8.807-5.159zm36.763-67.561l10.534 6.076v21.447l-6.397 3.71-12.155 7.014-11.451-6.609-7.144-4.115v-21.319l10.236-5.906 8.338-4.818 8.039 4.52zm1.237-68.116l9.297 5.373v21.511l-11.558 6.63-7.058 4.094-7.527-4.264-11.046-6.396v-21.511l9.276-5.373 9.297-5.351 9.319 5.287zm2.964-67.113l6.397 3.645v21.511l-10.961 6.396-7.612 4.413-8.103-4.669-10.535-6.14v-21.447l6.888-3.965 11.686-6.759 12.24 7.015zm-30.814-65.131l8.082-4.669 10.492-6.034 10.939 6.396 7.634 4.392v21.362l-8.018 4.648-10.555 6.076-10.278-5.927-8.296-4.797v-21.447zm9.831 30.124l7.442 4.264v21.49l-11.195 6.396-7.378 4.264-7.677-4.435-10.897-6.396v-21.276l7.677-4.435 10.897-6.289 11.131 6.417zm-49.579-30.124l7.89-4.499 10.662-6.161 11.302 6.524 7.272 4.264v21.319l-7.677 4.434-10.897 6.29-10.406-5.991-8.167-4.733.021-21.447zm8.956 29.612l8.317 4.819v21.447l-11.451 6.588-7.123 4.136-6.845-3.944-11.813-6.78v-21.447l8.274-4.819 10.384-5.99 10.257 5.99zm-48.725-29.612l6.887-3.966 11.707-6.737 9.745 5.671 8.765 5.032v21.447l-8.765 5.117-9.723 5.607-11.153-6.396-7.442-4.264-.021-21.511zm9.148 29.612l8.21 4.733v21.533l-11.75 6.78-6.824 3.944-6.397-3.71-12.176-7.014v-21.447l8.039-4.648 10.662-6.076 10.236 5.905zm-48.833-29.698l8.658-4.988 9.937-5.714 10.662 6.161 7.911 4.541v21.533l-8.188 4.733-10.385 5.991-9.788-5.65-8.807-5.074v-21.533zm8.53 29.357l8.807 5.074v21.533l-12.795 7.334-5.864 3.39-6.397-3.667-12.24-7.057v-21.447l8.871-5.117 9.702-5.607 9.916 5.564zm-48.342-29.271l8.103-4.669 10.471-6.034 10.96 6.396 7.634 4.392v21.362l-8.039 4.648-10.662 6.076-10.257-5.927-8.316-4.797.106-21.447zm9.745 30.124l7.464 4.264v21.49l-11.195 6.396-7.4 4.264-7.655-4.435-10.918-6.396v-21.276l7.677-4.435 10.896-6.289 11.131 6.417zm-49.493-30.124l7.911-4.499 10.662-6.161 11.323 6.524 7.251 4.264v21.319l-7.656 4.434-10.918 6.29-10.385-5.991-8.188-4.733v-21.447zm8.977 29.612l8.317 4.819v21.447l-11.43 6.588-7.143 4.136-6.803-3.944-11.749-6.78v-21.447l8.167-4.819 10.363-5.99 10.278 5.99zm-48.725-29.612l6.887-3.966 11.686-6.737 9.831 5.671 8.742 5.032v21.447l-8.849 5.117-9.724 5.607-11.152-6.396-7.421-4.264v-21.511zm9.084 29.612l8.188 4.733v21.533l-11.728 6.78-6.845 3.944-6.397-3.71-12.155-7.014v-21.447l8.039-4.648 10.534-6.076 10.364 5.905zm-48.832-29.612l8.657-4.989 9.916-5.714 10.662 6.162 7.89 4.541v21.447l-8.189 4.733-10.363 5.991-9.788-5.65-8.785-5.074v-21.447zm8.529 29.357l8.786 5.074v21.447l-12.795 7.334-5.821 3.39-6.397-3.667-12.241-7.057v-21.447l8.85-5.117 9.724-5.607 9.894 5.65zm-48.278-29.357l8.104-4.669 10.47-6.034 10.96 6.396 7.613 4.392v21.362l-8.018 4.648-10.662 6.076-10.257-5.927-8.316-4.797.106-21.447zm9.831 30.124l7.442 4.264v21.49l-11.174 6.396-7.399 4.264-7.656-4.435-10.918-6.396v-21.276l7.677-4.435 10.897-6.289 11.131 6.417zm-49.579-30.124l7.89-4.499 10.662-6.161 11.302 6.524 7.271 4.264v21.319l-7.655 4.434-10.897 6.29-10.384-5.991-8.189-4.733v-21.447zm8.956 29.612l8.317 4.819v21.447l-11.366 6.588-7.144 4.136-6.823-3.944-11.75-6.78v-21.447l8.124-4.819 10.385-5.99 10.257 5.99zm-48.704-29.612l6.888-3.966 11.685-6.737 9.831 5.671 8.721 5.032v21.447l-8.849 5.117-9.703 5.607-11.152-6.396-7.421-4.264v-21.511zm-7.655 62.892l-12.155-7.014v-21.447l7.89-4.648 10.662-6.076 10.342 5.905 8.188 4.733v21.533l-11.749 6.78-6.781 3.944-6.397-3.71zm-2.943 67.178l-9.276-5.373v-21.447l10.662-6.076 7.954-4.648 8.188 4.733 10.385 5.991v21.447l-9.276 5.373-9.297 5.351-9.34-5.351zm-1.322 68.094l-8.018-4.626v-21.448l7.079-4.093 11.601-6.631 11.238 6.396 7.335 4.264v21.448l-8.188 4.732-10.385 6.055-10.662-6.097zm2.537 70.354l-10.662-6.076v-21.511l8.295-4.797 10.492-5.927 10.171 5.863 8.402 4.861v21.447l-10.427 6.012-8.146 4.69-8.125-4.562zm1.728 69.693l-12.155-7.014v-21.447l12.155-7.014 6.397-3.71 6.824 3.944 11.749 6.78v21.447l-18.573 10.66-6.397-3.646zm44.78 27.417l-18.573 10.66-18.573-10.66v-21.447l18.573-10.66 18.573 10.66v21.447zm-5.523-27.715l-11.749-6.78v-21.383l11.749-6.78 6.824-3.944 7.229 4.136 11.43 6.588v21.447l-18.574 10.66-6.909-3.944zm45.271 27.715l-18.573 10.66-18.573-10.66v-21.447l18.573-10.66 18.573 10.66v21.447zm-6.397-28.12l-10.918-6.396v-21.362l10.918-6.396 7.656-4.435 7.399 4.264 11.174 6.396v21.448l-18.573 10.659-7.656-4.178zm46.103 28.12l-18.573 10.66-18.574-10.66v-21.447l18.574-10.66 18.573 10.66v21.447zm-5.032-27.374l-12.241-7.057v-21.447l12.241-7.057 6.397-3.667 5.864 3.475 12.794 7.334v21.447l-18.573 10.66-6.482-3.688zm44.78 27.374l-18.573 10.66-18.573-10.66v-21.447l18.573-10.66 18.573 10.66v21.447zm-5.118-27.417l-12.154-7.014v-21.447l12.154-7.014 6.398-3.71 6.845 3.944 11.728 6.78v21.447l-18.573 10.66-6.398-3.646zm44.781 27.417l-18.573 10.66-18.573-10.66v-21.447l18.573-10.66 18.573 10.66v21.447zm-5.523-27.715l-11.749-6.78v-21.383l11.749-6.78 6.824-3.944 7.144 4.136 11.429 6.588v21.447l-18.573 10.66-6.824-3.944zm45.271 27.715l-18.573 10.66-18.573-10.66v-21.447l18.573-10.66 18.573 10.66v21.447zm-6.397-28.12l-10.918-6.396v-21.362l10.918-6.396 7.656-4.435 7.399 4.264 11.195 6.396v21.448l-18.594 10.659-7.656-4.178zm46.124 28.12l-18.594 10.66-18.574-10.66v-21.447l18.574-10.66 18.594 10.66v21.447zm-5.054-27.374l-12.24-7.057v-21.447l12.24-7.057 6.398-3.667 5.864 3.39 12.794 7.334v21.447l-18.594 10.66-6.462-3.603zm44.781 27.374l-18.573 10.66-18.595-10.66v-21.447l18.595-10.66 18.573 10.66v21.447zm-5.118-27.417l-12.176-7.014v-21.447l12.176-7.014 6.398-3.71 6.823 3.944 11.75 6.78v21.447l-18.573 10.66-6.398-3.646zm44.781 27.417l-18.573 10.66-18.595-10.66v-21.447l18.595-10.66 18.573 10.66v21.447zm-5.544-27.715l-11.728-6.78v-21.383l11.728-6.78 6.845-3.944 7.122 4.136 11.451 6.588v21.447l-18.573 10.66-6.845-3.944zm45.292 27.715l-18.573 10.66-18.573-10.66v-21.447l18.573-10.66 18.573 10.66v21.447zm-6.397-28.12l-10.897-6.396v-21.362l10.897-6.396 7.677-4.435 7.378 4.264 11.195 6.396v21.448l-18.573 10.659-7.677-4.178zm9.297 28.12v-21.447l18.574-10.66 18.573 10.66v21.447l-18.573 10.66-18.574-10.66z" fill="url(#paint1_radial_292_238)"/><defs><radialGradient id="paint1_radial_292_238" cx="0" cy="0" r="1" gradientUnits="userSpaceOnUse" gradientTransform="scale(238.521 206.468) rotate(90 -.013 1.41)"><stop stop-color="#fff"/><stop offset="1" stop-color="#fff" stop-opacity="0"/></radialGradient><linearGradient id="paint0_linear_292_238" x1=".397" y1=".279" x2="554.897" y2="623.279" gradientUnits="userSpaceOnUse"><stop stop-color="#B7E6FF"/><stop offset="1" stop-color="#2EB7FF"/></linearGradient></defs></svg>