<svg width="325" height="261" fill="none" xmlns="http://www.w3.org/2000/svg"><rect y=".629" width="325" height="260" rx="9" fill="url(#paint0_linear_292_239)"/><g clip-path="url(#clip0_292_239)"><path d="M314.698 251.231l4.378-2.522 4.232 2.425 1.419.813v-1.71l-4.911-2.825v-12.173l4.911-2.837v-1.709l-5.687 3.261-3.638-2.085-6.949-4.013v-12.198l6.949-4.013 3.638-2.085 3.323 1.928 2.328 1.333v-1.697l-4.912-2.837V196.09l4.912-2.837v-1.71l-1.431.837-4.22 2.425-4.366-2.51-6.197-3.577v-12.197l5.081-2.934 5.482-3.165 5.505 3.177.146.085v-1.71l-.716-.412-4.196-2.425v-12.16l4.912-2.838v-1.697h-.085l-5.566 3.225-5.53-3.189-5.033-2.909v-12.198l4.536-2.618 6.063-3.48 5.651 3.261v-1.709L319.816 130v-12.197l4.911-2.837v-1.71l-.812.473-4.851 2.789-4.875-2.825-5.651-3.274V98.222l6.197-3.577 4.365-2.522 4.221 2.425 1.431.837v-1.698l-4.912-2.837V78.653l3.99-2.303.922-.534v-1.71l-2.329 1.346-3.383 1.928-3.638-2.085-6.949-4.013V59.084l5.033-2.91 5.554-3.188 5.554 3.213h.097v-1.661l-4.912-2.837V39.504l4.912-2.825v-1.71l-2.268 1.31-3.383 1.952-3.578-2.062-6.949-4.073v-6.063h-1.479v6.063l-6.573 3.795-3.99 2.303-4.135-2.425-6.427-3.673v-6.063h-1.48v6.063l-6.621 3.867-3.917 2.268-3.784-2.183-6.852-3.952v-6.063h-1.479v6.063l-6.791 3.916-3.772 2.182-3.638-2.085-6.888-4.013v-6.063h-1.467v6.063l-7.192 4.146-3.383 1.952-3.638-2.061-6.925-4.037v-6.063h-1.467v6.063l-6.573 3.795-4.002 2.303-4.123-2.425-6.44-3.673v-6.063h-1.479v6.063l-6.646 3.83-3.917 2.268-3.771-2.182-6.791-3.916v-6.063h-1.48v6.063l-6.779 3.952-3.784 2.183-3.638-2.086-6.924-4.05v-6.062h-1.48v6.063l-7.179 4.183-3.383 1.952-3.639-2.062-6.924-4.073v-6.063h-1.443v6.063l-6.597 3.83-4.002 2.305-4.123-2.425-6.44-3.71v-6.063h-1.479v6.063l-6.646 3.867-3.917 2.268-3.772-2.183-6.79-3.952v-6.063h-1.48v6.063l-6.791 3.916-3.748 2.219-3.638-2.086-6.948-4.05v-6.062h-1.48v6.063l-4.911 2.873v1.71l5.65-3.262 6.076 3.528 4.487 2.583V51.7l-4.656 2.691-5.906 3.407-5.651-3.261v1.71l4.911 2.836v12.198l-4.911 2.825v1.71l5.65-3.262L65.9 76.47l3.771 2.182V90.85l-6.063 3.504-4.487 2.595-5.663-3.262v1.71l4.911 2.825v12.197l-4.911 2.837v1.71l.812-.425 4.85-2.788 5.252 2.994 5.275 3.056V130l-6.403 3.637-4.16 2.425-5.627-3.237v1.709l.474.279 4.438 2.558v12.198l-4.85 2.837v1.697l1.357-.764 4.233-2.425 4.669 2.692 5.893 3.371v12.124l-3.88 2.243-6.682 3.855-5.651-3.225v1.71l4.911 2.837v12.197l-4.85 2.825v1.71l5.65-3.262 10.563 6.062v12.197l-4.669 2.692-5.894 3.407-5.711-3.225v1.697l4.911 2.837v12.198l-4.911 2.837v1.709l5.65-3.261 10.563 6.062V247.4l-10.562 6.062-5.651-3.201v1.71l4.911 2.837v6.062h1.48v-6.062l5.99-3.455 4.596-2.644 4.67 2.692 5.893 3.407v6.062h1.48v-6.062l5.893-3.407 4.67-2.692 4.729 2.728 5.833 3.371v6.062h1.479v-6.062l5.53-3.189 5.033-2.91 4.984 2.838 5.591 3.261v6.062h1.479v-6.062l6.197-3.577 4.366-2.522 4.244 2.425 6.319 3.638v6.062h1.479v-6.062l5.991-3.456 4.572-2.643 4.669 2.692 5.893 3.407v6.062h1.48v-6.062l5.906-3.407 4.657-2.692 4.741 2.728 5.821 3.371v6.062h1.48v-6.062l5.53-3.189 5.032-2.91 5.033 2.874 5.566 3.212v6.063h1.468v-6.063l6.197-3.576 4.365-2.522 4.245 2.425 6.33 3.637v6.062h1.468v-6.062l5.99-3.455 4.584-2.643 4.657 2.691 5.906 3.407v6.062h1.37v-6.062l5.894-3.407 4.669-2.691 4.73 2.728 5.833 3.37v6.062h1.479v-6.062l5.518-3.189 5.045-2.909 4.996 2.885 5.566 3.213v6.062h1.48v-6.062l6.233-3.492zm3.638-55.141v12.197l-4.572 2.643-5.99 3.455-5.833-3.37-4.73-2.728V196.09l10.563-6.062 10.562 6.062zM99.298 134.898l4.281 2.425v12.197l-4.73 2.728-5.833 3.371-5.906-3.407-4.657-2.692v-12.149l4.172-2.424 6.39-3.638 6.283 3.589zm-5.542-4.85v-12.245l5.287-3.056 5.275-3.043 5.664 3.262 4.85 2.837V130l-6.063 3.48-4.536 2.618-4.159-2.424-6.318-3.626zm0 26.941l5.906-3.407 4.656-2.692 5.045 2.91 5.518 3.177v12.124l-3.638 2.085-6.961 4.013-6.682-3.855-3.844-2.243v-12.112zm15.656-4.85l-4.354-2.51v-12.258l3.929-2.218 6.634-3.832 6.803 3.832 3.796 2.218v12.198l-4.22 2.424-6.343 3.638-6.245-3.492zm6.948-22.079v-12.257l5.288-3.056 5.275-3.043 5.288 3.043 5.275 3.056V130l-6.549 3.771-4.014 2.327-4.281-2.424-6.282-3.614zm0 26.941l5.834-3.359 4.729-2.74 4.572 2.643 5.991 3.432v12.124l-3.638 2.11-6.913 3.988-6.512-3.673-4.063-2.425v-12.1zm16.336-4.462l-5.033-2.91v-12.258l4.535-2.618 6.064-3.48 6.063 3.54 4.439 2.558v12.198l-4.996 2.885-5.567 3.213-5.505-3.128zm6.269-22.479v-12.257l5.724-3.262 4.851-2.788 5.287 3.043 5.276 3.055V130l-6.403 3.637-4.16 2.425-3.747-2.122-6.828-3.88zm0 26.941l6.331-3.638 4.232-2.424 4.669 2.691 5.894 3.347v12.124l-3.881 2.243-6.682 3.855-6.33-3.673-4.208-2.425-.025-12.1zm15.862-4.741l-4.559-2.631v-12.258l4.026-2.327 6.536-3.771 6.391 3.637 4.172 2.425v12.197l-4.645 2.692-5.918 3.407-6.003-3.371zm6.743-22.2v-12.257l4.851-2.801 5.712-3.298 4.851 2.825 5.651 3.274V130l-6.634 3.831-3.929 2.267-4.426-2.57-6.076-3.468zm0 26.941l5.566-3.201 4.997-2.898 4.378 2.522 6.184 3.637v12.04l-4.329 2.558-6.209 3.637-7.276-4.17-3.311-2.025v-12.1zm15.959-4.68l-4.656-2.692v-12.258l4.171-2.424 6.391-3.638 6.282 3.638 4.281 2.424v12.198l-4.718 2.728-5.845 3.37-5.906-3.346zm6.646-22.261v-12.257l5.287-3.056 5.276-3.043 5.663 3.262 4.851 2.837V130l-6.064 3.48-4.535 2.618-4.16-2.424-6.318-3.614zm0 26.941l5.906-3.407 4.657-2.692 5.044 2.91 5.518 3.189v12.1l-3.638 2.085-6.961 4.013-6.67-3.855-3.856-2.243v-12.1zm15.668-4.85l-4.366-2.51v-12.27l3.942-2.218 6.621-3.832 6.815 3.832 3.76 2.17v12.197l-4.233 2.425-6.342 3.637-6.197-3.431zm6.937-22.078v-12.27l5.287-3.056 5.275-3.043 5.288 3.043 5.287 3.056V130l-6.548 3.771-4.027 2.327-4.268-2.424-6.294-3.601zm0 26.94l5.833-3.359 4.729-2.74 4.584 2.643 5.991 3.456v12.088l-3.638 2.11-6.925 3.988-6.5-3.758-4.074-2.34v-12.088zm16.335-4.462l-5.033-2.91v-12.27l4.548-2.618 6.063-3.48 6.064 3.54 4.45 2.558v12.198l-5.008 2.885-5.566 3.213-5.518-3.116zm6.27-22.478v-12.27l5.723-3.262 4.851-2.788 5.276 3.043 5.287 3.055V130l-6.403 3.637-4.16 2.425-3.747-2.122-6.827-3.867zm0 26.94l6.33-3.637 4.244-2.425 4.657 2.691 5.906 3.335v12.124l-3.893 2.243-6.67 3.855-6.366-3.637-4.208-2.425v-12.124zm15.874-4.741l-4.572-2.631v-12.27l4.038-2.327 6.537-3.771 6.391 3.637 4.171 2.425v12.197l-4.632 2.728-5.906 3.407-6.027-3.395zm6.73-22.199v-12.27l4.851-2.801 5.724-3.298 4.851 2.825 5.663 3.274V130l-6.645 3.831-3.917 2.267-4.439-2.57-6.088-3.455zm0 26.94l5.567-3.201 5.008-2.898 4.329 2.425 6.197 3.638v12.124l-4.365 2.522-6.197 3.637-7.277-4.171-3.262-1.988v-12.088zm15.96-4.68l-4.694-2.764v-12.198l4.172-2.424 6.391-3.638 6.27 3.638 4.293 2.424v12.198l-4.73 2.728-5.833 3.37-5.869-3.334zm6.657-22.26v-12.27l5.276-3.056 5.287-3.043 5.651 3.262 4.912 2.837V130l-6.064 3.48-4.523 2.618-4.172-2.424-6.367-3.601zm0 26.94l5.894-3.407 4.669-2.692 5.033 2.91 5.53 3.189v12.088l-3.639 2.085-6.948 4.013-6.682-3.855-3.881-2.243.024-12.088zm15.656-4.85l-4.353-2.51v-12.282l3.929-2.218 6.633-3.832 6.804 3.832 3.759 2.17v12.197l-4.22 2.425-6.343 3.637-6.209-3.419zm.546-38.798l-4.851-2.837V98.222l5.53-3.189 5.033-2.91 4.996 2.886 5.566 3.213v12.197l-4.85 2.801-5.712 3.298-5.712-3.153zm4.924-22.406l-5.591 3.225-4.972 2.874-4.499-2.595-6.064-3.504V78.653l3.772-2.182 6.791-3.916 6.985 4.037 3.578 2.061V90.96zm-17.148 4.013l5.845 3.359v12.088l-5.287 3.055-5.275 3.044-5.288-3.044-5.324-3.055V98.222l5.906-3.407 4.657-2.692 4.766 2.85zm-5.457-4.013l-6.44 3.71-4.123 2.425-4.923-2.837-5.652-3.261V78.653l3.384-1.952 7.191-4.146 6.427 3.722 4.136 2.425v12.257zm-17.221 3.965l5.918 3.407v12.088l-5.287 3.055-5.275 3.044-5.288-3.044-5.287-3.055V98.222l6.063-3.456 4.572-2.643 4.584 2.801zm-5.384-3.965l-6.064 3.504-4.487 2.595-3.917-2.267-6.657-3.832V78.653l4.002-2.303 6.572-3.795 6.779 3.916 3.784 2.182-.012 12.306zm-17.584 3.601l6.342 3.638v12.221l-5.724 3.31-4.851 2.789-4.85-2.825-5.664-3.274V98.222l6.209-3.577 4.354-2.522 4.184 2.437zm-4.96-3.71l-6.234 3.638-4.341 2.51-4.596-2.656-5.967-3.443V78.653l3.917-2.255 6.646-3.843 6.973 4.025 3.638 2.073-.036 12.197zm-16.869 4.159l5.566 3.213v12.197l-4.85 2.801-5.724 3.298-5.652-3.262-4.85-2.837V98.222l5.53-3.189 5.032-2.91 4.948 2.886zm-5.748-4.159l-5.579 3.225-4.984 2.874-4.487-2.595-6.063-3.504V78.653l3.783-2.182 6.779-3.916 6.986 4.037 3.577 2.061-.012 12.197zm-17.136 4.013l5.833 3.359v12.197l-5.275 3.055-5.287 3.044-5.275-3.044-5.348-3.055V98.222l5.905-3.407 4.657-2.692 4.79 2.74zm-5.469-4.013l-6.427 3.71-4.136 2.425-4.85-2.837-5.652-3.261V78.653l3.384-1.952 7.179-4.146 6.439 3.722 4.124 2.425-.061 12.148zm-17.269 3.965l5.906 3.407v12.197l-5.275 3.055-5.288 3.044-5.275-3.044-5.287-3.055V98.222l6.063-3.456 4.56-2.643 4.596 2.692zm-5.396-3.965l-6.064 3.504-4.499 2.595-3.905-2.267-6.646-3.832V78.653l4.002-2.303 6.561-3.795 6.791 3.916 3.772 2.182-.012 12.197zm-17.645 3.71l6.342 3.638v12.221l-5.712 3.31-4.85 2.789-4.851-2.825-5.664-3.274V98.222l6.209-3.577 4.354-2.522 4.172 2.437zm-4.96-3.71l-6.221 3.638-4.342 2.51-4.596-2.704-5.967-3.444V78.653l3.918-2.255 6.645-3.843 6.961 4.025 3.638 2.073-.036 12.197zm-16.869 4.159l5.603 3.213v12.197l-4.851 2.801-5.724 3.298-5.675-3.262-4.912-2.837V98.222l5.53-3.189 5.033-2.91 4.996 2.886zm-5.736-4.159l-5.639 3.225-4.972 2.874-4.487-2.595-6.064-3.504V78.653l3.772-2.182 6.791-3.916 7.022 4.037 3.577 2.061V90.85zm-17.135 4.013l5.833 3.359v12.197l-5.251 3.055-5.288 3.044-5.275-3.044-5.312-3.055V98.222l5.906-3.407 4.657-2.692 4.73 2.74zm-5.482-4.013l-6.427 3.71-4.136 2.425-4.911-2.837-5.651-3.261V78.653l3.383-1.952 7.18-4.146 6.439 3.722 4.123 2.425V90.85zm-5.639 23.691l5.64 3.262V130l-6.647 3.831-3.904 2.267-4.427-2.57L71.151 130v-12.197l4.85-2.801 5.725-3.298 4.899 2.837zm-.546 38.798l6.185 3.638v12.124l-4.354 2.522-6.209 3.637-7.276-4.171-3.274-1.988v-12.124l5.566-3.201 4.996-2.898 4.366 2.461zm6.185 42.751v12.197l-5.033 2.91-5.53 3.188-6.33-3.637-4.232-2.425V196.09l10.562-6.062 10.563 6.062zm-3.905-3.953l-5.906-3.407v-12.209l4.778-2.764 5.785-3.335 5.736 3.31 4.851 2.789v12.197l-5.857 3.419-4.73 2.728-4.657-2.728zm5.397 3.965l10.562-6.062 10.563 6.062v12.197l-4.366 2.522-6.197 3.576-5.893-3.406-4.67-2.692v-12.197zm16.832-4.183l-5.53-3.189v-12.209l4.536-2.57 6.063-3.48 6.088 3.48 4.475 2.57v12.197l-5.567 3.213-4.996 2.874-5.069-2.886zm5.772 4.183l10.563-6.062 10.563 6.062v12.197l-4.572 2.643-5.991 3.455-5.833-3.37-4.73-2.728v-12.197zm17.512-3.795l-6.209-3.577v-12.209l5.081-2.934 5.482-3.165 5.505 3.177 5.057 2.922v12.197l-6.342 3.637-4.22 2.425-4.354-2.473zm5.093 3.795l10.563-6.062 10.563 6.062v12.197l-4.657 2.692-5.906 3.406-5.554-3.212-5.009-2.886v-12.197zm17.306-3.965l-6.064-3.455v-12.161l4.73-2.728 5.833-3.371 5.784 3.335 4.778 2.764v12.197l-5.845 3.419-4.657 2.68-4.559-2.68zm5.299 3.916l10.563-6.062 10.562 6.062v12.197l-5.032 2.91-5.53 3.189-6.318-3.637-4.245-2.425v-12.234zm17.208-3.916l-5.905-3.407v-12.209l4.778-2.764 5.784-3.335 5.736 3.31 4.851 2.789v12.197l-5.857 3.419-4.73 2.728-4.657-2.728zm5.397 3.965l10.563-6.062 10.562 6.062v12.197l-4.366 2.522-6.196 3.576-5.894-3.406-4.669-2.692v-12.197zm16.832-4.183l-5.53-3.189v-12.209l4.536-2.619 6.063-3.48 6.124 3.529 4.451 2.57v12.197l-5.542 3.213-5.008 2.874-5.094-2.886zm5.773 4.183l10.562-6.062 10.575 6.062v12.197l-4.584 2.643-5.991 3.455-5.821-3.37-4.741-2.728v-12.197zm17.511-3.795l-6.209-3.577v-12.209l5.081-2.934 5.482-3.165 5.518 3.177 5.057 2.922v12.197l-6.343 3.637-4.232 2.425-4.354-2.473zm5.094 3.795l10.574-6.062 10.563 6.062v12.197l-4.669 2.692-5.894 3.406-5.566-3.212-5.008-2.886v-12.197zm17.305-3.965l-6.064-3.455v-12.161l4.73-2.728 5.845-3.371 5.785 3.335 4.778 2.764v12.197l-5.858 3.419-4.644 2.68-4.572-2.68zm5.299 3.916l10.575-6.062 10.563 6.062v12.197l-5.045 2.91-5.518 3.189-6.33-3.637-4.245-2.425v-12.234zm17.221-3.964l-5.955-3.371v-12.197l4.778-2.764 5.785-3.335 5.736 3.31 4.851 2.789v12.197l-5.821 3.419-4.717 2.728-4.657-2.776zm5.396 3.964l10.563-6.062 10.563 6.062v12.197l-4.378 2.522-6.185 3.577-5.906-3.407-4.657-2.692v-12.197zm16.833-4.183l-5.53-3.188v-12.161l4.523-2.619 6.064-3.48 6.063 3.529 4.451 2.57v12.197l-5.567 3.213-4.996 2.874-5.008-2.935zm20.907-38.422l5.99 3.456v12.197l-3.638 2.11-6.912 3.988-6.512-3.758-4.063-2.34v-12.124l5.821-3.359 4.742-2.74 4.572 2.57zm.703-38.737l5.287 3.055V130l-6.572 3.771-4.015 2.327-4.28-2.424-6.282-3.638v-12.233l5.275-3.056 5.287-3.043 5.3 3.007zm1.686-38.168l3.638 2.074V90.85l-6.234 3.638-4.329 2.51-4.608-2.656-5.991-3.492V78.653l3.917-2.255 6.646-3.843 6.961 3.988zm-17.524-37.04l4.596-2.655 5.967-3.43 6.221 3.636 4.341 2.498v12.149l-4.559 2.643-6.003 3.455-5.846-3.37-4.717-2.728V39.504zm5.591 17.132l4.232 2.425v12.222l-6.367 3.637-4.196 2.425-4.365-2.522-6.197-3.637v-12.1l4.365-2.522 6.197-3.577 6.331 3.65zm-28.196-17.131l4.487-2.559 6.064-3.504 6.427 3.71 4.135 2.425v12.125l-4.365 2.522-6.197 3.576-5.918-3.407-4.645-2.691.012-12.197zm5.094 16.84l4.729 2.74v12.198l-6.512 3.746-4.05 2.352-3.893-2.243-6.719-3.855V59.084l4.706-2.74 5.906-3.407 5.833 3.407zm-27.711-16.84l3.917-2.255 6.658-3.832 5.542 3.225 4.984 2.862V51.7l-4.984 2.91-5.53 3.188-6.342-3.637-4.233-2.425-.012-12.233zm5.203 16.84l4.669 2.692v12.246l-6.682 3.855-3.881 2.243-3.638-2.11-6.925-3.988V59.084l4.572-2.643 6.064-3.455 5.821 3.358zm-27.771-16.889l4.923-2.837 5.652-3.25 6.063 3.505 4.499 2.582v12.246l-4.656 2.691-5.906 3.407-5.567-3.213-5.008-2.885V39.455zm4.851 16.695l5.008 2.886v12.246l-7.276 4.17-3.335 1.928-3.638-2.085-6.961-4.013V59.084l5.045-2.91 5.518-3.188 5.639 3.164zM206.78 39.504l4.608-2.656 5.954-3.43 6.234 3.636 4.341 2.498v12.149l-4.572 2.643-6.063 3.455-5.833-3.37-4.73-2.728.061-12.197zm5.542 17.131l4.244 2.425v12.222l-6.366 3.637-4.209 2.425-4.353-2.522-6.209-3.637v-12.1l4.366-2.522 6.196-3.577 6.331 3.65zm-28.147-17.131l4.499-2.559 6.064-3.504 6.439 3.71 4.123 2.425v12.125l-4.353 2.522-6.209 3.576-5.906-3.407-4.657-2.691V39.504zm5.105 16.84l4.73 2.74v12.198l-6.5 3.746-4.063 2.352-3.868-2.243-6.682-3.855V59.084l4.644-2.74 5.894-3.407 5.845 3.407zm-27.71-16.84l3.917-2.255 6.646-3.832 5.59 3.225 4.972 2.862V51.7l-5.032 2.91-5.53 3.188-6.343-3.637-4.22-2.425V39.504zm5.166 16.84l4.657 2.692v12.246l-6.67 3.855-3.893 2.243-3.638-2.11-6.912-3.988V59.084l4.572-2.643 5.99-3.455 5.894 3.358zm-27.771-16.84l4.924-2.837 5.639-3.25 6.063 3.504 4.487 2.583V51.7l-4.656 2.691-5.894 3.407-5.566-3.213-4.997-2.885V39.504zm4.851 16.695l4.996 2.885v12.198l-7.276 4.17-3.31 1.928-3.639-2.085-6.96-4.013V59.084l5.032-2.91 5.53-3.188 5.627 3.213zM116.36 39.504l4.609-2.656 5.954-3.43 6.233 3.636 4.33 2.498v12.149l-4.56 2.643-6.063 3.455-5.834-3.37L116.3 51.7l.06-12.197zm5.591 17.131l4.232 2.425v12.222l-6.354 3.637-4.208 2.425-4.354-2.522-6.209-3.637v-12.1l4.366-2.522 6.197-3.577 6.33 3.65zM93.756 39.504l4.487-2.559 6.063-3.504 6.428 3.71 4.135 2.425v12.125l-4.354 2.522-6.197 3.576-5.906-3.407-4.656-2.691V39.504zm5.093 16.84l4.73 2.74v12.198l-6.464 3.746-4.063 2.352-3.88-2.243-6.682-3.855V59.084l4.62-2.74 5.906-3.407 5.833 3.407zm-27.698-16.84l3.917-2.255 6.645-3.832 5.591 3.225 4.96 2.862V51.7l-5.033 2.91-5.517 3.188-6.343-3.637-4.22-2.425V39.504zM66.797 75.27l-6.912-3.99V59.085l4.487-2.643 6.063-3.455 5.882 3.358 4.657 2.692v12.246l-6.682 3.855-3.857 2.243-3.638-2.11zm-1.673 38.203l-5.275-3.055V98.222l6.063-3.456 4.523-2.643 4.657 2.692 5.906 3.407v12.197l-5.275 3.055-5.288 3.044-5.311-3.044zm-.752 38.726l-4.56-2.631V137.37l4.026-2.327 6.597-3.771 6.391 3.637 4.172 2.425v12.197l-4.657 2.692-5.906 3.443-6.063-3.467zm1.443 40.01l-6.063-3.456V176.52l4.717-2.728 5.966-3.371 5.785 3.335 4.778 2.764v12.197l-5.93 3.419-4.633 2.668-4.62-2.595zm.982 39.634l-6.912-3.988v-12.198l6.912-3.989 3.638-2.109 3.881 2.243 6.682 3.855v12.198l-10.563 6.062-3.638-2.074zm25.467 15.592l-10.563 6.063-10.562-6.063v-12.197l10.562-6.062 10.563 6.062v12.197zm-3.14-15.761l-6.683-3.856v-12.161l6.682-3.855 3.88-2.243 4.112 2.352 6.5 3.746v12.198l-10.563 6.062-3.929-2.243zm25.745 15.761l-10.563 6.063-10.562-6.063v-12.197l10.562-6.062 10.563 6.062v12.197zm-3.638-15.992l-6.209-3.637v-12.149l6.209-3.637 4.353-2.522 4.208 2.425 6.355 3.637v12.198l-10.563 6.062-4.353-2.377zm26.218 15.992l-10.562 6.063-10.563-6.063v-12.197l10.563-6.062 10.562 6.062v12.197zm-2.862-15.567l-6.96-4.013v-12.198l6.96-4.013 3.639-2.085 3.334 1.976 7.277 4.171v12.197l-10.563 6.062-3.687-2.097zm25.467 15.567l-10.562 6.063-10.563-6.063v-12.197l10.563-6.062 10.562 6.062v12.197zm-2.91-15.592l-6.913-3.988v-12.198l6.913-3.989 3.638-2.109 3.893 2.243 6.669 3.855v12.198l-10.562 6.062-3.638-2.074zm25.467 15.592l-10.563 6.063-10.563-6.063v-12.197l10.563-6.062 10.563 6.062v12.197zm-3.141-15.761l-6.682-3.856v-12.161l6.682-3.855 3.88-2.243 4.063 2.352 6.5 3.746v12.198l-10.563 6.062-3.88-2.243zm25.745 15.761l-10.562 6.063-10.563-6.063v-12.197l10.563-6.062 10.562 6.062v12.197zm-3.638-15.992l-6.209-3.637v-12.149l6.209-3.637 4.354-2.522 4.208 2.425 6.367 3.637v12.198l-10.575 6.062-4.354-2.377zm26.231 15.992l-10.575 6.063-10.562-6.063v-12.197l10.562-6.062 10.575 6.062v12.197zm-2.874-15.567l-6.961-4.013v-12.198l6.961-4.013 3.638-2.085 3.335 1.928 7.276 4.17v12.198l-10.575 6.062-3.674-2.049zm25.467 15.567l-10.563 6.063-10.575-6.063v-12.197l10.575-6.062 10.563 6.062v12.197zm-2.911-15.592l-6.924-3.988v-12.198l6.924-3.989 3.638-2.109 3.881 2.243 6.682 3.855v12.198l-10.563 6.062-3.638-2.074zm25.467 15.592l-10.563 6.063-10.574-6.063v-12.197l10.574-6.062 10.563 6.062v12.197zm-3.153-15.761l-6.67-3.856v-12.161l6.67-3.855 3.893-2.243 4.05 2.352 6.512 3.746v12.198l-10.562 6.062-3.893-2.243zm25.758 15.761l-10.563 6.063-10.563-6.063v-12.197l10.563-6.062 10.563 6.062v12.197zm-3.638-15.992l-6.197-3.637v-12.149l6.197-3.637 4.365-2.522 4.196 2.425 6.367 3.637v12.198l-10.563 6.062-4.365-2.377zm5.287 15.992v-12.197l10.563-6.062 10.562 6.062v12.197l-10.562 6.063-10.563-6.063z" fill="url(#paint1_radial_292_239)"/></g><defs><radialGradient id="paint1_radial_292_239" cx="0" cy="0" r="1" gradientUnits="userSpaceOnUse" gradientTransform="scale(135.647 117.418) rotate(90 .086 1.308)"><stop stop-color="#fff"/><stop offset="1" stop-color="#fff" stop-opacity="0"/></radialGradient><linearGradient id="paint0_linear_292_239" x1="0" y1=".629" x2="213.415" y2="327.077" gradientUnits="userSpaceOnUse"><stop stop-color="#B7E6FF"/><stop offset="1" stop-color="#2EB7FF"/></linearGradient><clipPath id="clip0_292_239"><path fill="#fff" transform="translate(53.458 26.033)" d="M0 0h271.27v234.873H0z"/></clipPath></defs></svg>