<svg width="1920" height="812" fill="none" xmlns="http://www.w3.org/2000/svg"><path fill="#FBFBFB" d="M0 0h1920v812H0z"/><g opacity=".4" clip-path="url(#clip0_242_49)"><path d="M1940.36 481.987l7.7-4.434 7.45 4.264 2.49 1.428v-3.006l-8.64-4.967v-21.405l8.64-4.989v-3.006l-10 5.735-6.4-3.667-12.22-7.057v-21.447l12.22-7.057 6.4-3.667 5.84 3.39 4.1 2.345v-2.985l-8.64-4.988v-21.448l8.64-4.988v-3.006l-2.52 1.471-7.42 4.263-7.68-4.413-10.89-6.289v-21.447l8.93-5.16 9.64-5.564 9.68 5.586.26.149v-3.006l-1.26-.725-7.38-4.264V316.25l8.64-4.989v-2.985h-.15l-9.79 5.671-9.72-5.607-8.85-5.116v-21.448l7.97-4.605 10.66-6.118 9.94 5.735v-3.006l-8.64-4.968v-21.447l8.64-4.989v-3.006l-1.43.831-8.53 4.904-8.57-4.967-9.94-5.757v-21.447l10.9-6.289 7.68-4.435 7.42 4.264 2.51 1.471v-2.985l-8.63-4.988v-21.448l7.01-4.05 1.62-.938v-3.006l-4.09 2.366-5.95 3.39-6.4-3.667-12.22-7.057v-21.447l8.85-5.117 9.77-5.607 9.77 5.65h.17v-2.921l-8.64-4.989v-21.447l8.64-4.968v-3.006l-3.99 2.303-5.95 3.432-6.29-3.624-12.22-7.163V86h-2.6v10.66l-11.56 6.673-7.02 4.05-7.27-4.263-11.3-6.46V86h-2.6v10.66l-11.64 6.801-6.89 3.986-6.65-3.837-12.05-6.95V86h-2.6v10.66l-11.95 6.886-6.63 3.837-6.39-3.667-12.12-7.056V86h-2.58v10.66l-12.64 7.29-5.95 3.432-6.4-3.624-12.17-7.1V86h-2.58v10.66l-11.56 6.673-7.04 4.05-7.25-4.263-11.32-6.46V86h-2.6v10.66l-11.69 6.737-6.89 3.986-6.63-3.837-11.94-6.886V86h-2.6v10.66l-11.92 6.95-6.66 3.837-6.39-3.667-12.18-7.12V86h-2.6v10.66l-12.62 7.355-5.95 3.432-6.4-3.624-12.18-7.163V86h-2.54v10.66l-11.6 6.737-7.03 4.05-7.25-4.264-11.33-6.523V86h-2.6v10.66l-11.68 6.801-6.89 3.986-6.63-3.837-11.94-6.95V86h-2.61v10.66l-11.94 6.886-6.59 3.901-6.39-3.667-12.22-7.12V86h-2.6v10.66l-8.64 5.052v3.006l9.94-5.734 10.68 6.203 7.89 4.542v21.404l-8.19 4.733-10.38 5.991-9.94-5.735v3.006l8.64 4.989v21.447l-8.64 4.968v3.006l9.94-5.735 11.94 6.886 6.63 3.837v21.448l-10.66 6.161-7.89 4.562-9.96-5.735v3.006l8.64 4.968v21.447l-8.64 4.989v3.006l1.43-.746 8.53-4.904 9.23 5.266 9.28 5.373v21.447l-11.26 6.396-7.32 4.264-9.89-5.692v3.006l.83.49 7.81 4.498v21.448l-8.53 4.988v2.985l2.38-1.343 7.45-4.264 8.21 4.733 10.36 5.927v21.319l-6.82 3.944-11.75 6.78-9.94-5.671v3.006l8.64 4.989v21.447l-8.53 4.968v3.006l9.93-5.735 18.58 10.659v21.448l-8.21 4.733-10.37 5.99-10.04-5.671v2.985l8.64 4.989v21.447l-8.64 4.989v3.006l9.94-5.735 18.57 10.66v21.447l-18.57 10.66-9.94-5.628v3.006l8.64 4.988v10.66h2.6v-10.66l10.53-6.076 8.08-4.647 8.21 4.733 10.37 5.99v10.66h2.6v-10.66l10.36-5.99 8.21-4.733 8.32 4.797 10.26 5.926v10.66h2.6v-10.66l9.72-5.607 8.85-5.116 8.76 4.988 9.83 5.735v10.66h2.61v-10.66l10.89-6.289 7.68-4.434 7.46 4.264 11.11 6.395v10.66h2.6v-10.66l10.54-6.076 8.04-4.647 8.21 4.733 10.36 5.99v10.66h2.6v-10.66l10.39-5.99 8.19-4.733 8.33 4.797 10.24 5.926v10.66h2.6v-10.66l9.72-5.607 8.85-5.116 8.85 5.052 9.79 5.65v10.66h2.58v-10.66l10.9-6.289 7.68-4.435 7.46 4.264 11.13 6.396v10.66h2.58v-10.66l10.53-6.076 8.06-4.648 8.19 4.733 10.39 5.991v10.66h2.41v-10.66l10.36-5.991 8.21-4.733 8.32 4.797 10.25 5.927v10.66h2.61v-10.66l9.7-5.607 8.87-5.117 8.78 5.074 9.79 5.65v10.66h2.6v-10.66l10.96-6.14zm6.4-96.961v21.448l-8.04 4.647-10.53 6.076-10.26-5.926-8.31-4.797v-21.448l18.57-10.659 18.57 10.659zm-385.15-107.599l7.52 4.264v21.447l-8.31 4.797-10.26 5.927-10.39-5.991-8.18-4.733v-21.362l7.33-4.264 11.24-6.395 11.05 6.31zm-9.75-8.528v-21.532l9.3-5.373 9.27-5.351 9.96 5.735 8.53 4.989v21.447l-10.66 6.119-7.98 4.605-7.31-4.264-11.11-6.375zm0 47.372l10.39-5.991 8.18-4.732 8.87 5.116 9.71 5.586v21.319l-6.4 3.667-12.24 7.057-11.75-6.78-6.76-3.944v-21.298zm27.53-8.528l-7.66-4.413v-21.554l6.91-3.901 11.67-6.737 11.96 6.737 6.67 3.901v21.448l-7.42 4.264-11.15 6.395-10.98-6.14zm12.22-38.822v-21.554l9.3-5.373 9.27-5.351 9.3 5.351 9.28 5.373v21.447l-11.52 6.63-7.06 4.094-7.53-4.264-11.04-6.353zm0 47.372l10.26-5.906 8.31-4.818 8.04 4.647 10.54 6.034v21.319l-6.4 3.71-12.16 7.014-11.45-6.46-7.14-4.264v-21.276zm28.72-7.846l-8.85-5.117v-21.554l7.98-4.605 10.66-6.118 10.66 6.225 7.81 4.498v21.448l-8.79 5.074-9.79 5.649-9.68-5.5zm11.03-39.526v-21.554l10.06-5.735 8.53-4.904 9.3 5.352 9.27 5.372v21.362l-11.25 6.396-7.32 4.264-6.59-3.731-12-6.822zm0 47.372l11.13-6.396 7.44-4.264 8.21 4.733 10.36 5.884v21.319l-6.82 3.944-11.75 6.78-11.13-6.46-7.4-4.264-.04-21.276zm27.89-8.336l-8.02-4.627v-21.554l7.08-4.093 11.49-6.63 11.24 6.396 7.34 4.263v21.448l-8.17 4.733-10.41 5.99-10.55-5.926zm11.85-39.036v-21.554l8.53-4.925 10.05-5.799 8.53 4.968 9.93 5.756v21.447l-11.66 6.737-6.91 3.987-7.78-4.52-10.69-6.097zm0 47.372l9.79-5.629 8.79-5.095 7.7 4.434 10.87 6.396v21.17l-7.61 4.499-10.92 6.396-12.79-7.334-5.83-3.561v-21.276zm28.07-8.23l-8.19-4.733v-21.554l7.33-4.264 11.24-6.395 11.05 6.395 7.53 4.264v21.448l-8.3 4.797-10.28 5.926-10.38-5.884zm11.68-39.142v-21.554l9.3-5.373 9.28-5.351 9.95 5.735 8.53 4.989v21.447l-10.66 6.119-7.97 4.605-7.32-4.264-11.11-6.353zm0 47.372l10.39-5.991 8.19-4.733 8.87 5.116 9.7 5.608v21.276l-6.4 3.667-12.24 7.057-11.73-6.78-6.78-3.944v-21.276zm27.55-8.528l-7.67-4.413v-21.576l6.93-3.901 11.64-6.737 11.98 6.737 6.62 3.816v21.447l-7.45 4.264-11.15 6.396-10.9-6.033zm12.2-38.823v-21.575l9.3-5.373 9.27-5.351 9.3 5.351 9.3 5.373v21.447l-11.52 6.63-7.08 4.094-7.5-4.264-11.07-6.332zm0 47.372l10.26-5.906 8.31-4.818 8.07 4.648 10.53 6.076v21.255l-6.4 3.71-12.17 7.014-11.43-6.609-7.17-4.115v-21.255zm28.72-7.846l-8.84-5.116v-21.576l7.99-4.605 10.66-6.118 10.67 6.225 7.82 4.498v21.448l-8.8 5.074-9.79 5.649-9.71-5.479zm11.03-39.526v-21.575l10.06-5.735 8.53-4.904 9.28 5.352 9.3 5.372v21.362l-11.26 6.396-7.32 4.264-6.59-3.731-12-6.801zm0 47.372l11.13-6.396 7.46-4.264 8.19 4.733 10.39 5.863v21.319l-6.85 3.944-11.73 6.78-11.19-6.396-7.4-4.264v-21.319zm27.91-8.336l-8.04-4.626v-21.576l7.1-4.093 11.5-6.63 11.24 6.396 7.33 4.263v21.448l-8.14 4.797-10.39 5.99-10.6-5.969zm11.84-39.036v-21.575l8.53-4.925 10.06-5.799 8.53 4.968 9.96 5.756v21.447l-11.69 6.737-6.88 3.987-7.81-4.52-10.7-6.076zm0 47.372l9.79-5.629 8.8-5.095 7.62 4.264 10.89 6.396v21.319l-7.67 4.435-10.9 6.396-12.8-7.334-5.73-3.497v-21.255zm28.06-8.229l-8.25-4.861v-21.448l7.33-4.264 11.24-6.395 11.03 6.395 7.54 4.264v21.448l-8.31 4.797-10.26 5.926-10.32-5.862zm11.71-39.143v-21.575l9.27-5.373 9.3-5.351 9.94 5.735 8.63 4.989v21.447l-10.66 6.119-7.95 4.605-7.34-4.264-11.19-6.332zm0 47.372l10.36-5.991 8.21-4.733 8.85 5.117 9.72 5.607v21.255l-6.39 3.667-12.22 7.057-11.75-6.78-6.83-3.944.05-21.255zm27.53-8.528l-7.66-4.413v-21.597l6.91-3.901 11.66-6.737 11.97 6.737 6.61 3.816v21.447l-7.42 4.264-11.16 6.396-10.91-6.012zm.96-68.222l-8.53-4.989v-21.639l9.72-5.607 8.85-5.117 8.79 5.074 9.78 5.65v21.447l-8.53 4.925-10.04 5.799-10.04-5.543zm8.65-39.398l-9.83 5.671-8.74 5.052-7.91-4.562-10.66-6.161v-21.64l6.63-3.837 11.94-6.886 12.28 7.099 6.29 3.624v21.64zm-30.15 7.056l10.28 5.906v21.255l-9.3 5.373-9.27 5.351-9.3-5.351-9.36-5.373v-21.447l10.38-5.991 8.19-4.733 8.38 5.01zm-9.59-7.056l-11.33 6.523-7.25 4.264-8.66-4.989-9.93-5.734v-21.704l5.95-3.432 12.64-7.291 11.3 6.545 7.28 4.264v21.554zm-30.28 6.971l10.4 5.991v21.255l-9.3 5.373-9.27 5.351-9.3-5.351-9.3-5.373v-21.447l10.67-6.076 8.03-4.648 8.07 4.925zm-9.47-6.971l-10.66 6.161-7.89 4.562-6.89-3.987-11.71-6.736v-21.64l7.04-4.05 11.56-6.673 11.92 6.886 6.65 3.837-.02 21.64zm-30.92 6.331l11.15 6.396v21.49l-10.07 5.82-8.52 4.904-8.53-4.967-9.96-5.757v-21.447l10.92-6.289 7.65-4.435 7.36 4.285zm-8.72-6.523l-10.96 6.396-7.64 4.413-8.08-4.669-10.49-6.055v-21.533l6.89-3.965 11.68-6.758 12.26 7.078 6.4 3.645-.06 21.448zm-29.67 7.312l9.79 5.65v21.447l-8.53 4.925-10.06 5.799-9.94-5.735-8.53-4.989v-21.447l9.72-5.607 8.85-5.117 8.7 5.074zm-10.1-7.312l-9.81 5.671-8.77 5.052-7.89-4.562-10.66-6.161v-21.448l6.65-3.837 11.92-6.886 12.29 7.099 6.29 3.624-.02 21.448zm-30.13 7.056l10.25 5.906v21.447l-9.27 5.373-9.3 5.351-9.28-5.351-9.4-5.373v-21.447l10.38-5.991 8.19-4.733 8.43 4.818zm-9.62-7.056l-11.3 6.523-7.28 4.264-8.52-4.988-9.94-5.735v-21.512l5.95-3.432 12.62-7.291 11.32 6.545 7.25 4.264-.1 21.362zm-30.37 6.971l10.39 5.991v21.447l-9.28 5.373-9.3 5.351-9.27-5.351-9.3-5.373v-21.447l10.66-6.076 8.02-4.648 8.08 4.733zm-9.49-6.971l-10.66 6.161-7.91 4.562-6.87-3.986-11.68-6.737v-21.448l7.03-4.05 11.54-6.673 11.94 6.886 6.63 3.837-.02 21.448zm-31.02 6.523l11.15 6.396v21.49l-10.04 5.82-8.53 4.904-8.53-4.967-9.96-5.757v-21.447l10.92-6.289 7.65-4.435 7.34 4.285zm-8.72-6.523l-10.94 6.396-7.64 4.413-8.08-4.755-10.49-6.054v-21.448l6.89-3.965 11.68-6.758 12.24 7.078 6.4 3.645-.06 21.448zm-29.67 7.312l9.85 5.65v21.447l-8.52 4.925-10.07 5.799-9.98-5.735-8.64-4.989v-21.447l9.73-5.607 8.85-5.117 8.78 5.074zm-10.08-7.312l-9.92 5.671-8.74 5.052-7.89-4.562-10.66-6.161v-21.448l6.63-3.837 11.94-6.886 12.35 7.099 6.29 3.624v21.448zm-30.13 7.056l10.25 5.906v21.447l-9.23 5.373-9.3 5.351-9.27-5.351-9.34-5.373v-21.447l10.38-5.991 8.19-4.733 8.32 4.818zm-9.64-7.056l-11.3 6.523-7.28 4.264-8.63-4.988-9.94-5.735v-21.512l5.95-3.432 12.62-7.291 11.33 6.545 7.25 4.264v21.362zm-9.92 41.658l9.92 5.735v21.447l-11.69 6.737-6.86 3.987-7.79-4.52-10.79-6.204v-21.447l8.53-4.925 10.07-5.799 8.61 4.989zm-.96 68.222l10.88 6.396v21.319l-7.66 4.435-10.92 6.396-12.79-7.334-5.76-3.497V316.25l9.79-5.628 8.79-5.096 7.67 4.328zm10.88 75.172v21.448l-8.85 5.116-9.73 5.607-11.13-6.395-7.44-4.264v-21.512l18.57-10.659 18.58 10.659zm-6.87-6.95l-10.38-5.991v-21.468l8.4-4.861 10.17-5.863 10.09 5.82 8.53 4.904v21.447l-10.3 6.012-8.32 4.797-8.19-4.797zm9.49 6.972l18.57-10.66 18.58 10.66v21.447l-7.68 4.434-10.9 6.29-10.36-5.991-8.21-4.733v-21.447zm29.6-7.356l-9.73-5.607v-21.468l7.98-4.52 10.66-6.119 10.71 6.119 7.86 4.52v21.447l-9.78 5.65-8.79 5.052-8.91-5.074zm10.15 7.356l18.57-10.66 18.58 10.66v21.447l-8.04 4.648-10.54 6.076-10.26-5.927-8.31-4.797v-21.447zm30.79-6.673l-10.92-6.29v-21.468l8.94-5.16 9.64-5.564 9.68 5.586 8.89 5.138v21.447l-11.15 6.396-7.42 4.264-7.66-4.349zm8.96 6.673l18.57-10.66 18.57 10.66v21.447l-8.19 4.733-10.38 5.991-9.77-5.65-8.8-5.074v-21.447zm30.43-6.972L1651.12 372v-21.383l8.32-4.797 10.26-5.927 10.17 5.863 8.4 4.861v21.447l-10.28 6.012-8.19 4.712-8.01-4.712zm9.31 6.886l18.58-10.659 18.57 10.659v21.448l-8.85 5.116-9.72 5.607-11.11-6.395-7.47-4.264v-21.512zm30.26-6.886l-10.38-5.991v-21.468l8.4-4.861 10.17-5.863 10.09 5.82 8.53 4.904v21.447l-10.3 6.012-8.32 4.797-8.19-4.797zm9.49 6.972l18.58-10.66 18.57 10.66v21.447l-7.68 4.434-10.89 6.29-10.37-5.991-8.21-4.733v-21.447zm29.6-7.356l-9.72-5.607v-21.468l7.97-4.605 10.66-6.119 10.77 6.204 7.83 4.52v21.447l-9.75 5.65-8.8 5.052-8.96-5.074zm10.15 7.356l18.57-10.66 18.6 10.66v21.447l-8.06 4.648-10.54 6.076-10.23-5.927-8.34-4.797v-21.447zm30.79-6.673l-10.91-6.29v-21.468l8.93-5.16 9.64-5.564 9.7 5.586 8.89 5.138v21.447l-11.15 6.396-7.44 4.264-7.66-4.349zm8.96 6.673l18.59-10.66 18.58 10.66v21.447l-8.21 4.733-10.37 5.991-9.78-5.65-8.81-5.074v-21.447zm30.43-6.972L1810.12 372v-21.383l8.31-4.797 10.28-5.927 10.17 5.863 8.4 4.861v21.447l-10.29 6.012-8.17 4.712-8.04-4.712zm9.32 6.886l18.59-10.659 18.58 10.659v21.448l-8.88 5.116-9.7 5.607-11.13-6.395-7.46-4.264v-21.512zm30.28-6.971l-10.47-5.927v-21.447l8.4-4.861 10.17-5.863 10.09 5.82 8.53 4.904v21.447l-10.24 6.012-8.29 4.797-8.19-4.882zm9.49 6.971l18.57-10.659 18.57 10.659v21.448l-7.69 4.434-10.88 6.289-10.38-5.99-8.19-4.733v-21.448zm29.6-7.355l-9.73-5.607v-21.383l7.96-4.605 10.66-6.119 10.66 6.204 7.83 4.52v21.447l-9.79 5.65-8.79 5.052-8.8-5.159zm36.76-67.561l10.53 6.076v21.447l-6.4 3.71-12.15 7.014-11.45-6.609-7.14-4.115V316.25l10.23-5.906 8.34-4.818 8.04 4.52zm1.23-68.116l9.3 5.373v21.511l-11.56 6.63-7.05 4.094-7.53-4.264-11.05-6.396v-21.511l9.28-5.373 9.3-5.351 9.31 5.287zm2.97-67.113l6.4 3.645v21.512l-10.96 6.396-7.62 4.413-8.1-4.669-10.53-6.14v-21.448l6.88-3.965 11.69-6.758 12.24 7.014zm-30.81-65.131l8.08-4.669 10.49-6.033 10.94 6.395 7.63 4.392v21.362l-8.02 4.648-10.55 6.076-10.28-5.927-8.29-4.797v-21.447zm9.83 30.124l7.44 4.264v21.49l-11.2 6.396-7.38 4.264-7.67-4.435-10.9-6.395v-21.277l7.68-4.435 10.89-6.289 11.14 6.417zm-49.58-30.124l7.89-4.499 10.66-6.16 11.3 6.523 7.27 4.264v21.319l-7.67 4.435-10.9 6.289-10.41-5.991-8.16-4.733.02-21.447zm8.95 29.613l8.32 4.818v21.447l-11.45 6.588-7.12 4.136-6.85-3.944-11.81-6.78v-21.447l8.27-4.818 10.39-5.991 10.25 5.991zm-48.72-29.613l6.89-3.966 11.7-6.736 9.75 5.671 8.76 5.031v21.447l-8.76 5.117-9.73 5.607-11.15-6.396-7.44-4.264-.02-21.511zm9.15 29.613l8.21 4.732v21.533l-11.75 6.78-6.83 3.944-6.4-3.71-12.17-7.014v-21.447l8.04-4.648 10.66-6.076 10.24 5.906zm-48.84-29.698l8.66-4.989 9.94-5.714 10.66 6.162 7.91 4.541v21.532l-8.19 4.733-10.38 5.991-9.79-5.65-8.81-5.074v-21.532zm8.53 29.356l8.81 5.074v21.533l-12.79 7.334-5.87 3.39-6.4-3.667-12.24-7.057v-21.447l8.87-5.117 9.71-5.607 9.91 5.564zm-48.34-29.271l8.1-4.669 10.47-6.033 10.97 6.395 7.63 4.392v21.362l-8.04 4.648-10.66 6.076-10.26-5.927-8.32-4.797.11-21.447zm9.75 30.124l7.46 4.264v21.49l-11.2 6.396-7.39 4.264-7.66-4.435-10.92-6.395v-21.277l7.68-4.435 10.9-6.289 11.13 6.417zm-49.5-30.124l7.91-4.499 10.67-6.16 11.32 6.523 7.25 4.264v21.319l-7.66 4.435-10.91 6.289-10.39-5.991-8.19-4.733v-21.447zm8.98 29.613l8.32 4.818v21.447l-11.43 6.588-7.15 4.136-6.8-3.944-11.75-6.78v-21.447l8.17-4.818 10.36-5.991 10.28 5.991zm-48.73-29.613l6.89-3.966 11.69-6.736 9.83 5.671 8.74 5.031v21.447l-8.85 5.117-9.72 5.607-11.15-6.396-7.43-4.264v-21.511zm9.09 29.613l8.19 4.732v21.533l-11.73 6.78-6.85 3.944-6.39-3.71-12.16-7.014v-21.447l8.04-4.648 10.54-6.076 10.36 5.906zm-48.83-29.613l8.65-4.989 9.92-5.713 10.66 6.161 7.89 4.541v21.447l-8.19 4.733-10.36 5.991-9.79-5.65-8.78-5.074v-21.447zm8.53 29.357l8.78 5.074v21.447l-12.79 7.334-5.82 3.39-6.4-3.667-12.24-7.057v-21.447l8.85-5.117 9.72-5.607 9.9 5.65zm-48.28-29.357l8.1-4.669 10.47-6.033 10.96 6.395 7.62 4.392v21.362l-8.02 4.648-10.66 6.076-10.26-5.927-8.32-4.797.11-21.447zm9.83 30.124l7.44 4.264v21.49l-11.17 6.396-7.4 4.264-7.66-4.435-10.92-6.395v-21.277l7.68-4.435 10.9-6.289 11.13 6.417zm-49.58-30.124l7.89-4.499 10.66-6.16 11.3 6.523 7.28 4.264v21.319l-7.66 4.435-10.9 6.289-10.38-5.991-8.19-4.733v-21.447zm8.96 29.613l8.31 4.818v21.447l-11.36 6.588-7.15 4.136-6.82-3.944-11.75-6.78v-21.447l8.12-4.818 10.39-5.991 10.26 5.991zm-48.71-29.613l6.89-3.966 11.69-6.736 9.83 5.671 8.72 5.031v21.447l-8.85 5.117-9.7 5.607-11.16-6.396-7.42-4.264v-21.511zm-7.65 62.892l-12.16-7.014v-21.447l7.89-4.648 10.66-6.076 10.35 5.906 8.18 4.732v21.533l-11.75 6.78-6.78 3.944-6.39-3.71zm-2.95 67.178l-9.27-5.373v-21.447l10.66-6.076 7.95-4.648 8.19 4.733 10.39 5.991v21.447l-9.28 5.373-9.3 5.351-9.34-5.351zm-1.32 68.094l-8.02-4.626v-21.448l7.08-4.093 11.6-6.63 11.24 6.396 7.34 4.263v21.448l-8.19 4.733-10.39 6.054-10.66-6.097zm2.54 70.354l-10.66-6.076v-21.511l8.29-4.797 10.49-5.927 10.18 5.863 8.4 4.861v21.447l-10.43 6.012-8.15 4.69-8.12-4.562zm1.73 69.693l-12.16-7.014v-21.447l12.16-7.014 6.39-3.71 6.83 3.944 11.75 6.78v21.447l-18.58 10.66-6.39-3.646zm44.78 27.417l-18.58 10.66-18.57-10.66v-21.447l18.57-10.66 18.58 10.66v21.447zm-5.53-27.715l-11.75-6.78v-21.383l11.75-6.78 6.83-3.944 7.23 4.136 11.43 6.588v21.447l-18.58 10.66-6.91-3.944zm45.28 27.715l-18.58 10.66-18.57-10.66v-21.447l18.57-10.66 18.58 10.66v21.447zm-6.4-28.12l-10.92-6.396v-21.362l10.92-6.396 7.65-4.434 7.4 4.264 11.18 6.395v21.448l-18.58 10.659-7.65-4.178zm46.1 28.12l-18.57 10.66-18.58-10.66v-21.447l18.58-10.66 18.57 10.66v21.447zm-5.03-27.374l-12.24-7.057v-21.447l12.24-7.057 6.4-3.667 5.86 3.475 12.79 7.334v21.448l-18.57 10.659-6.48-3.688zm44.78 27.374l-18.57 10.66-18.58-10.66v-21.447l18.58-10.66 18.57 10.66v21.447zm-5.12-27.417l-12.15-7.014v-21.447l12.15-7.014 6.4-3.71 6.84 3.944 11.73 6.78v21.447l-18.57 10.66-6.4-3.646zm44.78 27.417l-18.57 10.66-18.57-10.66v-21.447l18.57-10.66 18.57 10.66v21.447zm-5.52-27.715l-11.75-6.78v-21.383l11.75-6.78 6.82-3.944 7.15 4.136 11.43 6.588v21.447l-18.58 10.66-6.82-3.944zm45.27 27.715l-18.57 10.66-18.58-10.66v-21.447l18.58-10.66 18.57 10.66v21.447zm-6.4-28.12l-10.91-6.396v-21.362l10.91-6.396 7.66-4.434 7.4 4.264 11.19 6.395v21.448l-18.59 10.659-7.66-4.178zm46.13 28.12l-18.6 10.66-18.57-10.66v-21.447l18.57-10.66 18.6 10.66v21.447zm-5.06-27.374l-12.24-7.057v-21.447l12.24-7.057 6.4-3.667 5.86 3.39 12.8 7.334v21.447l-18.6 10.66-6.46-3.603zm44.78 27.374l-18.57 10.66-18.59-10.66v-21.447l18.59-10.66 18.57 10.66v21.447zm-5.11-27.417l-12.18-7.014v-21.447l12.18-7.014 6.39-3.71 6.83 3.944 11.75 6.78v21.447l-18.58 10.66-6.39-3.646zm44.78 27.417l-18.58 10.66-18.59-10.66v-21.447l18.59-10.66 18.58 10.66v21.447zm-5.55-27.715l-11.73-6.78v-21.383l11.73-6.78 6.85-3.944 7.12 4.136 11.45 6.588v21.447l-18.57 10.66-6.85-3.944zm45.3 27.715l-18.58 10.66-18.57-10.66v-21.447l18.57-10.66 18.58 10.66v21.447zm-6.4-28.12l-10.9-6.396v-21.362l10.9-6.396 7.67-4.434 7.38 4.264 11.2 6.395v21.448l-18.58 10.659-7.67-4.178zm9.3 28.12v-21.447l18.57-10.66 18.57 10.66v21.447l-18.57 10.66-18.57-10.66z" fill="url(#paint0_radial_242_49)"/></g><defs><radialGradient id="paint0_radial_242_49" cx="0" cy="0" r="1" gradientUnits="userSpaceOnUse" gradientTransform="matrix(0 206.468 -238.521 0 1719.52 292.468)"><stop stop-color="#FF8720"/><stop offset="1" stop-color="#fff" stop-opacity="0"/></radialGradient><clipPath id="clip0_242_49"><path fill="#fff" transform="translate(1481 86)" d="M0 0h477v413H0z"/></clipPath></defs></svg>