<svg width="46" height="44" fill="none" xmlns="http://www.w3.org/2000/svg"><path d="M31.333 38.5v-3.667A7.334 7.334 0 0024 27.5H13a7.333 7.333 0 00-7.333 7.333V38.5M18.5 20.167a7.333 7.333 0 100-14.667 7.333 7.333 0 000 14.667zm12.833 0L35 23.833l7.333-7.333" stroke="#CBC7FF" stroke-width="2" stroke-linecap="round" stroke-linejoin="round"/><path d="M29.333 38.5v-3.667A7.334 7.334 0 0022 27.5H11a7.333 7.333 0 00-7.333 7.333V38.5M16.5 20.167a7.333 7.333 0 100-14.667 7.333 7.333 0 000 14.667zm12.833 0L33 23.833l7.333-7.333" stroke="#2B1FC7" stroke-width="2" stroke-linecap="round" stroke-linejoin="round"/></svg>