<svg width="46" height="44" fill="none" xmlns="http://www.w3.org/2000/svg"><path d="M31.463 29.463l7.78 7.78M15.177 4.104l1.424 5.311m-5.186 5.186l-5.313-1.424m21.472-5.753l-3.89 3.89m-10.371 10.37l-3.887 3.89M18.5 16.5l9.167 22 3.252-9.581 9.581-3.252-22-9.167z" stroke="#CBC7FF" stroke-width="2" stroke-linecap="round" stroke-linejoin="round"/><path d="M29.463 29.463l7.78 7.78M13.177 4.104l1.424 5.311m-5.186 5.186l-5.313-1.424m21.472-5.753l-3.89 3.89m-10.371 10.37l-3.887 3.89M16.5 16.5l9.167 22 3.252-9.581 9.581-3.252-22-9.167z" stroke="#2B1FC7" stroke-width="2" stroke-linecap="round" stroke-linejoin="round"/></svg>