<svg width="46" height="44" fill="none" xmlns="http://www.w3.org/2000/svg"><path d="M10.25 30.25c-2.75 2.31-3.667 9.167-3.667 9.167s6.857-.917 9.167-3.667c1.302-1.54 1.283-3.905-.165-5.335a3.997 3.997 0 00-5.335-.165v0zM24 27.5L18.5 22a40.335 40.335 0 013.667-7.242A23.614 23.614 0 0142.333 3.667c0 4.986-1.43 13.75-11 20.166A40.971 40.971 0 0124 27.5v0z" stroke="#CBC7FF" stroke-width="2" stroke-linecap="round" stroke-linejoin="round"/><path d="M18.5 22H9.333s1.009-5.555 3.667-7.333c2.97-1.98 9.167 0 9.167 0M24 27.5v9.167s5.555-1.009 7.333-3.667c1.98-2.97 0-9.167 0-9.167" stroke="#CBC7FF" stroke-width="2" stroke-linecap="round" stroke-linejoin="round"/><path d="M8.25 30.25c-2.75 2.31-3.667 9.167-3.667 9.167s6.857-.917 9.167-3.667c1.302-1.54 1.283-3.905-.165-5.335a3.997 3.997 0 00-5.335-.165v0zM22 27.5L16.5 22a40.335 40.335 0 013.667-7.242A23.614 23.614 0 0140.333 3.667c0 4.986-1.43 13.75-11 20.166A40.971 40.971 0 0122 27.5v0z" stroke="#2B1FC7" stroke-width="2" stroke-linecap="round" stroke-linejoin="round"/><path d="M16.5 22H7.333S8.342 16.445 11 14.667c2.97-1.98 9.167 0 9.167 0M22 27.5v9.167s5.555-1.009 7.333-3.667c1.98-2.97 0-9.167 0-9.167" stroke="#2B1FC7" stroke-width="2" stroke-linecap="round" stroke-linejoin="round"/></svg>