<svg width="106" height="26" fill="none" xmlns="http://www.w3.org/2000/svg"><path d="M9.686 4.834a1.467 1.467 0 012.63 0l2.04 4.129 4.557.662a1.467 1.467 0 01.812 2.502l-3.298 3.214.779 4.54a1.467 1.467 0 01-2.127 1.547L11 19.283l-4.077 2.145a1.466 1.466 0 01-2.127-1.547l.777-4.54-3.298-3.214a1.466 1.466 0 01.814-2.502l4.558-.66 2.037-4.13h.002z" fill="#fff"/><g clip-path="url(#clip0_57_27)"><path d="M69.444 7.59c-3.424 0-6.216 2.539-6.216 6.037 0 3.499 2.792 6.043 6.216 6.043 3.424 0 6.216-2.566 6.216-6.043 0-3.477-2.79-6.038-6.216-6.038zm0 9.699c-1.875 0-3.495-1.51-3.495-3.662s1.62-3.66 3.495-3.66 3.495 1.488 3.495 3.66-1.618 3.662-3.495 3.662zm-13.551-9.7c-3.426 0-6.217 2.54-6.217 6.038 0 3.499 2.791 6.043 6.217 6.043 3.425 0 6.213-2.566 6.213-6.043 0-3.477-2.797-6.038-6.22-6.038m0 9.7c-1.876 0-3.495-1.51-3.495-3.662s1.619-3.66 3.495-3.66c1.877 0 3.494 1.488 3.494 3.66s-1.618 3.662-3.494 3.662zM39.757 9.442v2.562h6.286c-.188 1.44-.68 2.493-1.43 3.228-.915.895-2.346 1.875-4.856 1.875-3.87 0-6.897-3.042-6.897-6.817 0-3.775 3.027-6.822 6.897-6.822a6.785 6.785 0 014.74 1.833l1.853-1.808C44.776 2.028 42.69.91 39.757.91 34.457.91 30 5.118 30 10.286c0 5.167 4.456 9.376 9.757 9.376 2.862 0 5.019-.922 6.706-2.633 1.734-1.691 2.276-4.07 2.276-5.995a8.255 8.255 0 00-.145-1.592h-8.837zm65.959 1.989c-.515-1.35-2.084-3.843-5.299-3.843-3.214 0-5.843 2.45-5.843 6.04 0 3.38 2.63 6.042 6.146 6.042a6.29 6.29 0 002.926-.705 6.11 6.11 0 002.234-1.973l-2.111-1.373c-.703 1.007-1.664 1.67-3.049 1.67s-2.364-.615-3.002-1.831l8.28-3.339-.282-.688zm-8.442 2.013a3.35 3.35 0 013.236-3.523c1.079 0 1.995.529 2.299 1.284l-5.535 2.24zm-6.73 5.858h2.722V1.547h-2.723v17.755zM86.085 8.936h-.093c-.612-.706-1.784-1.347-3.26-1.347-3.097 0-5.933 2.655-5.933 6.061s2.836 6.02 5.936 6.02c1.476 0 2.648-.643 3.26-1.375h.093v.87c0 2.306-1.26 3.547-3.31 3.547-1.665 0-2.698-1.167-3.118-2.152l-2.371.962c.682 1.602 2.486 3.569 5.49 3.569 3.19 0 5.885-1.832 5.885-6.291V7.955h-2.58v.981zm-3.119 8.353c-1.876 0-3.448-1.538-3.448-3.639 0-2.127 1.576-3.689 3.448-3.689 1.872 0 3.31 1.556 3.31 3.69 0 2.104-1.454 3.638-3.31 3.638z" fill="#fff"/></g><defs><clipPath id="clip0_57_27"><path fill="#fff" transform="translate(30 .91)" d="M0 0h76v24.182H0z"/></clipPath></defs></svg>