<svg width="98" height="37" fill="none" xmlns="http://www.w3.org/2000/svg"><path d="M97.607 20.108l-9.283-9.797-7.65-8.164A6.733 6.733 0 0075.775 0h-17.96c-2.994 0-4.96.786-5.776 2.359-1.119 2.116.423 4.535.605 4.807l.06.121 11.037 11.037c.393.393.454.665.423.756-.03.09-.363.333-1.088.333H44.328c-1.088 0-2.69-.908-4.324-2.42l-4.777-4.444h6.41c.303 0 2.843-.03 4.627-1.754 1.149-1.119 1.723-2.63 1.723-4.506 0-4.807-4.052-6.198-6.199-6.259H26.125c-1.39 0-2.69.545-3.658 1.512a5.197 5.197 0 00-1.512 3.659l.06 12.155a2.349 2.349 0 01-2.328 2.329h-6.925c-2.66 0-5.2-1.12-6.984-3.084-.121-.121-.212-.242-.333-.363a6.847 6.847 0 01-1.784-4.596V1.844c0-.725-.605-1.33-1.33-1.33C.604.514 0 1.119 0 1.844v9.797c0 2.359.877 4.627 2.45 6.38.12.122.241.242.332.394a12.157 12.157 0 008.95 3.93h6.925a5.026 5.026 0 005.02-5.019L23.615 5.14c0-.665.242-1.3.725-1.784a2.422 2.422 0 011.754-.725h15.603c.12 0 1.058.09 1.935.544 1.119.605 1.663 1.603 1.663 3.024 0 1.149-.302 1.965-.907 2.57-1.028 1.028-2.722 1.028-2.722 1.028H28.423l9.767 9.101c1.542 1.422 3.84 3.145 6.138 3.145h18.748c1.723 0 3.054-.726 3.568-1.965.483-1.18.12-2.54-.998-3.659L54.79 5.564c-.242-.424-.696-1.421-.393-1.966.12-.211.695-.937 3.416-.937h17.961c1.12 0 2.178.453 2.933 1.3l5.564 5.927h-5.955c-.03 0-.061 0-.061.03h-.06c-.03 0-.061.03-.061.03-.03 0-.03 0-.06.03-.03 0-.03.03-.06.03-.031 0-.031.03-.061.03s-.03.031-.06.031c-.031 0-.031.03-.061.03s-.03.03-.06.03c-.031 0-.031.03-.061.03l-.03.031-.061.06-.03.03-.06.061c0 .03-.031.03-.031.06 0 .031-.03.031-.03.061-.03.03-.03.06-.06.09 0 0 0 .031-.03.031l-5.444 9.676c-.363.635-.12 1.452.514 1.814.212.121.424.182.666.182.453 0 .937-.242 1.179-.696l5.02-9.01h7.468l8.89 9.373c.272.272.605.424.967.424.333 0 .666-.121.908-.363.544-.484.574-1.33.06-1.875zM4.596 30.752c0 1.45-1.028 2.63-2.48 2.63H.122v-5.291h1.996c1.451.03 2.48 1.21 2.48 2.66zm-.393 0c0-1.24-.846-2.268-2.086-2.268H.544v4.535h1.573c1.24 0 2.086-.997 2.086-2.267zm13.879-2.632v5.292h-.423v-5.291h.424zm18.354 3.025c0 1.27-.967 2.328-2.54 2.328-1.633 0-2.782-1.21-2.782-2.722s1.15-2.721 2.752-2.721c.968 0 1.845.514 2.268 1.27l-.363.212c-.333-.666-1.089-1.089-1.905-1.089-1.39 0-2.358 1.028-2.358 2.328 0 1.3.967 2.329 2.388 2.329 1.27 0 2.056-.786 2.147-1.784h-2.237v-.363h2.66v.212h-.03zm13.426-3.025v5.292h-.393v-5.291h.393zm16.51.363h-1.663v4.93h-.393v-4.9h-1.663v-.362h3.719v.332zm15.27 3.569h-2.66l-.515 1.33h-.423l2.056-5.291h.423l2.056 5.291h-.423l-.514-1.33zm-.121-.363l-1.18-3.084-1.178 3.084h2.358zM97.94 33.02v.362h-2.873v-5.291h.393v4.898h2.48v.03zm.06-7.893H.12v.424H98v-.424zm0 10.916H.12v.424H98v-.424z" fill="#fff" fill-opacity=".6"/></svg>