<svg width="143" height="44" fill="none" xmlns="http://www.w3.org/2000/svg"><path d="M53.672 3.16V19H49.88l-5.544-9.312-1.368-2.592h-.024l.096 2.736V19h-2.976V3.16h3.768l5.544 9.288 1.368 2.616h.048l-.096-2.736V3.16h2.976zm17.358 0v9.6c0 2.16-.576 3.784-1.728 4.872-1.152 1.072-2.832 1.608-5.04 1.608s-3.888-.536-5.04-1.608c-1.152-1.088-1.728-2.712-1.728-4.872v-9.6h3.312v9.456c0 1.328.28 2.312.84 2.952.576.64 1.448.96 2.616.96 1.168 0 2.032-.32 2.592-.96.56-.64.84-1.624.84-2.952V3.16h3.336zm21.047 0V19h-3v-8.256l.168-4.632h-.048L84.805 19h-2.712L77.725 6.112h-.048l.168 4.632V19h-3V3.16h4.8l2.856 8.64 1.008 3.576h.048l1.032-3.552 2.832-8.664h4.656zM96.197 19V3.16h6.936c1.92 0 3.336.376 4.248 1.128.912.752 1.368 1.816 1.368 3.192 0 .848-.256 1.6-.768 2.256-.512.656-1.264 1.072-2.256 1.248v.024c1.104.16 1.952.576 2.544 1.248.592.672.888 1.472.888 2.4 0 1.36-.496 2.424-1.488 3.192-.976.768-2.408 1.152-4.296 1.152h-7.176zm3.216-2.496h3.672c.896 0 1.56-.184 1.992-.552.432-.368.648-.88.648-1.536 0-.672-.216-1.184-.648-1.536-.432-.352-1.096-.528-1.992-.528h-3.672v4.152zm0-6.696h3.288c1.744 0 2.616-.68 2.616-2.04 0-1.36-.872-2.04-2.616-2.04h-3.288v4.08zM112.322 19V3.16h11.88v2.664h-8.568V9.76h6.744v2.544h-6.744v4.032h8.904V19h-12.216zm22.171-15.84c1.792 0 3.2.432 4.224 1.296 1.024.864 1.536 2.024 1.536 3.48 0 1.552-.512 2.744-1.536 3.576-1.024.816-2.424 1.224-4.2 1.224l-.336.192h-3.408V19h-3.264V3.16h6.984zm-.384 7.248c.928 0 1.616-.184 2.064-.552.464-.384.696-.968.696-1.752s-.232-1.36-.696-1.728c-.448-.384-1.136-.576-2.064-.576h-3.336v4.608h3.336zm1.944.696L141.189 19h-3.72l-4.248-6.936 2.832-.96zM46.904 24.92c1.568 0 2.92.328 4.056.984 1.136.656 2.008 1.592 2.616 2.808.624 1.216.936 2.672.936 4.368 0 1.696-.312 3.152-.936 4.368-.608 1.216-1.48 2.152-2.616 2.808-1.136.656-2.488.984-4.056.984s-2.928-.328-4.08-.984c-1.136-.656-2.016-1.592-2.64-2.808-.608-1.216-.912-2.672-.912-4.368 0-1.696.304-3.152.912-4.368.624-1.216 1.504-2.152 2.64-2.808 1.152-.656 2.512-.984 4.08-.984zm0 2.712c-.896 0-1.656.208-2.28.624-.624.416-1.104 1.032-1.44 1.848-.32.8-.48 1.792-.48 2.976 0 1.168.16 2.16.48 2.976.336.816.816 1.432 1.44 1.848.624.416 1.384.624 2.28.624.88 0 1.632-.208 2.256-.624.624-.416 1.096-1.032 1.416-1.848.336-.816.504-1.808.504-2.976 0-1.184-.168-2.176-.504-2.976-.32-.816-.792-1.432-1.416-1.848-.624-.416-1.376-.624-2.256-.624zm24.557-2.472V41H67.67l-5.544-9.312-1.368-2.592h-.024l.096 2.736V41h-2.976V25.16h3.768l5.544 9.288 1.368 2.616h.048l-.096-2.736V25.16h2.976zM75.595 41V25.16h11.88v2.664h-8.568v3.936h6.744v2.544h-6.744v4.032h8.904V41H75.595zm25.836-2.664h8.352V41H98.119V25.16h3.312v13.176zM126.285 41h-3.432l-1.32-3.864h-6.072L114.141 41h-3.384l5.784-15.84h3.96L126.285 41zm-10.08-6.312h4.584l-2.304-6.912-2.28 6.912zM128.634 41V25.16h6.936c1.92 0 3.336.376 4.248 1.128.912.752 1.368 1.816 1.368 3.192 0 .848-.256 1.6-.768 2.256-.512.656-1.264 1.072-2.256 1.248v.024c1.104.16 1.952.576 2.544 1.248.592.672.888 1.472.888 2.4 0 1.36-.496 2.424-1.488 3.192-.976.768-2.408 1.152-4.296 1.152h-7.176zm3.216-2.496h3.672c.896 0 1.56-.184 1.992-.552.432-.368.648-.88.648-1.536 0-.672-.216-1.184-.648-1.536-.432-.352-1.096-.528-1.992-.528h-3.672v4.152zm0-6.696h3.288c1.744 0 2.616-.68 2.616-2.04 0-1.36-.872-2.04-2.616-2.04h-3.288v4.08zM16.286 3l-1.5 1.836 4.857 3.813-.286 1.977-.571 3.39-2.5.988-2.572.988-2-1.624-2.285-1.765.928-6.002L8 6.248l-.929 6.002-5.714 2.26.857 2.118 5.715-2.19 2.857 2.26 1.428 1.13-.571 3.743-.214 1.553-2.358.918-2.785 1.13L1.5 21.359 0 23.195l5.929 4.59.642-.212 5.715-2.26 2.428 1.977 1.857 1.412-.428 2.895-.357 2.472L10 36.258l.857 2.189 5.786-2.19L21.429 40l1.5-1.765-4.858-3.813.5-2.966.358-2.4 2.428-.99L24 27.079l4.857 3.813 1.429-1.836-4.786-3.813.357-2.683.429-2.683L32 17.687l-.857-2.189-5.714 2.189-2-1.553-2.286-1.766.286-2.047.5-3.32 5.785-2.259-.857-2.189-5.786 2.26L16.286 3zm5.5 14.828l2.143 1.695-.286 2.189-.5 3.177-2.643 1.06-2.429.917-2.428-1.906-1.857-1.483.428-3.036.357-2.33 2.572-.989 2.5-.988 2.143 1.694z" fill="#fff"/></svg>