<svg width="148" height="27" fill="none" xmlns="http://www.w3.org/2000/svg"><path d="M13.273 5.162c-4.55 0-8.238 3.814-8.238 8.52v10.119c.354.31.725.6 1.11.87V13.66c.012-4.062 3.197-7.35 7.128-7.35 3.93 0 7.111 3.285 7.126 7.343V24.67a12.8 12.8 0 001.11-.87V13.683c.002-4.706-3.687-8.521-8.236-8.521z" fill="#716E98"/><path d="M13.272 7.46c-3.323 0-6.016 2.785-6.017 6.222v11.681c.36.2.73.382 1.111.546V13.674c.005-2.799 2.2-5.065 4.906-5.065 2.707 0 4.906 2.273 4.906 5.075V25.91c.38-.164.75-.345 1.11-.546v-11.68c0-3.438-2.694-6.224-6.016-6.224z" fill="#716E98"/><path d="M24.842 13.683v5.612a13.528 13.528 0 001.19-5.573C26.032 6.433 20.32.524 13.273.524S.515 6.434.515 13.722A13.53 13.53 0 001.7 19.289v-5.642h.003C1.72 7.054 6.893 1.715 13.272 1.715c6.378 0 11.555 5.343 11.57 11.94v.027z" fill="#716E98"/><path d="M13.273 2.864c-5.765 0-10.44 4.824-10.459 10.783v7.638c.337.498.708.972 1.11 1.419V13.65c.017-5.325 4.195-9.637 9.348-9.637 5.152 0 9.333 4.314 9.35 9.641v9.05a13.49 13.49 0 001.11-1.421v-7.6c0-5.975-4.683-10.819-10.459-10.819z" fill="#716E98"/><path d="M13.273 17.688c-1.933 0-3.532-1.479-3.796-3.403v3.078c.752 1.365 2.17 1.855 3.796 1.855s3.044-.491 3.795-1.854v-3.079c-.264 1.924-1.862 3.403-3.795 3.403zm-3.796 1.625v1.948c.642 2.191 6.726 2.22 7.591 0v-1.948c-.312 2.427-7.37 2.383-7.59 0z" fill="#716E98"/><path d="M9.477 23.196v1.948c.642 2.191 6.726 2.22 7.591 0v-1.948c-.312 2.427-7.37 2.382-7.59 0zm25.744-7.53V14.35h3.864v.294c0 1.25-.276 2.252-.829 3.007-.328.448-.785.85-1.37 1.203-.585.355-1.309.532-2.17.532-1.331 0-2.45-.452-3.36-1.357-.955-.951-1.432-2.112-1.432-3.484 0-1.352.445-2.49 1.334-3.412.918-.951 2.099-1.427 3.542-1.427 1.068 0 2.018.298 2.852.895a4.31 4.31 0 011.026.993l-1.012.966c-.712-1.026-1.667-1.539-2.866-1.539-.994 0-1.816.335-2.467 1.006-.65.67-.976 1.514-.976 2.532 0 .998.323 1.832.97 2.504.646.671 1.456 1.006 2.43 1.006.74 0 1.363-.227 1.868-.679.506-.452.815-1.028.928-1.728l-2.332.003zm11.537-5.791v1.342H43.02v2.225h3.625v1.343H43.02v3.077h3.738v1.343h-5.172v-9.33h5.172zm7.306 1.342h-2.15v7.988H50.48v-7.987h-2.15V9.874h5.734v1.342zm1.967-1.342h1.672c1.105 0 1.93.181 2.473.545.74.494 1.11 1.226 1.11 2.197 0 .661-.19 1.226-.569 1.692-.379.466-.883.77-1.511.91l2.922 3.986H60.4l-2.684-3.818h-.252v3.818h-1.433v-9.33zm1.433 1.315v2.965h.448a2.841 2.841 0 00.865-.112c.193-.048.378-.126.548-.23.154-.098.29-.25.407-.455.117-.205.176-.448.176-.728 0-.96-.651-1.44-1.954-1.44h-.49zm11.944-1.315v1.342H65.67v2.225h3.625v1.343H65.67v3.077h3.738v1.343h-5.173v-9.33h5.172zm7.757 1.398l-1.152.672a1.63 1.63 0 00-.422-.588 1.572 1.572 0 00-1.011-.335c-.422 0-.748.107-.977.321a1.048 1.048 0 00-.344.797c0 .486.337.863 1.011 1.134l.942.376c1.47.599 2.205 1.513 2.205 2.743 0 .886-.284 1.607-.85 2.162-.567.554-1.29.832-2.171.832-.91 0-1.646-.312-2.207-.937a3.086 3.086 0 01-.785-1.819l1.419-.307c-.006.429.132.848.393 1.189.3.373.707.56 1.222.56.44 0 .807-.145 1.102-.434.296-.29.443-.667.443-1.133 0-.43-.124-.76-.372-.994a3.217 3.217 0 00-.977-.601l-.898-.378c-1.274-.531-1.91-1.32-1.91-2.364 0-.67.245-1.249.737-1.735.492-.485 1.16-.728 2.002-.727.759 0 1.387.21 1.883.63.294.265.537.583.717.936zm2.753-1.398h1.433v5.623c0 .728.099 1.264.295 1.609a2.08 2.08 0 001.743.965 2.092 2.092 0 001.742-.965c.197-.345.295-.881.295-1.609V9.875h1.433v6.002c0 .98-.29 1.786-.87 2.42-.675.728-1.542 1.092-2.6 1.092-1.059 0-1.925-.364-2.6-1.092-.58-.634-.871-1.44-.87-2.42V9.875zm9.893 0h1.435v7.987H94v1.343h-4.19v-9.33zm10.989 1.342h-2.15v7.988h-1.433v-7.987h-2.15V9.874h5.733v1.342zm7.85 0h-2.15v7.988h-1.434v-7.987h-2.149V9.874h5.733v1.342zm2.627-.126c.927-.923 2.089-1.384 3.484-1.385 1.395 0 2.557.462 3.484 1.385.927.924 1.391 2.076 1.391 3.456s-.464 2.531-1.391 3.455c-.927.924-2.089 1.385-3.484 1.385s-2.557-.462-3.484-1.385-1.39-2.074-1.39-3.454c0-1.38.463-2.532 1.39-3.457zm1.012 5.995c.646.658 1.47.986 2.473.986 1.002 0 1.826-.329 2.473-.986.646-.658.97-1.504.97-2.54 0-1.034-.324-1.88-.97-2.538-.647-.658-1.471-.986-2.473-.987-1.003 0-1.827.329-2.473.987-.647.657-.97 1.504-.97 2.539 0 1.035.323 1.881.97 2.539zm9.85-7.211h1.967c.74 0 1.387.062 1.94.188a4.1 4.1 0 011.544.72 4.354 4.354 0 011.329 1.623c.315.653.472 1.367.472 2.142 0 1.632-.628 2.887-1.883 3.763a4.435 4.435 0 01-1.544.714c-.524.12-1.152.181-1.883.181h-1.94l-.002-9.331zm1.433 1.342v6.645h.618c1.068 0 1.897-.219 2.488-.657.852-.644 1.278-1.53 1.278-2.658 0-.578-.119-1.105-.359-1.58-.239-.476-.541-.845-.906-1.106-.6-.429-1.434-.643-2.502-.643h-.617zm14.529 7.988l-.983-2.25h-4.005l-1.026 2.252h-1.544l4.665-9.878 4.441 9.878-1.548-.002zm-4.398-3.595h2.838l-1.391-3.16-1.447 3.16zm8.937 3.595v-4.029l-3.077-5.301h1.63l2.164 3.735 2.164-3.735h1.63l-3.077 5.301v4.03h-1.434z" fill="#716E98"/></svg>