<svg width="148" height="51" fill="none" xmlns="http://www.w3.org/2000/svg"><path d="M74.222 20.893L79.188 6.31h3.326l4.764 14.584H84.49l-1.011-3.146h-5.416l-1.034 3.146h-2.808zm4.516-5.146h4.112l-2.044-6.27-2.068 6.27zm9.784 5.146V5.477h2.652v15.416h-2.652zm5.048 0V5.477h2.652v15.416h-2.651zm6.594-12.899c-.517 0-.92-.137-1.208-.41-.289-.274-.432-.654-.432-1.14 0-.473.144-.85.432-1.13.289-.281.691-.422 1.208-.422.509 0 .91.14 1.202.422.292.28.439.657.439 1.13 0 .486-.146.866-.439 1.14-.292.273-.692.41-1.202.41zm-1.326 12.9V9.948h2.652v10.943l-2.652.001zm8.719.313c-.937 0-1.718-.162-2.343-.488-.626-.326-1.096-.755-1.411-1.286a3.346 3.346 0 01-.472-1.731c0-.689.182-1.268.545-1.736.363-.468.879-.82 1.546-1.057.666-.236 1.453-.354 2.36-.354.592 0 1.152.045 1.679.135.528.09 1.054.21 1.579.36v1.55a8.526 8.526 0 00-1.348-.315 9.118 9.118 0 00-1.371-.112c-.629 0-1.146.116-1.551.348-.404.232-.607.625-.607 1.18 0 .404.165.753.495 1.045.329.293.854.438 1.573.438.547 0 1.011-.12 1.393-.359.382-.24.672-.539.87-.899.199-.36.298-.72.298-1.078h.629c0 .786-.146 1.51-.438 2.174a3.709 3.709 0 01-1.298 1.59c-.572.397-1.282.596-2.128.596zm3.573-.314l-.338-2.651v-4.383c0-.764-.156-1.33-.466-1.696-.311-.367-.837-.55-1.579-.55-.427 0-.798.063-1.112.19a1.596 1.596 0 00-.725.545c-.168.236-.252.522-.252.86h-2.9c0-.824.199-1.497.596-2.017.397-.52.968-.902 1.714-1.146.745-.244 1.638-.365 2.679-.365.945 0 1.768.152 2.472.455.704.303 1.251.77 1.641 1.399.389.629.584 1.434.584 2.415v6.944h-2.314zm4.406 0v-10.9h2.315l.336 2.158v8.742h-2.651zm7.483 0v-6.382c0-.809-.195-1.42-.584-1.831-.39-.412-.9-.619-1.529-.619-.532 0-1.002.146-1.41.439-.409.292-.729.732-.961 1.32-.232.588-.349 1.32-.349 2.197h-.876c0-1.416.176-2.593.528-3.534.352-.94.85-1.642 1.494-2.107.644-.464 1.4-.696 2.27-.696.899 0 1.65.2 2.253.6.603.402 1.057.965 1.36 1.692.303.727.455 1.573.455 2.54v6.381h-2.651zm8.851.314a4.813 4.813 0 01-2.545-.713c-.783-.476-1.416-1.146-1.899-2.012-.484-.865-.725-1.882-.725-3.05 0-1.236.241-2.282.725-3.14.483-.857 1.116-1.508 1.899-1.95a5.088 5.088 0 012.545-.662c.712 0 1.339.114 1.882.343a4.262 4.262 0 011.388.921c.382.386.681.815.899 1.286.217.472.355.948.416 1.428l-2.674.067a2.435 2.435 0 00-.669-1.19c-.326-.316-.747-.472-1.264-.472a2.22 2.22 0 00-1.203.354c-.375.235-.679.6-.915 1.095-.236.494-.355 1.135-.355 1.921 0 .75.111 1.374.332 1.872.221.498.518.872.893 1.124.375.25.791.376 1.248.376.674 0 1.165-.163 1.471-.489.307-.326.461-.761.461-1.308h2.674c0 .77-.176 1.475-.528 2.112-.352.637-.869 1.144-1.551 1.523-.68.375-1.516.564-2.505.564zm10.486 0a4.74 4.74 0 01-2.55-.719c-.772-.479-1.39-1.152-1.854-2.017-.465-.865-.697-1.878-.697-3.039 0-1.199.23-2.228.691-3.09.461-.861 1.077-1.52 1.849-1.977a4.93 4.93 0 012.561-.685c.869 0 1.62.173 2.253.522.633.348 1.142.82 1.528 1.415a5.44 5.44 0 01.782 2.017c.135.75.142 1.521.022 2.315h-7.573v-1.438h5.697l-.517.337a4.923 4.923 0 00-.051-1.068 3.115 3.115 0 00-.32-.989 1.87 1.87 0 00-.669-.724c-.288-.184-.657-.276-1.107-.276-.539 0-.996.135-1.37.404-.375.27-.66.637-.855 1.102a4.047 4.047 0 00-.292 1.573v1.056c0 .615.091 1.158.275 1.63.184.47.457.842.821 1.112.363.27.822.404 1.376.404.518 0 .951-.12 1.304-.36.352-.239.576-.598.674-1.078h2.674a4.01 4.01 0 01-.792 1.86 4.263 4.263 0 01-1.612 1.258c-.66.304-1.409.456-2.248.456zm-67.492 9.81h1.303v6.292h7.304v-6.292h1.27v13.877h-1.27V38.41h-7.303v6.483h-1.304V31.017zM91.235 45.14c-.93 0-1.747-.238-2.455-.713-.708-.476-1.265-1.131-1.669-1.967-.405-.835-.606-1.788-.606-2.86 0-1.168.2-2.172.6-3.01.401-.84.956-1.484 1.663-1.933.709-.45 1.53-.674 2.466-.674.787 0 1.456.159 2.006.478.55.318.994.75 1.331 1.297a5.6 5.6 0 01.713 1.854c.139.69.193 1.401.163 2.135H87.57v-.899h7.08l-.517.337a7.036 7.036 0 00-.085-1.456 4.305 4.305 0 00-.438-1.33 2.578 2.578 0 00-.894-.978c-.381-.248-.873-.371-1.471-.371-.765 0-1.401.196-1.91.59a3.57 3.57 0 00-1.14 1.528 5.327 5.327 0 00-.377 2.005v.551c0 .816.126 1.55.376 2.202.25.652.63 1.169 1.135 1.551.506.383 1.14.574 1.905.574.786 0 1.429-.193 1.927-.58.498-.385.796-.953.893-1.701h1.393c-.113.711-.362 1.319-.747 1.82a3.774 3.774 0 01-1.466 1.152c-.59.265-1.257.398-1.999.398zm9.236 0c-.854 0-1.558-.155-2.112-.466-.555-.31-.966-.71-1.236-1.197a3.074 3.074 0 01-.404-1.506c0-.748.182-1.348.545-1.797.364-.45.85-.775 1.46-.977a6.337 6.337 0 012.006-.304c.547 0 1.114.062 1.702.186.588.123 1.152.294 1.691.51v.877c-.465-.202-1-.363-1.607-.483a8.62 8.62 0 00-1.651-.18c-.764 0-1.416.165-1.955.494-.54.33-.81.888-.81 1.674 0 .592.2 1.094.602 1.506.4.412 1.046.619 1.938.619.606 0 1.165-.146 1.674-.439a3.833 3.833 0 001.23-1.09c.311-.434.466-.873.466-1.315h.326a3.97 3.97 0 01-.477 1.91 3.783 3.783 0 01-1.348 1.433c-.581.364-1.261.545-2.04.545zm3.709-.247l-.17-2.213v-4.72c0-1.07-.231-1.83-.696-2.28-.465-.45-1.127-.674-1.989-.674-.48 0-.926.069-1.338.208a2.11 2.11 0 00-.989.663c-.246.303-.37.702-.37 1.196h-1.484c0-.756.187-1.361.562-1.814.374-.453.878-.78 1.511-.978a7.015 7.015 0 012.107-.298c.764 0 1.446.134 2.045.4a3.072 3.072 0 011.421 1.28c.348.588.523 1.361.523 2.32v6.91h-1.133zm3.224 0V29.612h1.303v15.28h-1.303zm2.651-9.719v-.944h6.708v.944h-6.708zm4.686 9.966c-.555 0-1.047-.108-1.478-.325a2.377 2.377 0 01-1.012-.966c-.243-.427-.365-.955-.365-1.584V31.196h1.27v11.045c0 1.214.562 1.82 1.686 1.82.329 0 .644-.037.944-.112.299-.075.636-.18 1.011-.315l.18.955a7.653 7.653 0 01-1.101.399 4.212 4.212 0 01-1.135.152zm3.325-.247V29.612h1.303v15.28h-1.303zm7.719 0v-6.281c0-1.132-.271-1.997-.814-2.596-.543-.599-1.29-.9-2.242-.9-.697 0-1.298.192-1.804.574-.506.383-.891.918-1.157 1.607s-.399 1.494-.399 2.415h-.572c0-1.168.159-2.181.477-3.04.318-.856.79-1.52 1.415-1.988.626-.468 1.403-.702 2.332-.702.823 0 1.537.184 2.14.55.603.368 1.069.897 1.399 1.59.329.693.494 1.523.494 2.489v6.281h-1.269zM18.509 21.096a5.58 5.58 0 01-2.72 4.88l-.005.004-6.555 3.918a2.219 2.219 0 00-.766 3.043l3.152 5.27 3.555 5.947v.002a7.608 7.608 0 01-.628.333 7.468 7.468 0 01-.807.315c-.22.071-.44.13-.659.18a9.611 9.611 0 01-.503.088 8.413 8.413 0 01-.668.06 7.342 7.342 0 01-1.333-.073 6.459 6.459 0 01-.326-.06 6.897 6.897 0 01-4.578-3.236l-4.29-7.175-.005-.009a6.9 6.9 0 01-.847-4.923l.064-.288.007-.02a6.917 6.917 0 013.164-4.256l7.186-4.296c.07-.042.142-.084.214-.123a.767.767 0 00.408-.717 4.503 4.503 0 01-.007-.25l-.129-8.37 6.93-.104.146 9.86z" fill="#716E98"/><path d="M44.404 33.938l-4.071 7.301-.005.014a6.94 6.94 0 01-3.84 3.193l-.282.087-.02.006c-.107.032-.215.058-.322.085a6.912 6.912 0 01-4.946-.697l-7.312-4.075a7.88 7.88 0 01-.224-.13.78.78 0 00-.815.01 5.16 5.16 0 01-.215.133l-7.182 4.293-3.554-5.947 8.46-5.058.004-.002a5.586 5.586 0 015.586-.085l.005.002 6.67 3.718a2.219 2.219 0 003.018-.858l2.99-5.363 3.374-6.053a7.024 7.024 0 012.092 1.788c.138.18.266.362.384.55l.089.142a7.187 7.187 0 01.728 1.678 6.913 6.913 0 01-.612 5.268z" fill="#716E98"/><path opacity=".5" d="M18.509 21.096a5.58 5.58 0 01-2.72 4.88l-.005.004-6.555 3.918a2.219 2.219 0 00-.766 3.043l3.152 5.27 3.555 5.947v.002a7.608 7.608 0 01-.628.333 7.468 7.468 0 01-.807.315c-.22.071-.44.13-.659.18a9.611 9.611 0 01-.503.088 8.413 8.413 0 01-.668.06 7.342 7.342 0 01-1.333-.073 6.459 6.459 0 01-.326-.06 6.897 6.897 0 01-4.578-3.236l-4.29-7.175-.005-.009a6.9 6.9 0 01-.847-4.923l.064-.288.007-.02a6.917 6.917 0 013.164-4.256l7.186-4.296c.07-.042.142-.084.214-.123a.767.767 0 00.408-.717 4.503 4.503 0 01-.007-.25l-.129-8.37 6.93-.104.146 9.86z" fill="#716E98"/><path opacity=".3" d="M41.725 24.513l-3.374 6.053-8.613-4.802h-.003a5.58 5.58 0 01-2.864-4.794v-.005l-.117-7.64a2.219 2.219 0 00-2.252-2.184l-6.14.093-6.929.104a6.36 6.36 0 01.027-.71 6.753 6.753 0 01.306-1.517c.051-.162.109-.322.173-.477a7.36 7.36 0 01.282-.61c.026-.049.05-.098.077-.146a6.99 6.99 0 011.093-1.47 6.904 6.904 0 014.865-2.103l8.36-.126h.013a6.921 6.921 0 014.686 1.728l.214.202.016.013a6.899 6.899 0 012.103 4.868l.127 8.371v.116c0 .381.21.733.546.913l.092.05 7.312 4.073z" fill="url(#paint0_linear_329_942)"/><path d="M41.725 24.513l-3.374 6.053-8.613-4.802h-.003a5.58 5.58 0 01-2.864-4.794v-.005l-.117-7.64a2.219 2.219 0 00-2.252-2.184l-6.14.093-6.929.104a6.36 6.36 0 01.027-.71 6.753 6.753 0 01.306-1.517c.051-.162.109-.322.173-.477a7.36 7.36 0 01.282-.61c.026-.049.05-.098.077-.146a6.99 6.99 0 011.093-1.47 6.904 6.904 0 014.865-2.103l8.36-.126h.013a6.921 6.921 0 014.686 1.728l.214.202.016.013a6.899 6.899 0 012.103 4.868l.127 8.371v.116c0 .381.21.733.546.913l.092.05 7.312 4.073z" fill="#716E98"/><path d="M57.852.803v49.608" stroke="#BABABA" stroke-miterlimit="10"/><defs><linearGradient id="paint0_linear_329_942" x1="11.432" y1="17.372" x2="41.725" y2="17.372" gradientUnits="userSpaceOnUse"><stop offset=".7" stop-color="#fff" stop-opacity="0"/><stop offset="1"/></linearGradient></defs></svg>