<svg width="148" height="63" fill="none" xmlns="http://www.w3.org/2000/svg"><path d="M126.591 27.666c-2.457.57-8.944.887-8.944.887l-.797 2.578s3.212-.275 5.563-.042c0 0 .756-.064.84.845.042.93-.063 1.902-.063 1.902s-.063.57-.84.718c-.903.148-6.991.423-6.991.423l-.987 3.338s-.357.761.462.55c.756-.212 7.138-1.437 7.978-1.268.881.211 1.889 1.437 1.595 2.535-.336 1.332-6.718 5.431-10.581 5.156 0 0-2.036.127-3.736-2.641-1.638-2.641.566-7.607.566-7.607s-.986-2.324-.252-3.17c0 0 .42-.359 1.68-.464l1.574-3.255s-1.784.106-2.834-1.204c-.965-1.268-1.049-1.817-.294-2.155.798-.423 8.188-1.754 13.268-1.585 0 0 1.785-.211 3.359 2.895 0 0 .714 1.268-.545 1.564m-19.168 12.509c-.629 1.542-2.372 3.17-4.471 2.176-2.142-1.014-5.522-7.945-5.522-7.945s-1.26-2.578-1.511-2.493c0 0-.273-.507-.42 2.324-.21 2.81.042 8.283-1.113 9.15-1.05.845-2.309.486-3.023-.508-.588-.993-.84-3.38-.504-7.543.378-4.163 1.323-8.6 2.52-9.974 1.26-1.394 2.267-.38 2.645 0 0 0 1.616 1.48 4.346 5.853l.461.803s2.478 4.163 2.73 4.142c0 0 .209.211.377.042.252-.063.168-1.416.168-1.416s-.461-4.5-2.771-12.107c0 0-.336-.972-.105-1.902.21-.845 1.113-.423 1.113-.423s3.485 1.69 5.185 7.396c1.68 5.705.546 10.882-.084 12.425M90.355 25.53c-.335.592-.482 1.416-1.93 1.649 0 0-14.067.993-14.76 1.986 0 0-.461.591.294.74.798.168 3.99.591 5.5.675 1.638 0 7.139.043 9.154 2.536 0 0 1.155 1.184 1.113 3.867-.042 2.747-.525 3.719-1.596 4.712-1.112.93-10.643 5.24-16.795-1.352 0 0-2.813-3.17.987-5.579 0 0 2.73-1.69 9.72.275 0 0 2.1.76 2.016 1.543-.127.845-1.743 1.69-4.094 1.648-2.268-.064-3.947-1.162-3.611-.972.315.105-2.456-1.353-3.317-.36-.84.93-.63 1.48.21 2.05 2.1 1.226 10.35.782 12.806-1.986 0 0 .987-1.12-.504-2.029-1.47-.845-5.752-1.373-7.41-1.436-1.575-.085-7.475 0-8.356-1.543 0 0-.84-1.099.084-4.1.966-3.169 7.83-4.395 10.811-4.648 0 0 8.188-.338 9.72 1.352 0 0 .21.38-.041.951m-23.22 18.595c-.986.74-3.085.423-3.694-.423-.588-.74-.798-3.655-.693-8.24.147-4.692.21-10.439 1.26-11.369 1.05-.908 1.679-.105 2.099.508.42.633.966 1.33 1.05 2.789.126 1.479.482 9.086.482 9.086s.462 6.93-.482 7.649m2.078-24.723c-2.897.993-4.87.676-6.55-.063-.735 1.331-1.176 1.733-1.721 1.817-.84.085-1.575-1.268-1.68-1.69-.168-.317-.567-.888-.084-2.177-1.638-1.479-1.764-3.465-1.47-4.796.378-1.564 3.15-7.438 11.547-8.136 0 0 4.115-.295 4.828 1.902h.126s3.99 0 3.905 3.592c0 3.593-4.408 8.072-8.901 9.615m3.737-10.29c-2.645.422-6.718 3.972-8.67 6.909 3.002.55 8.25.338 10.601-4.438 0 0 1.113-3-1.931-2.472zm-11.61 2.324c-.84 1.373-.881 2.197-.483 2.746.987-1.479 2.73-3.803 5.354-5.62-2.015.211-3.716 1.056-4.87 2.874zm71.526 32.477c-1.932 4.776-3.569 9.614-4.514 16.862 0 0-.21 1.416-1.365.951-1.154-.423-3.044-2.324-3.463-5.008-.42-3.508 1.133-9.424 4.303-16.228-.924-1.48-1.574-3.677-1.049-6.762 0 0 .839-5.705 6.508-10.86 0 0 .671-.571 1.049-.381.462.211.273 2.028-.105 2.958-.336.887-2.855 5.283-2.855 5.283s-1.574 3-1.134 5.346c2.982-4.607 9.763-13.946 13.961-10.988 2.666 1.902 2.666 8.03.672 11.58-1.574 2.81-6.025 8.62-11.966 7.268m8.733-14.369c-1.554 1.69-4.325 4.903-6.508 9.256 2.309-.254 4.556-1.543 5.248-2.198 1.113-.993 3.674-3.677 3.275-7.227 0 0-.252-1.859-2.015.17zM47.613 46.45c-7.432 2.283-14.444 1.226-18.265.212-.105 1.563-.273 2.218-.525 2.472-.294.338-2.729 1.733-4.073-.254-.587-.95-.881-2.662-1.05-4.226-8.607-3.93-12.595-9.72-12.721-9.93-.21-.212-2.163-2.262-.21-4.797 1.826-2.283 7.872-4.586 13.289-5.494.21-4.65.713-8.241 1.364-9.826.777-1.902 1.764-.211 2.645 1.056.714.951 1.155 5.03 1.197 8.284 3.527-.17 5.668.084 9.594.845 5.165.887 8.608 3.55 8.335 6.55-.252 2.959-2.94 4.184-3.99 4.269-1.049.084-2.728-.698-2.728-.698-1.176-.55-.105-1.056 1.26-1.648 1.51-.74 1.175-1.48 1.175-1.48-.546-1.69-7.243-2.81-13.898-2.81 0 3.698.147 9.826.252 13.397 4.66.888 8.146.698 8.146.698s17.005-.486 17.487-11.41c.525-10.946-17.005-21.427-29.916-24.723-12.89-3.403-20.196-.994-20.825-.677-.693.338-.063.465-.063.465s.692.106 1.952.528c1.26.423.252 1.057.252 1.057-2.204.76-4.66.317-5.143-.697-.483-.993.315-1.902 1.26-3.233.88-1.374 1.889-1.331 1.889-1.331 15.955-5.6 35.437 4.437 35.437 4.437 18.222 9.255 21.33 20.137 20.993 24.363-.293 4.163-1.889 11.2-13.12 14.623m-35.06-15.13c-1.805.845-.546 2.198-.546 2.198 3.401 3.655 7.558 5.959 11.547 7.395.462-6.339.42-8.6.42-11.79-6.172.422-9.741 1.436-11.42 2.197z" fill="#716E98"/></svg>