<svg width="148" height="40" fill="none" xmlns="http://www.w3.org/2000/svg"><path d="M41.153 14.7c-5.11-4.838-11.457-5.09-15.604-4.566a25.47 25.47 0 012.325-5.194l.607-.922c.021-.063-.02-.126-.084-.105L22.931 6.26 21.255.457c-.042-.063-.146-.063-.167 0L19.39 6.26l-5.466-2.346c-.063-.042-.105.042-.084.084l.607.943a26.205 26.205 0 012.346 5.194C12.626 9.61 6.28 9.862 1.169 14.7l-.21.21.126.272a13.28 13.28 0 004.482 4.587 16.203 16.203 0 00-1.8 2.262l-.273.398.44.188a15.668 15.668 0 005.571 1.11c2.513 0 5.362-.754 7.33-3.581 1.97-2.828 1.823-6.095 1.11-9.007.99.176 1.963.428 2.912.754h.608c.95-.326 1.923-.578 2.911-.754-.712 2.912-.817 6.263 1.11 9.007 4.315 6.178 12.819 2.513 12.902 2.471l.44-.188-.251-.398c-.56-.81-1.177-1.58-1.843-2.304a13.113 13.113 0 004.503-4.545l.125-.273-.209-.21zM4.751 22.052a19.95 19.95 0 011.57-1.864 11.897 11.897 0 005.635 1.34c.906-.005 1.81-.09 2.702-.251-3.477 2.743-8.378 1.32-9.907.775zm11.415-2.367l-.377.503c-3.812 1.005-6.724.46-8.902-.587 2.2-2.2 5.823-4.943 10.661-5.634.126 1.99-.188 4-1.382 5.718zm1.298-6.535c-5.257.733-9.09 3.728-11.352 6.032a12.19 12.19 0 01-4.126-4.105c4.964-4.545 11.143-4.629 15.038-4.084.2.707.346 1.428.44 2.157zm3.791-2.053h-.188a21.057 21.057 0 00-3.352-.816 24.499 24.499 0 00-1.947-4.671l4.147 1.78 1.257-4.273 1.235 4.273 4.147-1.78a24.499 24.499 0 00-1.947 4.67 21.09 21.09 0 00-3.352.817zm3.519 2.87c4.796.691 8.399 3.393 10.598 5.571-2.178 1.047-5.11 1.592-8.86.587l-.335-.44c-1.215-1.718-1.529-3.728-1.403-5.718zm12.797 8.085c-1.529.565-6.492 2.01-9.97-.817 3.498.65 6.284 0 8.379-1.09a23.31 23.31 0 011.592 1.907zm-1.403-2.933c-2.262-2.304-6.095-5.236-11.31-5.969.104-.727.25-1.447.44-2.157 3.895-.545 10.074-.461 15.038 4.063a12.275 12.275 0 01-4.168 4.063z" fill="#716E98"/><path d="M27.435 24.167l-.188-.084c-5.07-2.576-5.656-5.592-5.677-5.78a1.555 1.555 0 00-.062-.336c-.021-.063-.65-.188-.692-.02-.041.167-.041.209-.062.293a.588.588 0 01-.021.188c-.147.607-1.048 3.31-5.655 5.655l-.189.084-.042.23c0 .084-1.215 10.222 6.095 14.704l.23.147.21-.147c7.31-4.482 6.095-14.62 6.095-14.703l-.042-.23zm-6.262 14.117c-6.075-3.938-5.635-12.148-5.53-13.572 3.477-1.802 4.922-3.833 5.53-5.09.586 1.257 2.031 3.267 5.508 5.09.126 1.424.545 9.634-5.509 13.572zm81.893.607V22.177h1.299V37.74h10.472v1.152h-11.771zm27.879 0v-5.843h-11.813v5.843h-1.257v-9.948c0-4.525 2.619-7.122 7.164-7.122s7.205 2.597 7.205 7.121v9.95h-1.299zm-5.927-15.918c-3.749 0-5.886 2.158-5.886 5.97v2.974h11.813v-2.975c0-3.811-2.157-5.969-5.927-5.969zm9.151 15.918V22.177h8.064c2.807 0 4.566 1.571 4.566 4.085 0 1.696-.837 3.016-2.304 3.644l-.188.084v.482l.23.062c1.885.482 3.058 2.053 3.058 4.064 0 2.639-1.801 4.293-4.671 4.293h-8.755zm1.299-1.152h7.205c2.262 0 3.603-1.256 3.603-3.393 0-2.136-1.425-3.414-3.54-3.414h-7.268v6.807zm0-7.938h6.619c2.073 0 3.414-1.277 3.414-3.246 0-1.97-1.278-3.247-3.477-3.247h-6.556v6.493zm-83.025 9.593c-5.048 0-8.734-3.581-8.734-8.524 0-4.944 3.686-8.525 8.734-8.525 5.047 0 8.734 3.582 8.734 8.524 0 4.944-3.666 8.525-8.734 8.525zm0-15.94c-4.315 0-7.457 3.122-7.457 7.415 0 4.294 3.142 7.415 7.457 7.415 4.314 0 7.477-3.12 7.477-7.415 0-4.293-3.142-7.414-7.477-7.414zM75.336 39.06V28.858c0-3.645-2.053-5.718-5.656-5.718-3.602 0-5.676 2.073-5.676 5.718v10.2h-1.298v-10.2c0-4.294 2.618-6.85 6.974-6.85 4.357 0 6.954 2.556 6.954 6.85v10.2h-1.298zm4.692-.001V22.345h12.085v1.13H81.326v6.536h9.258v1.13h-9.258v6.787h10.787v1.131H80.028z" fill="#716E98"/><path d="M52.36 25.335l-.451.56 1.462 1.166-.086.605-.172 1.036-.753.302-.774.302-.602-.496-.688-.54.28-1.834-.71-.108-.28 1.834-1.72.691.258.647 1.72-.669.86.691.43.346-.172 1.144-.064.474-.71.28-.839.346-1.44-1.165-.452.56 1.785 1.404.193-.065 1.72-.69.732.604.56.431-.13.886-.107.755-1.742.67.258.668 1.742-.669 1.44 1.144.452-.54-1.462-1.165.15-.907.108-.734.731-.302.796-.302 1.462 1.166.43-.562-1.44-1.165.107-.82.129-.82 1.72-.67-.258-.669-1.72.67-.602-.476-.688-.54.086-.625.15-1.015 1.742-.69-.258-.67-1.742.691-1.44-1.165zm1.656 4.532l.645.518-.086.67-.15.97-.796.325-.731.28-.731-.583-.56-.453.13-.928.107-.712.774-.302.753-.303.645.518zm4.207-10.329V9.757c0-3.456-1.97-5.446-5.404-5.446-3.435 0-5.404 1.99-5.404 5.446v9.781h-1.277V9.757c0-2.01.607-3.665 1.717-4.796 1.11-1.131 2.87-1.76 4.964-1.76 2.094 0 3.812.608 4.964 1.76C58.935 6.113 59.5 7.746 59.5 9.757v9.781h-1.277zm11.143.314c-2.094 0-3.812-.607-4.964-1.759-1.152-1.152-1.717-2.786-1.717-4.796V3.515h1.256v9.782c0 3.456 1.97 5.445 5.404 5.445 3.435 0 5.383-1.99 5.383-5.445V3.515h1.215v9.782c0 2.01-.586 3.665-1.697 4.796-1.11 1.131-2.827 1.76-4.88 1.76zm28.779-.314V8.814c0-2.764-1.57-4.503-4.126-4.503-2.555 0-4.126 1.78-4.126 4.503v10.724h-1.257V8.814c0-2.722-1.633-4.503-4.126-4.503-2.492 0-4.126 1.739-4.126 4.503v10.724h-1.278V8.814c0-1.78.524-3.246 1.509-4.23.984-.985 2.24-1.383 3.77-1.383 2.199 0 3.833 1.026 4.628 2.912l.252.607.251-.607c.796-1.886 2.43-2.912 4.629-2.912 1.55 0 2.849.482 3.77 1.383.922.9 1.508 2.45 1.508 4.23v10.724h-1.278zm4.837 0V3.515h7.729c2.702 0 4.378 1.508 4.378 3.938 0 1.613-.796 2.89-2.2 3.498l-.167.063v.44l.209.062c1.802.461 2.933 1.97 2.933 3.917 0 1.194-.398 2.22-1.152 2.932-.754.713-1.948 1.173-3.331 1.173h-8.399zm1.278-1.13h6.891c2.136 0 3.414-1.216 3.414-3.226 0-2.011-1.361-3.247-3.372-3.247h-6.933v6.472zm0-7.583h6.325c1.969 0 3.247-1.215 3.247-3.1s-1.215-3.079-3.33-3.079h-6.242v6.18zm14.495 8.713V3.515h11.603v1.131h-10.325v6.2h8.859v1.11h-8.859v6.451h10.325v1.131h-11.603zm26.243 0l-4.482-6.283h-5.467v6.283h-1.278V3.515h7.059c1.78 0 3.142.461 4.063 1.383.922.921 1.278 2.031 1.278 3.456 0 2.618-1.403 4.335-3.959 4.796l-.439.084 4.733 6.304h-1.508zm-9.949-7.414h5.802c3.33 0 4.021-2.032 4.021-3.77 0-1.739-.691-3.708-4.021-3.708h-5.802v7.478z" fill="#716E98"/></svg>