<svg width="147" height="44" fill="none" xmlns="http://www.w3.org/2000/svg"><path d="M121.705 1.233c-7.391-.796-18.252-.853-27.236-.057-4.492.398-8.53.967-11.486 1.763-.91.227-1.763.512-2.445.796h-1.421c-.114-.512-.228-.967-.398-1.308-.171-.398-.455-.74-.853-.853-.398-.114-.853.057-1.194.341-.398.342-.74.683-.91 1.024-.057.17-.114.398-.057.568.057.228.17.342.341.512.284.228.682.341 1.137.455a7 7 0 001.138.114c0 .17.056.341.056.512-.284.34-.454.739-.454 1.137 0 1.08-.114 3.013-.285 5.458-.057.512-.057 1.024-.114 1.536-.227 3.127-.454 6.766-.454 10.292 0 3.468.17 6.88.853 9.382.34 1.25.796 2.33 1.364 3.07.569.682 1.251 1.08 2.047 1.194.284 4.322 4.151 6.482 7.79 6.54 1.877 0 3.81-.57 5.231-1.764 1.365-1.137 2.275-2.843 2.332-5.06 2.16-.114 4.947-.284 7.96-.398 1.308.114 2.673.227 4.037.341h.114c4.549.455 9.325.91 13.931.057 1.194 0 2.161-.17 2.9-.341h.17c.285-.057.569-.114.797-.17.113 0 .227-.058.284-.058.284 4.265 3.809 6.88 7.278 7.108 1.763.114 3.582-.341 4.947-1.535a6.195 6.195 0 001.706-2.673 6.82 6.82 0 00.796-2.502c1.706.114 3.582-.682 4.606-2.729.909-1.82 1.137-4.663.113-8.586-.227-1.422-.625-3.014-1.194-4.833v-.057l-.057-.057c-.511-.796-1.251-1.25-2.047-1.535-1.592-.853-3.411-1.365-5.288-1.592-2.331-1.763-4.833-5.345-6.766-13.931-.171-.796-.626-1.308-1.308-1.592-.625-.285-1.422-.342-2.331-.398h-4.094c-.398 0-.967-.057-1.536-.171zm.569 1.08c.341 0 .739 0 1.08.057 1.706.228 3.185.512 4.265.853.739.228 1.308.455 1.649.74.398.227.512.454.512.625.625 4.833 1.706 8.074 3.013 10.235.683 1.08 1.365 1.876 2.161 2.502-.284 0-.569 0-.91.057-3.241.17-6.368.91-8.699 1.705 0-.398-.057-.852-.114-1.307a41.878 41.878 0 00-.853-4.72c-.057-.455-.114-.966-.228-1.478-.398-3.241-1.194-6.653-1.876-9.269zm-15.75-.796c-4.038 0-8.188.228-11.998.569-4.094.341-7.79.853-10.576 1.535 2.047-.17 4.378-.398 6.937-.625.91-.114 1.876-.17 2.843-.285 4.15-.454 8.586-.91 12.794-1.194zM80.709 4.645c2.672-.057 6.254-.398 10.235-.796.91-.114 1.876-.17 2.843-.285 4.207-.455 8.756-.91 13.078-1.194 5.174-.398 10.064-.511 13.646-.17.228.739.455 1.535.683 2.445.682 2.388 1.478 5.23 2.104 7.903.056.228.113.398.17.626.171 1.194.228 2.274.284 3.298.057 1.421-.056 2.615-.341 3.411l-.17.342c-.398-.626-.796-1.08-1.251-1.365-.512-.341-1.081-.512-1.592-.512-.455 0-.967.228-1.194.626-.285.398-.171.91.113 1.364.285.455.853.853 1.706 1.194.682.285 1.365.342 1.933.114.228.569.398 1.308.512 2.218.284 2.445-.057 6.084-1.592 11.372-4.719-.057-11.315.17-17.115.455-2.786-.17-5.459-.228-8.017.227-.398-4.492-4.151-6.823-7.79-6.823-1.934 0-3.81.625-5.232 1.876-1.194 1.08-2.047 2.673-2.274 4.663-.114-.17-.284-.398-.398-.626-.455-.966-.796-2.388-1.08-4.15-.455-3.469-.512-8.131-.512-12.68v-2.389c0-3.695.057-7.164-.17-9.723 0-.227-.058-.398-.058-.568.17-.114.341-.285.569-.398.341-.171.625-.285.91-.455zm-1.99 5.629c-.057.512-.057 1.023-.114 1.592-.057.512-.057 1.024-.114 1.535-.227 3.128-.455 6.767-.455 10.235 0 3.469.17 6.767.796 9.155.285 1.194.74 2.104 1.251 2.73.228.283.455.454.683.625-.171-.228-.285-.455-.455-.74-.512-1.08-.91-2.615-1.138-4.378-.511-3.582-.511-8.245-.511-12.85v-2.389c.057-1.933.057-3.81.057-5.515zm3.639 26.895c.056.74.227 1.365.511 1.99-.284-.568-.454-1.25-.511-1.99zm11.713-5.288c-1.308-1.25-3.184-1.933-5.004-1.933-1.706 0-3.411.568-4.662 1.706-1.138 1.023-1.934 2.615-2.047 4.72h.056c.057-1.991.91-3.526 2.104-4.55 1.308-1.08 3.014-1.592 4.777-1.592 1.649 0 3.411.569 4.776 1.65zm17.286 4.378c3.753.342 7.505.512 11.201-.113v-.057h-.284c-3.014-.057-6.937 0-10.917.17zm15.693-.852c-.796-.114-1.933-.171-3.298-.228.569-2.047.74-4.606.853-6.937 0-.626.057-1.25.057-1.82 0-.796.057-1.478.114-2.16.057-1.08.114-1.877.284-2.388 2.332-.91 5.857-2.047 9.496-2.332 3.696-.34 7.335.228 9.951 2.616.511 1.25.909 2.445 1.194 3.468.625 3.583.341 5.8-.341 7.165-.455.91-1.081 1.421-1.763 1.706-.569.227-1.194.227-1.706.17-.284-2.274-1.308-3.98-2.729-5.06-1.479-1.138-3.298-1.592-5.118-1.479-2.445.17-4.833 1.535-6.084 3.867-.568.853-.91 2.047-.91 3.412zm13.135 3.411c-.284.569-.682 1.024-1.08 1.422-1.194 1.137-2.843 1.706-4.492 1.762-3.355.057-6.596-2.104-6.71-6.084 0-1.421.285-2.672.853-3.696.285-.455.569-.853.91-1.194 1.08-1.08 2.616-1.592 4.151-1.592 3.07.057 6.311 2.218 6.709 6.653 0 1.08-.113 1.99-.341 2.73zm.569-5.402c-.91-2.274-2.616-3.752-4.549-4.378.853.227 1.706.569 2.445 1.137.91.74 1.649 1.82 2.104 3.241zm1.08 2.445a3.9 3.9 0 003.128-1.307 4.67 4.67 0 01-1.138.682c-.682.284-1.364.284-1.99.227a.485.485 0 010 .398zm-5.458-18.65c-1.991-1.933-3.981-5.231-5.573-11.43.626 3.981 1.592 6.654 2.73 8.473.909 1.479 1.876 2.388 2.843 2.957zm-6.028-13.476c-.17-.228-.341-.398-.625-.512-.455-.341-1.137-.568-1.877-.796-.113-.057-.227-.057-.398-.114.853 0 1.536.114 1.991.342.454.17.739.511.852 1.023.057 0 .057 0 .057.057zm7.051 14.898c-.967-.057-1.933 0-2.957.056-3.411.285-6.766 1.308-9.154 2.218.057-.284.057-.625.057-.967 2.331-.796 5.515-1.535 8.756-1.706a13.7 13.7 0 012.161 0c.341.057.682.228 1.137.398-.057-.056-.057 0 0 0zm-12.907 1.535c-.057.512-.114.91-.228 1.25a13.93 13.93 0 00-.17.74 10.71 10.71 0 00-.342-1.024c.171-.227.342-.511.455-.796.114-.056.171-.113.285-.17zm0-.91v-.114.114zm-2.9.284c.398.228.796.683 1.137 1.308-.284.114-.682.17-1.251-.114-.796-.34-1.194-.682-1.365-.91-.17-.227-.113-.398-.113-.398.056-.056.227-.17.511-.227.285 0 .683.057 1.081.341zM77.24 2.655c.285-.228.398-.171.398-.171.057 0 .17.114.284.398.114.227.171.512.285.91-.341 0-.626-.057-.853-.114-.455-.057-.682-.17-.74-.227l-.056-.057v-.057c.114-.114.284-.341.682-.682zm5.97 34.116c-.056-1.99.683-3.412 1.82-4.378 1.137-.967 2.616-1.422 4.208-1.365 3.127.057 6.198 1.99 6.255 5.516.056 1.762-.683 3.127-1.82 4.037-1.137.91-2.672 1.421-4.208 1.478-1.535.057-3.127-.341-4.264-1.25-1.194-.854-1.933-2.161-1.99-4.038z" fill="#716E98"/><path d="M91.967 37.567a3.102 3.102 0 01-1.308 1.877c-.625.454-1.364.682-2.047.511-.682-.17-1.307-.682-1.706-1.421-.398-.74-.568-1.592-.398-2.275.171-.682.683-1.307 1.422-1.705.74-.398 1.592-.569 2.274-.398 1.422.34 2.104 1.876 1.763 3.411zm44.864-3.07c.398.625.568 1.421.511 2.217-.113.796-.454 1.479-1.023 1.877-.569.398-1.422.511-2.275.34-.852-.17-1.592-.625-1.99-1.193-.398-.569-.455-1.365-.227-2.218.227-.853.739-1.592 1.308-1.99 1.251-.853 2.843-.341 3.696.967z" stroke="#716E98" stroke-width="1.5"/><path d="M90.887 36.6c0 .512-.17 1.08-.569 1.536-.341.455-.796.739-1.308.739-.455 0-1.023-.227-1.421-.682-.398-.455-.683-1.024-.683-1.536 0-.455.228-1.023.683-1.421.455-.398 1.023-.682 1.535-.682.967 0 1.706.91 1.763 2.046zm44.749-2.16c.398.34.683.966.796 1.649.114.682 0 1.307-.284 1.649-.341.34-.853.568-1.478.568-.626 0-1.194-.17-1.592-.511-.342-.342-.569-.854-.569-1.479 0-.625.171-1.194.512-1.592.739-.796 1.876-.967 2.615-.284z" stroke="#716E98" stroke-width="1.5"/><path d="M84.86 11.638c.739.171 1.364.228 1.535.057 0 0 .057-.057.057-.284 0-.227 0-.455.057-.625-.114-.057-.228-.114-.342-.114-.34-.114-.739.114-1.25.398 0 0-.057 0-.057.057v.511zm8.245-.568v-.228c0 .626-.057 1.592-.512 2.332.284-.285.568-1.138.511-2.104z" fill="#716E98"/><path d="M90.09 6.066c-2.558 0-4.719 1.876-5.174 4.321.512-.284.967-.454 1.422-.284.114.057.227.057.284.114.17-.398.398-.796.683-1.137.113-.228.227-.455.398-.626.284-.284.682-.398 1.194-.455a5.019 5.019 0 012.445-.284c1.308.398 2.104 1.592 2.217 3.241.057 1.137-.284 2.502-1.08 2.843-.284.057-.569.114-.796.17-.455.285-1.024.399-1.65.399-.283 0-.624-.057-1.023-.114-1.137-.227-1.82-.512-2.16-1.024-.285-.398-.228-.796-.17-1.194-.342.285-1.024.285-1.877.114.455 2.388 2.559 4.208 5.117 4.265 2.9 0 5.231-2.332 5.231-5.175.171-2.843-2.16-5.174-5.06-5.174z" fill="#716E98"/><path d="M91.57 13.458a.444.444 0 00.227-.228c1.023-1.023.625-3.07.625-3.07v-.114c-.114-.511-.227-1.25-1.82-1.421-.568-.057-1.08-.114-1.42-.057-.456.17-.854.398-1.138.74l-.057.056c-.057.17-.057.398-.057.682 0 .285 0 .626-.057.91-.057.853-.17 1.706.398 2.218.455.511 1.592.568 3.298.284zm-4.322-3.128c-.057.058-.057.172-.114.229l.057.057c.057-.114.057-.228.057-.285zm-3.184 1.138c.284-.114.568-.284.852-.398 0-.228.057-.455.057-.683-.057.057-.17.057-.227.114-.512.285-1.08.569-1.82.683-.739-.171-1.421-.285-2.103-.285-.455-.17-.967-.455-1.536-.796l-.341.455c.284.17.512.341.74.455-.285.057-.513.17-.74.341l.284.455c.398-.227.91-.341 1.422-.341.853.284 1.535.341 2.16.284.342.057.683.17.967.228.398.113.796.17 1.137.227-.056-.17-.056-.398-.056-.569-.228-.056-.512-.113-.796-.17z" fill="#716E98"/><path d="M86.793 12.15c-.057.398-.057.796.17 1.194.342.455 1.024.796 2.161 1.024.341.057.683.114 1.024.114.625 0 1.194-.114 1.649-.399.284-.056.511-.113.796-.17.739-.284 1.08-1.65 1.08-2.843-.057-1.65-.853-2.9-2.218-3.241a5.019 5.019 0 00-2.445.284c-.511.057-.91.17-1.194.455a1.7 1.7 0 00-.398.625c-.34.342-.568.74-.682 1.138-.114-.057-.17-.057-.284-.114-.455-.17-.91.057-1.422.284-.057.228-.057.455-.057.683 0 0 .057 0 .057-.057.512-.285.91-.455 1.251-.398.114.057.228.113.341.113-.056.228-.056.455-.056.626 0 .227-.057.227-.057.284-.228.17-.853.114-1.536-.057 0 .228.057.398.057.569.74.114 1.422.17 1.763-.114zm6.311-1.308v.228c.057.966-.227 1.82-.511 2.16.455-.796.511-1.762.511-2.388zm-5.288.17c0-.34.057-.625.057-.909 0-.284 0-.512.057-.682l.057-.057c.341-.284.74-.569 1.137-.74.398 0 .853 0 1.422.058 1.592.17 1.762.91 1.82 1.421v.114s.397 2.047-.626 3.07l-.228.228c-1.705.284-2.843.227-3.411-.228-.455-.568-.398-1.421-.285-2.274zm-.568-.681v.34l-.057-.056c0-.17.057-.228.057-.284z" fill="#fff"/><path d="M1.217 14.368c.284.284.625.511.967.682.398.17.853.227 1.307.227.455 0 .853-.056 1.251-.227.398-.17.74-.341.967-.626.284-.284.512-.625.682-.966.17-.398.228-.796.228-1.308V9.364H3.435v1.421h1.648v1.422c0 .227-.056.455-.113.625-.057.171-.17.342-.341.512a1.984 1.984 0 01-.512.341 1.89 1.89 0 01-1.365 0c-.114-.056-.284-.227-.398-.34-.114-.171-.227-.342-.284-.513-.057-.227-.114-.398-.114-.625V7.772c0-.228.057-.455.114-.626 0-.227.114-.398.284-.511a.828.828 0 01.512-.342c.17-.113.455-.113.682-.113.398 0 .74.113.967.284.284.227.398.455.512.796l.056.17 1.479-.511-.057-.17a2.558 2.558 0 00-1.08-1.536c-.512-.341-1.138-.512-1.877-.512-.511 0-.91.057-1.308.228-.398.17-.739.398-.966.682-.284.284-.455.626-.626 1.024-.113.398-.227.796-.227 1.25v4.265c0 .455.057.91.227 1.308.114.284.285.625.569.91zm11.259-3.924c.568-.227.966-.568 1.25-1.023a3.53 3.53 0 00.455-1.763c0-.966-.227-1.706-.739-2.217-.511-.512-1.194-.796-2.047-.796H8.041v10.519h1.535v-4.492h1.421l1.706 4.492h1.65l-1.877-4.72zm-1.308-1.137h-1.65v-3.24h1.593c.512 0 .91.113 1.137.397.228.285.341.683.341 1.194 0 .512-.113.91-.398 1.194-.17.342-.511.455-1.023.455zm9.951 4.378H16.91v-3.127h3.582V9.193H16.91v-3.07h4.208V4.7h-5.686v10.463h5.686v-1.479zm6.652 0h-4.208v-3.127h3.583V9.193h-3.583v-3.07h4.208V4.7h-5.743v10.463h5.743v-1.479zm2.445-5.458l.796 1.535 2.957 5.402h1.422V4.7h-1.535v6.994l-.853-1.649-2.9-5.345H28.68v10.463h1.535V8.227zm12.282 5.458h-4.037V4.701h-1.535v10.463h5.572v-1.479zm2.446-8.984h-1.536v10.463h1.535V4.7zm4.434 6.085h1.65v1.421c0 .228-.057.455-.114.626-.057.17-.171.34-.342.511a1.984 1.984 0 01-.511.341 1.88 1.88 0 01-1.365 0c-.227-.113-.341-.227-.512-.398-.113-.17-.227-.34-.284-.511-.057-.228-.114-.398-.114-.626V7.772c0-.227.057-.455.114-.625.057-.228.17-.398.284-.512a.828.828 0 01.512-.341c.17-.114.455-.114.682-.114.398 0 .74.114.967.284.284.228.398.455.512.796l.057.17 1.478-.51v-.228a2.558 2.558 0 00-1.08-1.536c-.512-.34-1.138-.511-1.877-.511-.512 0-.91.057-1.308.227s-.739.398-.966.682c-.285.285-.455.626-.626 1.024-.113.398-.227.796-.227 1.25v4.265c0 .455.057.91.227 1.308s.342.74.626 1.024c.284.284.625.511.966.682.398.17.853.228 1.308.228.455 0 .853-.057 1.251-.228.398-.17.74-.341.967-.625.284-.285.511-.626.682-.967.17-.398.228-.796.228-1.308V9.421h-3.185v1.365zm6.084-.228h3.128v4.606h1.535V4.7H58.59v4.492h-3.128V4.701h-1.535v10.463h1.535v-4.606zm5.288-5.857v1.422h2.332v9.04h1.535v-9.04h2.331V4.7h-6.197zM.364 22.67h4.379v17.228h2.501V22.67h4.379v-2.275H.364v2.275zm14.159 17.228h10.405V37.51h-7.96v-6.368h6.766v-2.218h-6.766v-6.198h7.96v-2.33H14.523v19.502zm23.824-8.87c-.34-.455-.796-.853-1.421-1.194-.569-.341-1.308-.625-2.104-.91-.626-.17-1.194-.398-1.706-.568a5.108 5.108 0 01-1.365-.683 2.632 2.632 0 01-.91-.853c-.227-.34-.34-.739-.34-1.25 0-.853.227-1.593.739-2.161.455-.569 1.25-.853 2.274-.853.853 0 1.535.114 2.104.398.512.284 1.023.74 1.365 1.364l.056.057 2.047-1.421.057-.057-.056-.057c-.455-.796-1.08-1.421-1.99-1.933-.854-.512-2.048-.796-3.47-.796-.852 0-1.648.114-2.33.398-.683.284-1.308.625-1.763 1.137-.512.455-.853 1.024-1.137 1.706-.285.625-.398 1.365-.398 2.16 0 .74.113 1.422.284 1.934.17.569.512 1.08.966 1.478.455.455.967.796 1.65 1.137.682.342 1.478.626 2.444.91.512.17.967.341 1.422.512.398.17.796.398 1.08.682.285.228.512.569.683.91.17.341.227.796.227 1.308 0 .91-.227 1.649-.739 2.274-.512.569-1.365.91-2.502.91-.967 0-1.763-.227-2.388-.682a5.081 5.081 0 01-1.479-1.65v.058l-2.103 1.25-.057.057.057.057c.511 1.08 1.25 1.934 2.274 2.56 1.024.625 2.275.909 3.81.909 1.82 0 3.298-.512 4.264-1.478 1.024-.967 1.536-2.332 1.536-4.038 0-.739-.057-1.364-.228-1.933a5.612 5.612 0 00-.853-1.649zm3.128-8.358h4.378v17.228h2.502V22.67h4.378v-2.275H41.475v2.275zm24.279 8.358c-.34-.455-.796-.853-1.421-1.194-.569-.341-1.308-.625-2.104-.91-.625-.17-1.194-.398-1.706-.568a5.108 5.108 0 01-1.364-.683 2.632 2.632 0 01-.91-.853c-.228-.34-.341-.739-.341-1.25 0-.853.227-1.593.739-2.161.455-.569 1.25-.853 2.274-.853.853 0 1.535.114 2.104.398.512.284 1.024.74 1.365 1.364l.057.057 2.047-1.421.056-.057-.056-.057c-.455-.796-1.08-1.421-1.99-1.933-.853-.512-2.048-.796-3.469-.796-.853 0-1.649.114-2.331.398-.683.284-1.308.625-1.763 1.137-.512.455-.853 1.024-1.137 1.706-.285.625-.398 1.365-.398 2.16 0 .74.114 1.422.284 1.934.17.569.512 1.08.967 1.478.455.455.966.796 1.649 1.137.682.342 1.478.626 2.445.91.511.17.966.341 1.421.512.398.17.796.398 1.08.682.285.228.512.569.683.91.17.341.227.796.227 1.308 0 .91-.227 1.649-.739 2.274-.512.569-1.364.91-2.502.91-.966 0-1.762-.227-2.388-.682a5.081 5.081 0 01-1.478-1.65l-.057-.056-2.104 1.25-.057.058.057.057c.512 1.08 1.251 1.933 2.275 2.558 1.023.626 2.274.91 3.81.91 1.819 0 3.297-.512 4.264-1.478 1.023-.967 1.535-2.331 1.535-4.037 0-.74-.057-1.365-.228-1.934a4.932 4.932 0 00-.796-1.535z" fill="#716E98"/></svg>