<svg width="148" height="45" fill="none" xmlns="http://www.w3.org/2000/svg"><g clip-path="url(#clip0_329_933)" fill="#716E98"><path d="M91.442 35.023c-8.53 6.262-20.895 9.603-31.54 9.603-14.926 0-28.364-5.498-38.53-14.643-.799-.72-.083-1.7.875-1.14 10.972 6.358 24.537 10.183 38.55 10.183 9.45 0 19.846-1.948 29.405-5.989 1.444-.61 2.652.942 1.24 1.986z"/><path d="M94.988 30.982c-1.086-1.388-7.207-.656-9.955-.331-.837.102-.965-.624-.21-1.146 4.875-3.417 12.874-2.43 13.807-1.285.933 1.152-.242 9.139-4.824 12.95-.703.586-1.374.274-1.06-.502 1.028-2.558 3.335-8.292 2.242-9.686zM85.225 5.379V2.057c0-.503.383-.84.843-.84h14.933c.479 0 .862.344.862.84v2.845c-.006.477-.409 1.1-1.124 2.087l-7.738 11.004c2.875-.07 5.91.356 8.517 1.82.588.33.748.814.793 1.292v3.544c0 .484-.537 1.05-1.099.758-4.594-2.4-10.697-2.66-15.777.025-.517.28-1.06-.28-1.06-.763v-3.367c0-.541.006-1.464.55-2.285l8.964-12.804h-7.802c-.479 0-.862-.338-.862-.834zM30.752 26.107H26.21c-.434-.032-.78-.357-.811-.77V2.114c0-.464.39-.833.875-.833h4.236a.854.854 0 01.825.776v3.036h.083C32.522 2.159 34.599.79 37.397.79c2.844 0 4.62 1.368 5.898 4.302C44.395 2.159 46.893.79 49.57.79c1.904 0 3.987.782 5.259 2.539 1.437 1.954 1.143 4.792 1.143 7.28l-.006 14.657c0 .464-.39.84-.875.84h-4.537c-.454-.032-.818-.395-.818-.84V12.959c0-.98.09-3.424-.128-4.353-.338-1.56-1.354-1.999-2.67-1.999-1.1 0-2.25.732-2.716 1.903-.467 1.171-.422 3.131-.422 4.449v12.308c0 .464-.39.84-.875.84h-4.537c-.46-.032-.818-.395-.818-.84l-.006-12.308c0-2.59.428-6.403-2.799-6.403-3.265 0-3.137 3.717-3.137 6.403v12.308c0 .464-.39.84-.876.84zM114.72.79c6.741 0 10.389 5.766 10.389 13.098 0 7.083-4.032 12.702-10.389 12.702-6.62 0-10.224-5.765-10.224-12.95 0-7.23 3.649-12.85 10.224-12.85zm.038 4.742c-3.348 0-3.559 4.544-3.559 7.376 0 2.838-.045 8.897 3.521 8.897 3.52 0 3.687-4.888 3.687-7.866 0-1.96-.084-4.302-.678-6.16-.511-1.617-1.527-2.247-2.971-2.247zm19.092 20.575h-4.524c-.453-.032-.817-.395-.817-.84l-.007-23.23c.039-.426.416-.756.876-.756h4.21a.868.868 0 01.812.649v3.55h.083c1.272-3.175 3.054-4.69 6.192-4.69 2.038 0 4.025.732 5.303 2.737 1.189 1.858 1.189 4.983 1.189 7.23v14.618c-.052.407-.429.732-.876.732h-4.556c-.415-.032-.76-.337-.805-.732V12.761c0-2.539.294-6.256-2.843-6.256-1.106 0-2.122.739-2.626 1.859-.639 1.419-.722 2.832-.722 4.397v12.506c-.007.464-.403.84-.889.84zM73.32 15.014v-.98c-3.284 0-6.753.7-6.753 4.557 0 1.954 1.016 3.277 2.76 3.277 1.278 0 2.422-.782 3.144-2.055.894-1.566.85-3.036.85-4.799zm4.582 11.03c-.3.267-.735.286-1.073.107-1.508-1.247-1.777-1.826-2.607-3.016-2.492 2.533-4.256 3.29-7.49 3.29-3.82 0-6.798-2.348-6.798-7.051 0-3.672 2-6.173 4.844-7.395 2.466-1.082 5.91-1.273 8.542-1.572V9.82c0-1.075.084-2.348-.549-3.277-.556-.834-1.617-1.178-2.55-1.178-1.731 0-3.277.885-3.654 2.718-.077.407-.377.808-.786.827l-4.41-.47c-.37-.084-.779-.383-.677-.95C61.71 2.17 66.534.567 70.854.567c2.211 0 5.1.585 6.844 2.253 2.21 2.055 2 4.798 2 7.783v7.051c0 2.12.881 3.049 1.712 4.194.294.408.358.898-.013 1.203-.926.77-2.575 2.202-3.482 3.004l-.013-.013m-64.14-11.028v-.98c-3.284 0-6.754.7-6.754 4.557 0 1.954 1.016 3.277 2.76 3.277 1.279 0 2.422-.782 3.144-2.055.895-1.566.85-3.036.85-4.799zm4.582 11.03c-.3.267-.735.286-1.074.107-1.508-1.247-1.776-1.826-2.607-3.016-2.492 2.533-4.255 3.29-7.489 3.29-3.82 0-6.798-2.348-6.798-7.051 0-3.672 2-6.173 4.843-7.395 2.467-1.082 5.91-1.273 8.543-1.572V9.82c0-1.075.083-2.348-.55-3.277-.555-.834-1.616-1.178-2.549-1.178-1.731 0-3.278.885-3.655 2.718-.076.407-.377.808-.786.827l-4.409-.47c-.37-.083-.78-.383-.677-.949C2.152 2.172 6.976.568 11.296.568c2.21 0 5.099.585 6.843 2.253 2.211 2.055 2 4.798 2 7.783v7.051c0 2.12.882 3.049 1.713 4.194.293.408.357.898-.013 1.203a192.46 192.46 0 00-3.483 3.004l-.012-.013"/></g><defs><clipPath id="clip0_329_933"><path fill="#fff" transform="translate(.287 .508)" d="M0 0h146.967v44.18H0z"/></clipPath></defs></svg>