<svg width="86" height="27" fill="none" xmlns="http://www.w3.org/2000/svg"><path d="M7.43.878c0-.344.258-.603.601-.603.343 0 .601.259.601.603a.588.588 0 01-.601.602.588.588 0 01-.601-.602zm-1.888 0c0-.172.172-.344.343-.344.172 0 .344.172.344.344s-.172.344-.344.344c-.171 0-.343-.172-.343-.344zm6.268 0c0-.344.258-.603.601-.603.344 0 .601.259.601.603a.587.587 0 01-.6.602.588.588 0 01-.602-.602zm-2.404 0c0-.43.343-.86.859-.86a.861.861 0 010 1.72.861.861 0 01-.859-.86zM3.137 3.03c0-.345.258-.603.601-.603.344 0 .601.258.601.602a.588.588 0 01-.6.603.588.588 0 01-.602-.603zm8.673 0c0-.345.258-.603.601-.603.344 0 .601.258.601.602a.587.587 0 01-.6.603.588.588 0 01-.602-.603zm2.403 0c0-.173.172-.345.344-.345.171 0 .343.172.343.344s-.172.345-.343.345c-.172 0-.344-.173-.344-.345zm-4.635 0c0-.345.258-.603.601-.603.344 0 .601.258.601.602a.588.588 0 01-.6.603.588.588 0 01-.602-.603zm-2.148 0c0-.345.258-.603.601-.603.343 0 .601.258.601.602a.588.588 0 01-.601.603.588.588 0 01-.601-.603zm-2.403 0a.86.86 0 01.858-.861.861.861 0 010 1.72.861.861 0 01-.858-.86zm.257 8.605c0-.344.258-.602.601-.602.344 0 .601.258.601.602a.587.587 0 01-.6.602.587.587 0 01-.602-.602zm6.697-.001a.37.37 0 01.344-.344c.171 0 .343.172.343.345 0 .172-.172.344-.343.344-.172 0-.344-.086-.344-.345zm1.975.001c0-.344.257-.602.6-.602.344 0 .602.258.602.602a.588.588 0 01-.601.602.587.587 0 01-.601-.602zm-10.819 0c0-.344.258-.602.601-.602.344 0 .601.258.601.602a.587.587 0 01-.6.602.587.587 0 01-.602-.602zm12.964 0c0-.344.258-.602.601-.602.343 0 .601.258.601.602a.588.588 0 01-.6.602.588.588 0 01-.602-.602zm-15.109 0c0-.344.258-.602.601-.602.343 0 .601.258.601.602a.587.587 0 01-.601.602.587.587 0 01-.601-.602zm6.438 0c0-.344.258-.602.601-.602.343 0 .601.258.601.602a.587.587 0 01-.601.602.587.587 0 01-.601-.602zm2.148 0c0-.344.258-.602.601-.602.344 0 .601.258.601.602a.588.588 0 01-.6.602.587.587 0 01-.602-.602zm-1.891 2.151c0-.172.172-.344.343-.344.172 0 .344.172.344.344s-.172.344-.344.344c-.171.086-.343-.086-.343-.344zm1.891 0c0-.344.258-.602.601-.602.344 0 .601.344.601.602a.588.588 0 01-.6.602.588.588 0 01-.602-.602zm-4.551 0c0-.43.343-.86.858-.86a.861.861 0 010 1.72.861.861 0 01-.858-.86zm6.783 0c0-.344.258-.602.601-.602.344 0 .601.258.601.602a.588.588 0 01-.6.602.588.588 0 01-.602-.602zm2.146 0c0-.344.257-.602.6-.602.344 0 .602.258.602.602a.588.588 0 01-.601.602.588.588 0 01-.601-.602zm-10.819 0c0-.344.258-.602.601-.602.344 0 .601.258.601.602a.588.588 0 01-.6.602.588.588 0 01-.602-.602zm0-8.606c0-.343.258-.602.601-.602.344 0 .601.259.601.603a.588.588 0 01-.6.602.588.588 0 01-.602-.602zm4.293 0c0-.343.258-.602.601-.602.343 0 .601.259.601.603a.588.588 0 01-.601.602.588.588 0 01-.601-.602zm-2.146 0c0-.343.258-.602.601-.602.344 0 .601.259.601.603a.588.588 0 01-.6.602.588.588 0 01-.602-.602zm6.526 0c0-.343.258-.602.601-.602.344 0 .601.259.601.603a.588.588 0 01-.6.602.588.588 0 01-.602-.602zm4.291 0c0-.343.258-.602.601-.602.343 0 .601.259.601.603a.588.588 0 01-.6.602.588.588 0 01-.602-.602zm-15.109 0c0-.343.258-.602.601-.602.258 0 .601.259.601.603a.588.588 0 01-.601.602.588.588 0 01-.601-.602zm8.844 0c0-.171.171-.344.343-.344.172 0 .344.173.344.345s-.172.344-.344.344-.343-.172-.343-.344zm4.12 0c0-.343.257-.602.6-.602.344 0 .602.259.602.603a.588.588 0 01-.601.602.588.588 0 01-.601-.602zM1.165 7.332c0-.172.171-.344.343-.344.172 0 .343.172.343.344s-.171.344-.343.344c-.172 0-.343-.172-.343-.344zm4.377 0c0-.172.172-.344.343-.344.172 0 .344.172.344.344s-.172.344-.344.344c-.171 0-.343-.172-.343-.344zm4.036 0c0-.344.258-.603.601-.603.344 0 .601.259.601.603a.588.588 0 01-.6.602.588.588 0 01-.602-.602zm4.378 0c0-.344.257-.603.6-.603.344 0 .602.259.602.603a.588.588 0 01-.601.602.587.587 0 01-.601-.602zm-2.146 0c0-.344.258-.603.601-.603.344 0 .601.259.601.603a.587.587 0 01-.6.602.588.588 0 01-.602-.602zm-8.673 0c0-.344.258-.603.601-.603.344 0 .601.259.601.603a.588.588 0 01-.6.602.588.588 0 01-.602-.602zm4.036 0c0-.43.343-.86.858-.86a.861.861 0 010 1.72c-.43 0-.858-.43-.858-.86zm8.671 0c0-.43.343-.86.859-.86a.861.861 0 010 1.72c-.43 0-.859-.43-.859-.86zM3.137 9.483c0-.344.258-.602.601-.602.344 0 .601.258.601.602a.588.588 0 01-.6.603.588.588 0 01-.602-.603zm4.293 0c0-.344.258-.602.601-.602.343 0 .601.258.601.602a.588.588 0 01-.601.603.588.588 0 01-.601-.603zm4.38 0c0-.344.258-.602.601-.602.344 0 .601.258.601.602a.588.588 0 01-.6.603.588.588 0 01-.602-.603zm4.291 0c0-.344.258-.602.601-.602.343 0 .601.258.601.602a.588.588 0 01-.6.603.588.588 0 01-.602-.603zm-6.695 0c0-.43.343-.86.859-.86a.861.861 0 010 1.72.861.861 0 01-.859-.86zm-8.672 0c0-.43.344-.86.859-.86s.859.344.859.86c0 .43-.344.86-.859.86a.861.861 0 01-.859-.86zm4.55 0c0-.344.258-.602.601-.602.344 0 .601.258.601.602a.588.588 0 01-.6.603.588.588 0 01-.602-.603zm8.672 0c0-.344.257-.602.6-.602.344 0 .602.258.602.602a.588.588 0 01-.601.603.588.588 0 01-.601-.603zm-8.672 6.54c0-.344.258-.602.601-.602.344 0 .601.258.601.602a.588.588 0 01-.6.603c-.344 0-.602-.344-.602-.603zm4.552 0c0-.172.171-.344.343-.344.172 0 .344.172.344.344s-.172.345-.344.345-.343-.172-.343-.345zm-2.663.001c0-.43.343-.86.858-.86a.861.861 0 010 1.72c-.43-.086-.858-.43-.858-.86zm4.637-.001c0-.344.258-.602.601-.602.344 0 .601.258.601.602a.588.588 0 01-.6.603c-.344 0-.602-.344-.602-.603zM29.754.706c2.147 0 3.778.774 5.238 1.979a.416.416 0 010 .602l-.601.603c-.172.258-.344.172-.601 0-1.117-.947-2.662-1.635-4.121-1.635-3.435 0-6.01 2.925-6.01 6.282 0 3.356 2.575 6.195 6.01 6.195 1.888 0 3.004-.774 4.12-1.634.258-.173.43-.173.516-.087l.687.603a.416.416 0 010 .602c-1.46 1.463-3.349 2.066-5.238 2.066-4.293 0-7.813-3.443-7.813-7.745 0-4.303 3.434-7.831 7.813-7.831zm6.526 14.887L42.891.963c.086-.171.172-.257.344-.257h.171c.172 0 .344.086.344.258l6.525 14.63c.172.257 0 .601-.343.601h-.859c-.172 0-.343-.172-.343-.258l-1.632-3.614h-7.727l-1.546 3.614c-.085.086-.171.258-.343.258h-.859c-.343-.086-.515-.344-.343-.602zm10.303-4.647c-1.116-2.323-2.146-4.733-3.177-7.056h-.171l-3.177 7.142h6.525v-.086zm6.095-9.552c0-.258.171-.43.429-.43h4.808a4.806 4.806 0 014.808 4.819c0 2.668-2.146 4.905-4.808 4.905H54.31v5.077c0 .258-.172.43-.43.43h-.858c-.258 0-.43-.172-.43-.43V1.395h.087zm5.065 7.659c1.803 0 3.263-1.463 3.263-3.356 0-1.721-1.545-3.098-3.263-3.098H54.31v6.454h3.434zM.82 25.834l3.09-6.884c0-.087.086-.087.172-.087h.086c.086 0 .172.087.172.087l3.09 6.884c.086.172 0 .258-.171.258h-.43c-.085 0-.171-.086-.171-.086l-.773-1.635H2.279l-.773 1.635c0 .086-.086.086-.172.086H.991c-.172 0-.258-.172-.172-.258zm4.807-2.151c-.515-1.12-.944-2.238-1.46-3.357h-.085l-1.46 3.357h3.005zm6.012-4.82c1.03 0 1.803.345 2.49.947.085.086.085.172 0 .258l-.258.258c-.086.087-.172.087-.258 0-.515-.43-1.287-.774-1.974-.774-1.632 0-2.834 1.377-2.834 2.926 0 1.549 1.202 2.926 2.834 2.926.858 0 1.373-.345 1.974-.775.086-.086.172-.086.258 0l.343.258c.086.086.086.172 0 .258-.687.689-1.545.947-2.49.947-2.06 0-3.691-1.635-3.691-3.614-.086-1.98 1.545-3.615 3.606-3.615zm7.126 0c1.03 0 1.803.345 2.49.947.085.086.085.172 0 .258l-.258.258c-.086.087-.172.087-.258 0-.515-.43-1.288-.774-1.974-.774-1.632 0-2.834 1.377-2.834 2.926 0 1.549 1.202 2.926 2.834 2.926.858 0 1.373-.345 1.974-.775.086-.086.172-.086.258 0l.343.258c.086.086.086.172 0 .258-.686.689-1.545.947-2.49.947-2.06 0-3.692-1.635-3.692-3.614-.085-1.98 1.546-3.615 3.607-3.615zm4.035.344c0-.085.086-.172.171-.172h2.662c1.202 0 2.233.947 2.233 2.152 0 .946-.601 1.72-1.46 2.065l1.374 2.582c.085.172 0 .258-.172.258h-.515c-.086 0-.172-.086-.172-.086l-1.374-2.668h-1.974v2.582a.185.185 0 01-.172.172h-.43c-.085 0-.171-.086-.171-.172v-6.713zm2.747 3.443c.773 0 1.46-.689 1.46-1.463 0-.775-.687-1.463-1.46-1.463h-1.974v2.926h1.974zm3.95-3.443c0-.085.086-.172.172-.172h4.035c.086 0 .172.087.172.172v.259a.185.185 0 01-.172.172H30.27v2.495h2.919c.086 0 .172.086.172.172v.259a.185.185 0 01-.172.172h-2.92v2.581h3.435c.086 0 .172.087.172.172v.259a.185.185 0 01-.172.172h-4.035a.185.185 0 01-.172-.172v-6.54zm6.009 0c0-.085.086-.172.172-.172h2.232c1.975 0 3.52 1.635 3.52 3.529 0 1.979-1.63 3.528-3.52 3.528h-2.232a.185.185 0 01-.172-.172v-6.713zm2.319 6.197c1.63 0 2.833-1.205 2.833-2.84 0-1.635-1.202-2.84-2.834-2.84H36.28v5.765h1.545v-.085zm5.237-6.197c0-.085.086-.172.172-.172h.429c.086 0 .172.087.172.172v6.713a.185.185 0 01-.172.172h-.43c-.085 0-.171-.086-.171-.172v-6.713zm3.864.431h-1.803a.185.185 0 01-.172-.172v-.259c0-.085.086-.172.172-.172h4.293c.086 0 .172.087.172.172v.259a.185.185 0 01-.172.172H47.7v6.282a.185.185 0 01-.172.172h-.343a.185.185 0 01-.172-.172v-6.282h-.086zm3.862-.431c0-.085.086-.172.172-.172h4.035c.086 0 .172.087.172.172v.259a.185.185 0 01-.172.172h-3.434v2.495h2.92c.085 0 .171.086.171.172v.259a.185.185 0 01-.172.172h-2.919v2.581h3.434c.086 0 .172.087.172.172v.259a.185.185 0 01-.172.172H50.96a.185.185 0 01-.172-.172v-6.54zm6.012 0c0-.085.085-.172.171-.172h2.232c1.975 0 3.52 1.635 3.52 3.529 0 1.979-1.63 3.528-3.52 3.528h-2.232a.185.185 0 01-.172-.172v-6.713zm2.318 6.197c1.63 0 2.833-1.205 2.833-2.84 0-1.635-1.202-2.84-2.834-2.84h-1.545v5.765h1.545v-.085zm26.273-15.49L69.936 26.522l-7.47-8.691 8.243 4.56L85.391 9.915z" fill="#A19FBB"/></svg>