<svg width="64" height="34" fill="none" xmlns="http://www.w3.org/2000/svg"><g clip-path="url(#clip0_298_754)" fill="#A19FBB"><path d="M32.695 17.905c-.088-.012-.157-.03-.227-.03h-2.02c-.213 0-.236.026-.236.248-.002 1.01-.002 2.02 0 3.03 0 .053.002.107 0 .16-.009.133-.025.156-.153.157-.627.003-1.254.003-1.881 0-.143 0-.156-.019-.159-.168-.003-.161 0-.323 0-.484v-8.139c0-.074.038-.112.109-.116.04-.002.079-.002.119-.002h1.723c.046 0 .092 0 .139.004.061.003.099.036.1.1.003.061.004.122.004.182v2.808c0 .298 0 .299.3.299h1.902c.047 0 .093-.002.139-.003.095-.003.147-.046.142-.15-.003-.053 0-.107 0-.161v-2.868c.002-.204.007-.21.218-.21.283-.002.568 0 .852-.002.31 0 .62-.002.93 0 .179.001.191.014.192.197v8.401c0 .321.02.313-.3.312h-1.683c-.204 0-.209-.005-.209-.218v-3.09l-.001-.257zm30.673 3.547c-.083.007-.146.018-.21.018h-1.901c-.202 0-.206-.001-.265-.195-.138-.456-.27-.913-.407-1.37-.065-.219-.067-.22-.282-.222h-2.219c-.206 0-.205.003-.269.212l-.422 1.386c-.058.186-.06.187-.246.188h-1.564c-.051 0-.102-.01-.182-.016l2.77-8.917c.07-.004.128-.01.186-.01.7-.002 1.4-.002 2.1 0 .214 0 .217 0 .277.199.42 1.38.839 2.76 1.257 4.142.334 1.098.67 2.195 1.006 3.292l.339 1.117a1.8 1.8 0 01.032.176zm-4.134-6.446c-.128.196-.815 2.663-.803 2.837h1.58c-.245-.95-.514-1.869-.777-2.837zm-12.256 6.447c.154-.497.294-.952.436-1.406a37469.937 37469.937 0 012.266-7.302c.014-.045.02-.097.047-.132a.278.278 0 01.117-.083c.035-.013.079-.003.118-.003h2.08c.204 0 .206 0 .263.187.41 1.348.82 2.696 1.228 4.044.36 1.18.72 2.361 1.082 3.541.102.334.204.667.304 1.002.011.05.02.1.025.151a1.536 1.536 0 01-.16.018h-1.961c-.205 0-.206-.002-.269-.213-.132-.45-.262-.901-.396-1.352-.065-.22-.067-.22-.282-.222h-2.218c-.21 0-.21.002-.272.21-.135.449-.268.9-.405 1.348-.069.228-.071.228-.299.228h-1.465c-.068 0-.137-.009-.239-.016zm2.996-3.635c.2.06 1.442.054 1.586.001-.017-.247-.7-2.652-.805-2.793-.274.94-.534 1.864-.781 2.79v.002zm-9.251-.802v-4.16c0-.301.002-.301.292-.301 1.136 0 2.271 0 3.406-.002.49 0 .981.023 1.442.202.925.36 1.519 1.03 1.695 2.035a3.11 3.11 0 01-.384 2.176c-.443.747-1.113 1.16-1.964 1.22-.637.045-1.278.032-1.918.046-.059 0-.118.002-.178 0-.097-.003-.148.042-.148.143l-.002.142v2.686l-.001.141c0 .082-.04.124-.121.127l-.12.002H40.98l-.12-.002c-.086-.002-.135-.043-.136-.135l-.002-.182.001-4.138zm2.21-.561c.088.007.165.02.242.019.402-.009.804-.014 1.206-.033.763-.036 1.09-.667.971-1.295-.089-.47-.418-.74-.953-.786-.42-.036-.843-.026-1.265-.034-.064 0-.127.017-.201.027v2.102zM23.509 18.03c-.528-.34-1.063-.685-1.708-.853.079-.113.182-.124.266-.165.334-.16.674-.31 1.003-.478.464-.236.56-.69.41-1.132a1.483 1.483 0 00-.635-.8c-.491-.303-1.024-.497-1.6-.533-.757-.046-1.516-.07-2.271-.126-.98-.074-1.96-.177-2.89-.524-.612-.227-1.184-.535-1.647-1.014a1.953 1.953 0 01-.295-.402 3.96 3.96 0 01-.479-1.296c-.06-.361-.017-.722.021-1.084.07-.68.42-1.179.915-1.614.48-.423 1.028-.663 1.644-.776.231-.043.454-.135.685-.18.423-.086.851-.115 1.277-.021.481.106.875.37 1.19.75.161.193.139.322-.057.477-.246.195-.54.279-.835.352-.147.036-.297.057-.448.079a.736.736 0 01-.478-.09c-.29-.162-.61-.214-.93-.256-.22-.029-.415.065-.575.22a2.274 2.274 0 00-.719 1.608c-.011.272.058.534.144.788.056.164.177.283.314.381.658.474 1.383.775 2.189.862.452.049.903.103 1.355.146.269.027.54.031.809.057.367.034.734.073 1.1.12.45.06.902.124 1.333.28.513.184 1.014.4 1.413.789.533.518.929 1.119.97 1.901.014.254.038.51.019.763-.027.348-.225.628-.421.899-.223.307-.696.687-1.07.871zm-5.216-10.4c.119.004.224-.061.231-.14.008-.086-.105-.161-.235-.157-.122.004-.224.072-.224.15.001.079.107.145.228.148zm2.459-.467c-.293-.138-.466-.365-.614-.615-.069-.117-.048-.197.068-.275.132-.088.273-.163.408-.247.428-.265.878-.501 1.277-.806a2.628 2.628 0 001.01-1.613c.053-.25.08-.504.081-.76 0-.2.022-.401.04-.601a.83.83 0 01.268-.546 1.95 1.95 0 01.76-.455c.666-.209 1.325-.136 1.963.082.611.21 1.21.461 1.8.727.614.278 1.213.593 1.816.896.11.06.217.128.317.205.203.148.171.408-.01.54a1.777 1.777 0 01-.968.364c-.263.014-.525.057-.788.065a2.937 2.937 0 01-.55-.043 1.94 1.94 0 00-1.125.135c-.5.225-.995.463-1.48.722-.635.341-1.259.706-1.885 1.065-.398.229-.815.41-1.242.573-.4.152-.801.304-1.146.587zm-1.582.001c-.377-.317-.83-.468-1.275-.635-.66-.247-1.257-.618-1.865-.97-.786-.455-1.581-.893-2.41-1.264-.436-.196-.885-.284-1.366-.212-.553.084-1.104.014-1.651-.076-.27-.044-.487-.204-.687-.381-.137-.121-.122-.307.029-.44.094-.084.199-.156.31-.214.53-.274 1.056-.555 1.595-.808.515-.242 1.042-.456 1.567-.673.58-.238 1.181-.389 1.81-.36.454.02.887.132 1.25.438.19.16.372.33.41.596.028.199.054.401.05.601-.009.391.048.78.167 1.152.178.563.518 1.015.989 1.35.373.265.773.489 1.163.729.146.09.299.171.444.264.134.086.15.166.076.305a1.532 1.532 0 01-.606.598zm17.453 14.29v-8.916c.077-.005.141-.012.205-.012h1.743c.238 0 .24 0 .24.247v8.48c0 .206-.01.216-.213.217-.595.002-1.189.002-1.783 0-.057 0-.116-.01-.192-.016z"/><path d="M15.774 13.736l1.921.559c-.128.06-.27.125-.411.194-.274.133-.485.34-.665.588-.414.57-.14 1.256.28 1.52.201.127.408.256.63.336.37.134.752.24 1.135.338.165.042.34.043.51.052.58.033 1.163.032 1.739.097.92.104 1.784.36 2.41 1.138.289.36.438.776.547 1.216.122.488.058.96-.122 1.42a.933.933 0 01-.31.434c-.224.164-.443.334-.667.503-.396-.267-.727-.61-1.23-.718.203-.08.369-.145.532-.213.677-.28.78-1.036.436-1.585-.285-.454-.704-.706-1.22-.818a4.553 4.553 0 00-1.141-.081 9.507 9.507 0 01-2.085-.174c-.42-.078-.83-.212-1.237-.349-.799-.27-1.404-.784-1.777-1.56a.966.966 0 01-.105-.404c0-.355 0-.716.057-1.065.091-.57.426-1.015.773-1.428zm-4.161-9.248c-.407.153-.811.317-1.223.457-.913.31-1.828.615-2.746.908-.542.172-1.101.269-1.664.345-.444.06-.886.145-1.332.18-.742.059-1.486.107-2.23-.014-.379-.062-.754-.13-1.11-.283-.39-.168-.667-.464-.918-.841.154-.025.275-.047.396-.062.478-.057.957-.108 1.434-.17a27.203 27.203 0 002.378-.396c.78-.172 1.562-.327 2.343-.487a12.1 12.1 0 001.446-.413c.256-.088.521-.145.78-.22.1-.029.162-.009.205.094.211.51.646.702 1.133.81.187.04.377.064.568.074.176.012.352.002.529.002l.01.016zm16.711-.043a.445.445 0 01.08 0c.33.06.658.01.98-.046.382-.067.743-.198.995-.525.065-.084.112-.181.164-.274.07-.128.08-.14.218-.101.305.083.614.158.913.26.626.213 1.268.365 1.914.496.8.162 1.598.344 2.402.488.694.124 1.394.213 2.092.31.455.063.915.11 1.372.167.011.001.02.014.052.037-.056.085-.104.18-.17.257-.256.298-.553.535-.935.65a5.224 5.224 0 01-1.18.23c-.342.022-.685.044-1.027.038a12.534 12.534 0 01-1.849-.171c-.545-.091-1.095-.167-1.632-.3a23.099 23.099 0 01-1.8-.543c-.787-.265-1.567-.555-2.35-.836-.085-.03-.167-.072-.25-.108l.01-.029zM21.95 12.2c.43-.046.85-.157 1.248-.328.36-.154.698-.354 1.008-.594a.692.692 0 00.245-.334c.238-.734.147-1.419-.297-2.05a2.359 2.359 0 00-.26-.302c-.2-.202-.443-.291-.723-.237-.284.055-.57.108-.828.256a.698.698 0 01-.442.081c-.374-.048-.742-.123-1.082-.299-.1-.05-.194-.113-.28-.186-.112-.101-.126-.213-.05-.345.05-.087.112-.167.184-.236.565-.527 1.219-.758 1.985-.601.419.085.843.15 1.258.257.291.076.572.2.853.315.103.045.199.106.284.18.179.149.35.307.523.463.385.345.588.788.663 1.295.027.186.034.374.051.562.05.545-.097 1.047-.305 1.543-.237.57-.633.984-1.147 1.293-.142.085-.29.162-.432.246-.076.045-.14.042-.218-.009-.564-.371-1.191-.6-1.82-.824-.13-.047-.26-.091-.418-.146zm-.396-4.568c.118 0 .228-.073.228-.15 0-.078-.116-.15-.23-.149-.128.002-.224.067-.222.15 0 .085.1.15.224.149z"/><path d="M21.794 25.898c-.287-.275-.64-.413-1.027-.498.254-.137.493-.26.725-.395.249-.145.428-.354.508-.642a.806.806 0 00.008-.458 3.775 3.775 0 00-.174-.492 1.065 1.065 0 00-.504-.522c-.48-.237-.977-.351-1.514-.272-.2.03-.409.017-.613.01-.72-.023-1.418-.15-2.057-.502-.393-.215-.729-.505-.945-.921a1.81 1.81 0 01-.19-.691c-.059-.638.134-1.208.421-1.756.148-.283.262-.316.545-.19.368.165.74.32 1.179.393-.067.052-.105.093-.152.117-.414.212-.627.56-.678 1.021-.007.06-.027.118-.033.178-.035.355.094.626.394.819.3.192.633.298.982.35.305.047.614.084.922.106.269.02.54.005.808.023.33.023.655.077.965.202.288.117.561.269.813.454.18.127.326.298.425.497.082.168.18.329.262.497.227.468.221.941.034 1.424-.213.552-.606.932-1.104 1.248zm3.994-20.872c.215-.208.467-.373.742-.487.317-.133.646-.111.975-.096.04.003.078.014.113.033.981.515 2.007.918 3.053 1.271.57.192 1.132.407 1.708.573.614.176 1.243.294 1.875.392a9.527 9.527 0 001.772.118c.046 0 .092.006.137.016.024.005.045.02.108.051-.137.07-.244.13-.354.18-.362.17-.747.26-1.137.327a9.72 9.72 0 01-2.463.091c-1.184-.099-2.316-.413-3.428-.83-.913-.344-1.778-.782-2.627-1.261a1.289 1.289 0 01-.183-.118c-.092-.075-.178-.159-.29-.26zM3.651 6.868c.115-.016.19-.032.266-.036.099-.005.198-.005.297-.001.416.015.831-.015 1.24-.091.584-.105 1.173-.19 1.748-.333.568-.142 1.125-.336 1.68-.528.636-.22 1.267-.457 1.896-.7.333-.13.656-.284.98-.433.18-.082.355-.177.533-.264a.333.333 0 01.112-.038c.469-.043.923-.006 1.331.27.136.09.282.17.384.32-.124.142-.27.261-.433.353-.7.39-1.396.79-2.146 1.079-.857.33-1.716.653-2.619.838-.912.19-1.843.263-2.773.216-.567-.03-1.13-.1-1.675-.274-.238-.076-.466-.186-.697-.283-.034-.014-.06-.045-.124-.095z"/><path d="M16.218 6.108c-.318.176-.609.347-.907.5-.865.448-1.74.874-2.637 1.252a6.235 6.235 0 01-1.987.491 5.682 5.682 0 01-2.244-.256 1.26 1.26 0 01-.468-.245l.507-.088c1.534-.26 2.996-.74 4.371-1.487.273-.148.555-.282.83-.424.261-.133.513-.28.724-.488.119-.119.235-.142.407-.078.38.137.74.324 1.072.556.108.075.206.164.332.267zm7.495-.008c.37-.329.797-.586 1.257-.76.056-.021.116-.033.167-.062.128-.072.236-.054.339.05.317.317.713.505 1.103.702.507.257 1.015.515 1.533.75.912.415 1.87.69 2.847.893.315.065.633.115.964.175-.04.089-.118.11-.186.141-.306.15-.634.23-.964.292-.647.122-1.296.098-1.949.03-.642-.067-1.226-.304-1.809-.553a29.824 29.824 0 01-3.162-1.572 2.236 2.236 0 01-.14-.087zm-3.79-2.726c-.828.054-1.644-.694-1.661-1.638C18.246.808 18.957.014 19.898 0c1-.015 1.671.845 1.682 1.67.014.963-.812 1.76-1.657 1.704zm-1.451 19.524c-.119.174-.24.333-.343.503-.299.495-.252 1.174.237 1.538.173.134.36.247.558.338.328.145.682.197 1.034.258.363.062.728.124 1.082.225.396.113.699.384.907.739.087.148.121.341.137.518.049.55-.06 1.084-.174 1.617-.126.59-.251 1.182-.382 1.771-.092.418-.246.808-.525 1.138-.173.204-.352.272-.605.22.062-.043.113-.08.167-.114a.885.885 0 00.361-.465c.122-.329.189-.672.233-1.018.07-.56.133-1.12.194-1.68.03-.28.067-.563.066-.844 0-.225-.04-.454-.09-.675a.609.609 0 00-.364-.426 2.81 2.81 0 00-.916-.23c-.334-.032-.67-.063-1-.123a3.01 3.01 0 01-1.404-.66c-.6-.503-.878-1.414-.646-2.091.076-.223.154-.445.247-.66.092-.215.176-.231.393-.152.266.097.538.177.833.273zm22.472 1.009c-.03.087-.061.173-.09.26l-1.201 3.524c-.017.05-.04.1-.054.152-.025.105-.094.132-.191.133-.098 0-.155-.034-.189-.135-.22-.662-.446-1.323-.67-1.983l-.625-1.827c-.014-.043-.037-.081-.065-.14-.068.076-.044.152-.044.219a1594.67 1594.67 0 00-.002 3.593v.24c-.062.014-.1.028-.136.03-.205.013-.228-.008-.228-.218v-4.32c0-.199.007-.206.2-.208.384-.003.312-.02.416.287l1.218 3.56c.025.074.06.144.09.217l.044.005c.028-.062.062-.121.084-.186a17862.889 17862.889 0 011.25-3.677c.021-.063.05-.123.08-.195h.528c.01.06.015.12.018.18v4.362c0 .174-.154.262-.307.176-.028-.016-.047-.06-.054-.096-.009-.053-.003-.108-.003-.162l-.001-3.594v-.19l-.068-.007zM59.35 27.97c-.131 0-.25.013-.363-.006-.052-.009-.108-.071-.139-.123-.28-.472-.556-.947-.832-1.42a1250.32 1250.32 0 01-1.326-2.285.614.614 0 00-.14-.17c-.055.444-.032.883-.037 1.32-.004.438 0 .876 0 1.313v1.346c-.062.012-.111.028-.161.03-.183.006-.202-.013-.202-.205v-4.342c0-.191.01-.19.206-.203.177-.013.281.046.376.212.688 1.202 1.39 2.397 2.087 3.595.04.066.084.129.125.193l.049-.012c.003-.076.009-.152.009-.227v-3.474c0-.306.028-.328.35-.254l-.002 4.712zm-26.903-2.38c-.023-.5.055-.989.28-1.442.274-.554.692-.944 1.309-1.03 1.137-.156 1.892.388 2.204 1.415.24.79.231 1.595-.088 2.369-.248.602-.67 1.03-1.319 1.166-.879.186-1.644-.142-2.08-.971-.245-.469-.328-.975-.306-1.508zm3.572.016c0-.121.008-.243-.001-.364a2.497 2.497 0 00-.33-1.088c-.567-.963-1.98-1.028-2.569.026-.19.341-.282.709-.316 1.093-.053.572.003 1.134.263 1.651.269.537.697.857 1.307.863.673.007 1.145-.347 1.438-.982.173-.378.218-.786.208-1.2zm-4.442-1.044h-.315a1.21 1.21 0 01-.04-.113c-.138-.565-.498-.894-1.053-.984-.525-.086-1.015.002-1.404.413-.252.265-.38.595-.454.95a3.646 3.646 0 00.043 1.697c.137.523.409.946.93 1.154.553.22 1.287.1 1.661-.347.145-.175.247-.383.297-.606.067-.28.068-.28.366-.245.007.026.024.058.02.087-.109.87-.64 1.426-1.458 1.531-.39.05-.765.02-1.123-.137-.578-.256-.897-.741-1.057-1.335a3.854 3.854 0 01-.01-2.013c.164-.621.488-1.136 1.1-1.365.684-.255 1.365-.228 1.975.235.317.24.481.58.535.977.003.024-.007.051-.013.1zm23.685 3.4c-.08.006-.132.013-.184.013-.166 0-.183-.012-.24-.178-.132-.373-.261-.747-.394-1.12-.057-.162-.06-.165-.225-.165a406.89 406.89 0 00-1.781 0c-.166 0-.168.003-.227.162-.128.346-.253.693-.377 1.04-.103.288-.12.299-.45.234.03-.089.056-.177.087-.264l1.55-4.272c.065-.178.072-.184.254-.187h.1c.178.003.183.007.244.172l.475 1.304 1.115 3.083c.016.05.03.1.053.178zm-1.04-1.825c-.062-.326-.804-2.331-.921-2.48-.03.06-.058.109-.077.16-.258.718-.516 1.437-.772 2.155-.019.052-.017.112-.024.164.158.044 1.282.066 1.655.037.043-.003.086-.021.14-.036zm-11.583-2.895c.09-.007.142-.015.195-.015.528 0 1.056-.009 1.584.006.185.006.367.042.54.106.395.141.63.442.686.862.032.227.032.457-.002.683-.07.436-.34.716-.745.863a2.282 2.282 0 01-.778.127c-.284 0-.568 0-.852.002-.077 0-.155.011-.26.02l-.004.69v1.347c-.044.018-.068.033-.092.035-.252.027-.272.008-.272-.248v-4.478zm.378.31v1.963c.055.01.11.016.165.02.35 0 .7.004 1.05-.006a1.84 1.84 0 00.41-.062c.385-.099.62-.343.657-.757.012-.146.01-.294-.009-.44a.73.73 0 00-.562-.655 2.372 2.372 0 00-.545-.082c-.31-.013-.62-.004-.931-.002-.071 0-.142.012-.235.021zM19.362 10.254c0-.33-.013-.66.005-.988.01-.185.065-.368.112-.549.09-.356.046-.315.403-.317.388-.003.385 0 .497.379.067.225.098.46.092.695-.01.49-.006.981-.013 1.472-.004.275-.018.55-.031.825-.007.142-.027.163-.167.167-.218.005-.436.004-.654.001-.178-.002-.19-.015-.195-.195l-.04-1.49h-.009z"/><path d="M19.375 31.742a.36.36 0 01-.365-.043c-.163-.112-.272-.272-.373-.439-.187-.308-.28-.65-.356-1-.147-.682-.292-1.365-.432-2.05a4.653 4.653 0 01-.099-1.162 1.25 1.25 0 01.383-.859l.688.355c-.052.048-.1.088-.142.134a.914.914 0 00-.23.589 6.75 6.75 0 00.007.846c.036.475.09.95.146 1.423.059.493.108.988.25 1.467.083.278.195.53.466.671.02.01.031.036.057.069zm.755-5.077c.01.077.019.117.018.157-.01.537-.022 1.076-.03 1.614-.008.424-.008.848-.015 1.272-.012.84-.025 1.681-.04 2.522a.844.844 0 00.063.33c.139.355.137.708-.05 1.05a.913.913 0 00-.054.15 1.213 1.213 0 01-.101.242c-.07-.268-.241-.488-.27-.767a1.427 1.427 0 01.091-.73.598.598 0 00.035-.235c-.011-.84-.026-1.681-.038-2.522-.008-.485-.009-.97-.017-1.454-.007-.471-.021-.942-.03-1.412-.003-.21.004-.213.212-.214.07-.003.14-.003.227-.003zm43.261-3.151c-.467.043-.928-.015-1.411.038v4.21c-.002.195-.114.273-.293.2a.13.13 0 01-.066-.085c-.012-.059-.006-.122-.006-.182v-4.131c-.243-.064-.475-.027-.702-.033-.227-.007-.46-.002-.706-.002v-.323h3.184v.308zm-16.621-.275h.335c.035.213.013.42.017.625.004.208 0 .417 0 .626v3.13c.27.031.526.012.78.015.263.004.527 0 .792 0h.787v.324c-.073.006-.143.016-.213.016a1079.298 1079.298 0 01-2.395-.002c-.07-.003-.11-.038-.112-.111v-4.421c-.001-.06.005-.118.01-.202zm-27.272-6.302c.016-.89-.064-1.746-.03-2.617h.902c.046.864-.052 1.724-.024 2.607-.285.031-.55.02-.848.01zm.119-12.797c-.106 0-.19.003-.273 0-.16-.006-.236-.08-.238-.232-.002-.146.075-.229.236-.23.389-.004.778-.003 1.166.002.155.001.224.074.23.216.005.153-.065.228-.228.24-.09.008-.18.014-.271.021 0 .24-.007.46.002.678.012.288.037.576.056.863.005.082-.031.127-.115.127-.158 0-.316.003-.474 0-.157-.003-.173-.03-.162-.196.026-.382.05-.763.07-1.145.006-.101.002-.202.002-.344zm31.005 23.81a.362.362 0 01-.067.02c-.254.023-.271.008-.271-.25v-4.262c0-.027.002-.054 0-.081-.007-.1.033-.153.136-.15h.188c.049.157.058 4.498.014 4.722zm-31.046-6.733c0-.204.003-.371 0-.538-.01-.477-.024-.954-.035-1.43-.001-.054-.009-.111.006-.16.011-.037.053-.09.083-.091.19-.009.382-.007.573-.004.077 0 .097.056.097.124 0 .182 0 .364-.003.546l-.032 1.29c-.002.053 0 .107-.004.16-.003.063-.034.103-.099.104h-.586zm.084 3.947l-.05-2.26c.19 0 .353-.003.515 0 .06 0 .095.04.096.105 0 .034.002.068.001.101l-.04 1.958a.734.734 0 01-.014.091c-.159.047-.318.036-.507.005z"/></g><defs><clipPath id="clip0_298_754"><path fill="#fff" transform="translate(.391)" d="M0 0h63v34H0z"/></clipPath></defs></svg>