<svg width="148" height="41" fill="none" xmlns="http://www.w3.org/2000/svg"><g clip-path="url(#clip0_329_848)"><path d="M20.972 37.525c-2.21.388-4.46.504-6.788.814L7.086 17.573V39.23c-2.21.232-4.228.542-6.322.852V.41H6.66l8.067 22.51V.41h6.245v37.115zM33.19 14.938c2.405 0 6.09-.116 8.3-.116v6.199c-2.753 0-5.973 0-8.3.116v9.22c3.646-.232 7.292-.542 10.977-.658v5.966l-17.183 1.356V.411h17.183v6.198H33.19v8.33zM67.246 6.61h-6.439v28.514c-2.095 0-4.19 0-6.206.078V6.608h-6.438V.41h19.083v6.2zm10.084 7.903h8.495v6.199H77.33v14.064h-6.09V.41h17.34v6.2H77.33v7.903zM98.664 29.35c3.529.078 7.098.35 10.55.543v6.121c-5.547-.349-11.093-.697-16.756-.814V.41h6.206v28.94zm15.786 7.09c1.978.117 4.073.233 6.09.465V.41h-6.09v36.03zM147.73.41l-7.874 18.868 7.874 20.804c-2.327-.31-4.654-.736-6.982-1.123l-4.46-11.468-4.538 10.538c-2.25-.388-4.422-.504-6.671-.814l7.99-18.17L125.854.41h6.671l4.073 10.422L140.942.41h6.788z" fill="#716E98"/></g><defs><clipPath id="clip0_329_848"><path fill="#fff" transform="translate(.764 .41)" d="M0 0h146.967v39.672H0z"/></clipPath></defs></svg>