<svg width="118" height="42" fill="none" xmlns="http://www.w3.org/2000/svg"><g clip-path="url(#clip0_329_850)" fill="#716E98"><path d="M7.516 29.486c.492 1.31 1.172 2.431 2.042 3.362.87.93 1.9 1.643 3.09 2.137 1.191.494 2.486.74 3.885.74a9.573 9.573 0 003.828-.769 9.416 9.416 0 003.119-2.165c.888-.931 1.578-2.042 2.07-3.334.491-1.292.737-2.735.737-4.33V.507h5.955v39.89h-5.898v-3.704a13.67 13.67 0 01-4.679 3.248c-1.796.76-3.733 1.14-5.813 1.14-2.117 0-4.092-.37-5.926-1.111a13.871 13.871 0 01-4.763-3.163c-1.343-1.368-2.401-3.01-3.176-4.93-.775-1.918-1.163-4.055-1.163-6.41V.508H6.78v24.618c0 1.596.245 3.049.737 4.36zM42.506.508V15.04a15.167 15.167 0 014.593-3.163c1.74-.779 3.63-1.168 5.671-1.168 2.117 0 4.102.399 5.955 1.196 1.852.798 3.459 1.88 4.82 3.249 1.361 1.367 2.439 2.982 3.233 4.843.794 1.862 1.19 3.837 1.19 5.927 0 2.09-.396 4.055-1.19 5.898-.794 1.842-1.872 3.448-3.233 4.815-1.361 1.368-2.968 2.45-4.82 3.248-1.853.798-3.838 1.197-5.955 1.197-2.041 0-3.941-.39-5.699-1.168a15.064 15.064 0 01-4.622-3.163v3.647h-5.67V.508h5.727zm.652 29.348a9.917 9.917 0 002.127 3.191 10.261 10.261 0 003.175 2.166c1.21.532 2.514.797 3.913.797a9.477 9.477 0 003.857-.797 9.92 9.92 0 003.147-2.166 10.573 10.573 0 002.127-3.191c.529-1.216.794-2.526.794-3.932a9.945 9.945 0 00-.794-3.96 10.477 10.477 0 00-2.127-3.22 9.545 9.545 0 00-3.147-2.137 9.779 9.779 0 00-3.857-.77 9.776 9.776 0 00-3.856.77 9.87 9.87 0 00-3.176 2.137 10.223 10.223 0 00-2.155 3.22 9.945 9.945 0 00-.794 3.96c0 1.406.255 2.716.766 3.932zM71.2 20.055a15.51 15.51 0 013.12-4.816 14.491 14.491 0 014.706-3.276c1.815-.798 3.781-1.197 5.898-1.197 2.08 0 4.008.38 5.785 1.14 1.777.76 3.308 1.814 4.593 3.162 1.286 1.349 2.288 2.945 3.006 4.787.718 1.843 1.077 3.847 1.077 6.012v1.88H75.851a9.87 9.87 0 003.26 5.898 9.739 9.739 0 002.893 1.739 9.405 9.405 0 003.43.627c3.441 0 6.22-1.425 8.337-4.275l4.14 3.078a15.421 15.421 0 01-5.33 4.559c-2.118 1.101-4.5 1.652-7.146 1.652-2.155 0-4.168-.38-6.04-1.14-1.871-.76-3.497-1.823-4.877-3.19a15.141 15.141 0 01-3.26-4.816c-.795-1.843-1.192-3.847-1.192-6.012 0-2.052.378-3.989 1.134-5.813zm7.968-2.252c-1.607 1.35-2.675 3.144-3.204 5.386h17.637c-.492-2.242-1.54-4.037-3.147-5.386-1.607-1.348-3.488-2.022-5.643-2.022s-4.036.674-5.643 2.022zm30.935.656c-1.21 1.33-1.815 3.134-1.815 5.413v16.526h-5.727V11.336h5.671v3.59a8.077 8.077 0 012.807-2.792c1.153-.684 2.523-1.026 4.111-1.026h1.985v5.356h-2.382c-1.89 0-3.44.665-4.65 1.995z"/></g><defs><clipPath id="clip0_329_850"><path fill="#fff" transform="translate(.824 .508)" d="M0 0h116.311v40.574H0z"/></clipPath></defs></svg>