<svg width="148" height="57" fill="none" xmlns="http://www.w3.org/2000/svg"><path d="M29.402 9.453L28 9.88l-2.315-7.57 1.401-.428 2.316 7.57zm8.148-8.422l-3.096 7.904-1.22-.006L30.21 1l1.54.006 2.102 6.033 2.157-6.013 1.54.006zM94.333 8.7l-1.29.697-2.817-5.215 1.057 6.166-1.092.59-4.577-4.264 2.817 5.215-1.29.697-3.763-6.965 1.751-.946 4.724 4.33-1.034-6.324 1.75-.946 3.764 6.966zm5.599-.538l-4.222.473-.88-7.868 4.222-.472.158 1.415-2.764.309.203 1.818 2.648-.296.158 1.415-2.648.294.202 1.807 2.765-.308.158 1.413zm7.525 1.46l-1.424-.35-2.154-6.036-1.274 5.196-1.424-.35 1.886-7.688 1.424.35 2.154 6.036 1.274-5.195 1.424.35-1.886 7.687zm7.71-3.074l-1.282-.711-3.146 5.682-1.282-.71 3.146-5.681-1.282-.71.689-1.246 3.848 2.13-.691 1.246zM11.027 44.78c0 4.634-1.42 7.902-4.256 9.805-1.69 1.114-3.646 1.67-5.873 1.67v-6.949c1.293.179 2.156-.306 2.587-1.455.25-.646.377-1.671.377-3.071V16.44h7.165v28.34zm0-31.788H3.86V6.42h7.165v6.572h.002zM49.074 29.26c0 4.366-1.508 8.089-4.524 11.168-3.018 3.079-6.789 4.617-11.315 4.617-4.49 0-8.252-1.53-11.287-4.591-3.035-3.06-4.552-6.793-4.552-11.196s1.5-8.153 4.499-11.25c2.998-3.096 6.779-4.644 11.34-4.644 4.525 0 8.297 1.539 11.315 4.618 3.015 3.08 4.524 6.839 4.524 11.277zm-7.166 0c0-2.536-.79-4.686-2.37-6.454-1.582-1.768-3.682-2.652-6.304-2.652-2.586 0-4.679.884-6.277 2.652-1.599 1.768-2.397 3.92-2.397 6.453 0 2.535.79 4.668 2.37 6.4 1.58 1.733 3.682 2.598 6.304 2.598 2.55 0 4.634-.875 6.25-2.625 1.616-1.75 2.424-3.875 2.424-6.373zm40.485-9.884c0 4.367-1.508 8.09-4.525 11.168-3.017 3.08-6.788 4.617-11.314 4.617-4.49 0-8.253-1.529-11.287-4.59-3.035-3.06-4.552-6.794-4.552-11.196 0-4.403 1.5-8.153 4.498-11.25 3-3.096 6.78-4.645 11.341-4.645 4.525 0 8.297 1.54 11.314 4.618 3.017 3.08 4.525 6.84 4.525 11.278zm-7.165 0c0-2.535-.79-4.685-2.37-6.453-1.582-1.768-3.682-2.652-6.304-2.652-2.586 0-4.679.884-6.277 2.652-1.599 1.768-2.397 3.92-2.397 6.453 0 2.535.79 4.668 2.37 6.4 1.58 1.733 3.682 2.597 6.304 2.597 2.55 0 4.634-.875 6.25-2.624 1.617-1.75 2.424-3.875 2.424-6.373zm40.912 10.341c.078 3.465-.728 6.542-2.419 9.234-1.691 2.69-4.235 4.677-7.628 5.957-4.907 1.851-9.401 1.691-13.483-.48-3.594-1.895-6.13-4.804-7.609-8.723-1.402-3.717-1.417-7.422-.047-11.116 1.597-4.313 4.833-7.39 9.706-9.227 3.46-1.306 6.78-1.512 9.957-.621 3.177.893 5.813 2.69 7.91 5.397l-7.562 2.853c-1.107-1.003-2.342-1.603-3.701-1.8-1.361-.197-2.797-.01-4.308.56-2.59.976-4.325 2.557-5.208 4.74-.886 2.184-.886 4.446-.004 6.784.919 2.44 2.444 4.191 4.574 5.258 2.13 1.066 4.472 1.118 7.026.154 1.579-.597 2.793-1.4 3.64-2.41.847-1.01 1.378-2.247 1.594-3.71l7.562-2.85zm31.394-13.276l-17.133 39.816h-7.704l5.495-12.77-10.937-27.046h8.136l6.841 19.127 7.167-19.127h8.135zM55.717 40.54l-1.245-.773-3.426 5.518-1.245-.774 3.425-5.518-1.245-.774.75-1.208 3.736 2.32-.75 1.21zm3.939 8.226l-1.722-.552-1.064-3.408-.912 2.775-1.396-.448 2.418-7.54 2.18.7c1.101.353 1.79.914 2.067 1.685.18.507.18 1.046-.002 1.616-.198.62-.555 1.092-1.073 1.42-.517.329-1.091.426-1.722.29l1.226 3.462zm.147-5.538c.15-.469.063-.852-.26-1.15-.185-.173-.444-.31-.777-.418l-.824-.266-.719 2.241.825.266c.34.108.627.148.86.118.443-.051.741-.316.895-.791zm6.874 5.99l-4.247-.108.201-7.915 4.247.108-.036 1.422-2.78-.07-.046 1.829 2.663.067-.035 1.422-2.664-.067-.046 1.818 2.78.071-.037 1.422zm10.194-2.315l-1.55.456-1.357-1.731-2.792.82-.204 2.19-1.55.456.93-8.524 1.13-.333 5.393 6.666zm-3.84-2.485l-1.514-1.963-.211 2.47 1.725-.507zm6.033-6.232l-1.277.718 3.187 5.659-1.277.72-3.186-5.659-1.277.718-.699-1.24 3.832-2.157.697 1.24z" fill="#716E98"/></svg>