<svg width="44" height="54" fill="none" xmlns="http://www.w3.org/2000/svg"><path d="M10.626 15.267a.756.756 0 01-.763-.763V6.046c0-.428.335-.764.763-.764h5.1c.427 0 .762.336.762.764a.756.756 0 01-.763.763H11.39v7.695a.756.756 0 01-.763.763zM43.237 50.81h-27.94a.756.756 0 01-.763-.764c0-.428.336-.764.764-.764h27.175V6.81h-4.58a.756.756 0 01-.763-.763c0-.428.336-.764.763-.764h5.344c.427 0 .763.336.763.764v44a.776.776 0 01-.763.763zM30.718 10.626H22.87a5.395 5.395 0 01-5.404-5.405c0-.427.335-.763.763-.763h4.427v-.153C22.626 1.924 24.55 0 26.931 0a4.3 4.3 0 014.306 4.305v.153h4.122c.427 0 .763.336.763.763 0 2.962-2.443 5.405-5.404 5.405zM19.053 5.985a3.899 3.899 0 003.817 3.114h7.848a3.899 3.899 0 003.816-3.114h-4.183a.797.797 0 01-.61-.306c-.153-.183-.184-.427-.123-.671a3.18 3.18 0 00.092-.703 2.789 2.789 0 00-2.779-2.778 2.789 2.789 0 00-2.778 2.778c0 .214.03.428.091.703.061.244 0 .458-.122.671a.797.797 0 01-.61.306h-4.459zM18.9 22.137a.878.878 0 01-.549-.213l-2.778-2.81a.774.774 0 010-1.099c.305-.305.793-.305 1.068 0l2.26 2.26 4.213-4.214c.306-.305.794-.305 1.07 0 .304.305.304.794 0 1.069l-4.734 4.763a.765.765 0 01-.55.244zm0 9.741a.878.878 0 01-.549-.214l-2.778-2.81c-.306-.304-.306-.793 0-1.068a.738.738 0 011.068 0l2.26 2.26 4.213-4.214c.306-.305.794-.305 1.07 0 .304.305.304.794 0 1.069l-4.734 4.733a.765.765 0 01-.55.244z" fill="#2B1FC7"/><path d="M18.9 41.618a.878.878 0 01-.549-.213l-1.19-1.191c-.306-.306-.306-.794 0-1.069.305-.305.793-.305 1.068 0l.641.641 4.214-4.214c.305-.305.794-.305 1.069 0 .305.306.305.794 0 1.07l-4.733 4.732a.652.652 0 01-.52.244zm19.695-21.862H28.061a.756.756 0 01-.763-.764c0-.427.336-.763.763-.763h10.534c.428 0 .764.336.764.763a.776.776 0 01-.764.764zm0 9.74H28.061a.756.756 0 01-.763-.763c0-.428.336-.764.763-.764h10.534c.428 0 .764.336.764.764a.776.776 0 01-.764.763zm0 9.741H28.061a.756.756 0 01-.763-.764c0-.427.336-.763.763-.763h10.534c.428 0 .764.336.764.763a.776.776 0 01-.764.764zM8.428 26.565c-2.352 0-4.245-2.29-4.245-5.1 0-2.808 1.893-5.13 4.245-5.13 2.35 0 4.274 2.291 4.274 5.1 0 2.81-1.923 5.13-4.274 5.13zm0-8.733c-1.497 0-2.718 1.618-2.718 3.603s1.221 3.603 2.718 3.603c1.496 0 2.717-1.618 2.717-3.603.03-1.985-1.19-3.603-2.717-3.603zm4.213 24.336a.753.753 0 01-.702-.489.743.743 0 01.427-.977c1.802-.733 2.993-2.442 2.993-4.397V33.74a4.737 4.737 0 00-4.733-4.732H6.26a4.737 4.737 0 00-4.733 4.732v2.565c0 1.955 1.16 3.664 2.992 4.397a.754.754 0 11-.55 1.405A6.215 6.215 0 010 36.305V33.74c0-3.45 2.81-6.259 6.26-6.259h4.366a6.27 6.27 0 016.26 6.26v2.564a6.202 6.202 0 01-3.94 5.802c-.122.03-.213.061-.305.061z" fill="#2B1FC7"/><path d="M8.427 52.183a.756.756 0 01-.763-.763V41.374c0-.427.336-.763.763-.763.428 0 .764.336.764.763V51.42a.756.756 0 01-.764.763z" fill="#2B1FC7"/><path d="M6.534 53.038c-1.13 0-2.137-.55-2.687-1.038-.152-.153-.274-.366-.274-.58V32.886c0-.428.335-.764.763-.764.427 0 .763.336.763.764v18.168c.52.335 1.71.916 2.779-.153.275-.275.794-.275 1.069 0 1.068 1.069 2.26.488 2.778.153V32.886c0-.428.336-.764.764-.764.427 0 .763.336.763.764V51.42a.752.752 0 01-.275.58c-.855.733-2.81 1.649-4.58.428-.58.427-1.252.61-1.863.61z" fill="#2B1FC7"/></svg>