<svg width="44" height="51" fill="none" xmlns="http://www.w3.org/2000/svg"><path d="M20.586 30.01c-.412 0-.736-.235-1.237-.588-.176-.118-.353-.265-.589-.413-5.183-3.563-7.392-5.124-7.392-5.124-.118-.088-.53-.354-.618-.854-.03-.206-.03-.53.235-.913l.354-.5c.56-.796.854-1.267 1.413-1.355.471-.089.825.117 1.326.441l5.949-8.54c3.24-4.624 3.24-4.624 3.416-4.86l.059-.088c.825-1.149 2.003-1.62 3.446-1.385.03 0 .059-.029.059-.029 1.09-1.502 1.855-2.65 2.415-3.475C30.57.619 30.924.117 31.572 0c.5-.088.883.236 1.119.412.56.442 1.03.737 1.384 1.002.589.383 1.03.677 1.148 1.207.089.471-.147.884-.382 1.208-.707.972-1.385 1.944-2.062 2.945l-1.414 2.032c-.058.03-.058.03-.088.059 0 0 0 .03.03.03.795 1.207.765 2.503-.089 3.74l-9.424 13.459c.442.265.824.53.942 1.001.118.53-.206 1.002-.324 1.149-.206.265-.353.5-.47.677-.413.59-.649.972-1.15 1.06-.088.03-.147.03-.206.03zm-8.246-7.244c.5.353 2.739 1.914 7.274 5.036.236.177.442.294.619.442.088.059.206.147.294.206.06-.088.148-.206.207-.324.117-.177.265-.412.47-.648-.117-.088-.235-.147-.323-.206a4.757 4.757 0 01-.53-.295.813.813 0 01-.354-.47.829.829 0 01.118-.59l9.896-14.137c.5-.706.53-1.384.059-2.061-.501-.795-.207-1.384.058-1.767.472-.677.943-1.325 1.414-2.003.677-1.001 1.384-1.973 2.091-2.974.03-.03.03-.03.03-.06a2.184 2.184 0 00-.383-.264c-.383-.265-.884-.59-1.532-1.09-.235.265-.648.854-1.119 1.56-.56.826-1.355 1.974-2.474 3.535-.265.383-.883.736-1.413.619-.884-.177-1.532.058-2.033.765l-.088.089c-.177.265-.177.265-3.387 4.859l-6.39 9.16c-.236.353-.707.441-1.031.206l-.324-.236c-.177-.118-.354-.265-.472-.324-.117.147-.294.412-.47.648l-.207.324zm22.942 5.684a.752.752 0 01-.706-.56 14.388 14.388 0 00-3.947-6.803c-.442-.412-.56-.972-.677-1.502-.118-.5-.236-.972-.56-1.384a.74.74 0 01.089-1.031.74.74 0 011.03.088c.56.707.737 1.414.884 2.003.088.353.147.648.265.766 2.12 2.09 3.622 4.682 4.33 7.51.088.383-.148.795-.53.883-.06.03-.119.03-.178.03zm-.706 22.088H7.51c-1.738 0-2.238-.5-2.238-2.238 0-1.237 0-1.944.471-2.415.5-.5 1.178-.5 2.444-.5h5.095c-2.385-1.326-4.3-3.093-5.83-5.39-1.238 0-2.24 0-3.064.03-2.945.029-3.563.029-4.035-.443C.03 39.258 0 38.846 0 38.522c0-.206 0-.412-.03-.56-.029-.589-.058-1.148.383-1.62.648-.677 1.767-.677 6.45-.618 2.621.03 6.185.06 11.31.03.382 0 .883.03 1.266.441.412.442.324 1.031.324 1.237-.03.383-.03.678 0 .913.03.413.059.884-.324 1.237-.471.471-1.12.471-3.534.442h-.943c2.68 1.767 5.92 2.209 8.924 1.267a.727.727 0 01.442 1.384c-3.593 1.148-7.48.5-10.603-1.738a.355.355 0 01-.147-.147c-.236-.295-.854-.736-1.12-.884a.715.715 0 01-.323-.824c.088-.324.412-.53.736-.53 1.267 0 2.268 0 3.063.029 1.09 0 1.973.03 2.386-.03v-.117c0-.295-.03-.678.03-1.149v-.03h-.09c-5.124.06-8.717 0-11.338-.029-2.945-.03-4.918-.059-5.36.148v.53c0 .176.03.382.03.618v.03c.441.058 1.501.058 2.886.029.913 0 2.061-.03 3.475-.03.265 0 .5.118.618.354 2.003 3.151 4.8 5.301 8.6 6.567.354.118.56.472.5.825a.733.733 0 01-.736.619H8.187c-.618 0-1.266 0-1.413.088-.03.088-.03.736-.03 1.355 0 .56.03.707.06.765 0-.029.146 0 .706 0h27.066a.73.73 0 01.736.737c0 .353-.324.677-.736.677zm-3.122-21.411a.725.725 0 01-.707-.53c-.53-1.649-1.532-2.974-2.621-4.388-.03 0-.088-.03-.118-.03a5.903 5.903 0 01-1.443 0 .732.732 0 01-.619-.824c.03-.412.413-.678.825-.648.383.059.795.059 1.06 0 .442-.03 1.09.118 1.414.53 1.178 1.532 2.297 2.975 2.886 4.919a.721.721 0 01-.5.912c-.03.06-.118.06-.177.06z" fill="#2B1FC7"/><path d="M34.487 48.33c-5.242 0-9.513-4.271-9.513-9.513 0-5.243 4.271-9.513 9.513-9.513 5.243 0 9.513 4.27 9.513 9.513 0 5.242-4.27 9.512-9.513 9.512zm0-17.524c-4.417 0-8.04 3.593-8.04 8.04a8.032 8.032 0 008.04 8.04c4.418 0 8.04-3.593 8.04-8.04a8.032 8.032 0 00-8.04-8.04z" fill="#2B1FC7"/><path d="M33.28 42.97a.756.756 0 01-.53-.207l-3.476-3.475c-.294-.295-.294-.766 0-1.03.295-.295.766-.295 1.031 0l2.945 2.944 5.39-5.39c.294-.294.766-.294 1.03 0 .295.295.295.766 0 1.032l-5.89 5.89c-.117.176-.294.235-.5.235z" fill="#2B1FC7"/></svg>