<svg width="44" height="44" fill="none" xmlns="http://www.w3.org/2000/svg"><path d="M22 25.23A3.244 3.244 0 0118.77 22 3.244 3.244 0 0122 18.77 3.244 3.244 0 0125.23 22 3.244 3.244 0 0122 25.23zm0-5.245A2.01 2.01 0 0019.985 22 2.01 2.01 0 0022 24.015 2.01 2.01 0 0024.015 22 2.01 2.01 0 0022 19.985z" fill="#2B1FC7"/><path d="M22 25.23A3.244 3.244 0 0118.77 22 3.244 3.244 0 0122 18.77 3.244 3.244 0 0125.23 22 3.244 3.244 0 0122 25.23zm0-5.245A2.01 2.01 0 0019.985 22 2.01 2.01 0 0022 24.015 2.01 2.01 0 0024.015 22 2.01 2.01 0 0022 19.985z" fill="#2B1FC7"/><path d="M22 30.183A8.187 8.187 0 0113.817 22 8.187 8.187 0 0122 13.817 8.187 8.187 0 0130.183 22 8.187 8.187 0 0122 30.183zm0-15.152c-3.837 0-6.97 3.132-6.97 6.97 0 3.836 3.133 6.968 6.97 6.968 3.837 0 6.97-3.132 6.97-6.969s-3.133-6.969-6.97-6.969z" fill="#2B1FC7"/><path d="M22 40.916C11.559 40.916 3.084 32.442 3.084 22 3.084 11.56 11.559 3.084 22 3.084S40.916 11.559 40.916 22c0 10.442-8.474 18.916-18.916 18.916zm0-36.618c-9.762 0-17.702 7.94-17.702 17.702S12.238 39.702 22 39.702 39.702 31.762 39.702 22c0-9.761-7.94-17.702-17.702-17.702z" fill="#2B1FC7"/><path d="M22 44a.601.601 0 01-.607-.607V27.148c0-.34.267-.607.607-.607.34 0 .607.267.607.607v16.245c0 .34-.267.607-.607.607zm0-26.444a.601.601 0 01-.607-.607V.607c0-.34.267-.607.607-.607.34 0 .607.267.607.607V16.95c0 .34-.267.607-.607.607zm-5.148 5.051H.607A.601.601 0 010 22c0-.34.267-.607.607-.607h16.245c.34 0 .607.267.607.607 0 .34-.267.607-.607.607zm26.541 0H27.051a.601.601 0 01-.607-.607c0-.34.267-.607.607-.607h16.342c.34 0 .607.267.607.607 0 .34-.267.607-.607.607z" fill="#2B1FC7"/></svg>