<svg width="44" height="36" fill="none" xmlns="http://www.w3.org/2000/svg"><path d="M32.143 12.686h-2.286a.707.707 0 01-.714-.715c0-.4.314-.714.714-.714h1.572V1.43h-30v9.828h21.457c.4 0 .714.314.714.714 0 .4-.314.715-.714.715H.714A.707.707 0 010 11.97V.714C0 .314.314 0 .714 0h31.429c.4 0 .714.314.714.714v11.257c-.028.4-.343.715-.714.715z" fill="#2B1FC7"/><path d="M32.143 14.686a.726.726 0 01-.714-.715v-1.285h-1.572a.707.707 0 01-.714-.715c0-.4.314-.714.714-.714h2.286c.4 0 .714.314.714.714v2c-.028.372-.343.715-.714.715zm-4.972 9.257H.714A.707.707 0 010 23.228V11.972c0-.4.314-.714.714-.714h22.172c.4 0 .714.314.714.714 0 .4-.314.715-.714.715H1.429v9.828H27.17c.4 0 .715.314.715.715 0 .4-.315.714-.715.714z" fill="#2B1FC7"/><path d="M32.143 35.2H.714A.707.707 0 010 34.486V23.229c0-.4.314-.715.714-.715h26.457c.4 0 .715.315.715.715 0 .4-.315.714-.715.714H1.43v9.829h30v-5.8c0-.4.314-.715.714-.715.4 0 .714.314.714.714v6.515c-.028.4-.343.714-.714.714zM6.657 9.343a3 3 0 110-6 3 3 0 010 6zm0-4.572c-.857 0-1.571.715-1.571 1.572 0 .857.714 1.571 1.571 1.571S8.23 7.2 8.23 6.343 7.543 4.77 6.657 4.77zm0 15.829a3 3 0 110-6 3 3 0 010 6zm0-4.571c-.857 0-1.571.714-1.571 1.571s.714 1.572 1.571 1.572S8.23 18.457 8.23 17.6c0-.857-.686-1.571-1.572-1.571z" fill="#2B1FC7"/><path d="M6.657 31.857a3 3 0 110-6 3 3 0 010 6zm0-4.571c-.857 0-1.571.714-1.571 1.571S5.8 30.43 6.657 30.43s1.572-.715 1.572-1.572c0-.857-.686-1.571-1.572-1.571zM27.886 7.057h-7.172A.707.707 0 0120 6.343c0-.4.314-.714.714-.714h7.172c.4 0 .714.314.714.714 0 .4-.314.714-.714.714zm-5 11.257h-2.172A.707.707 0 0120 17.6c0-.4.314-.714.714-.714h2.2c.4 0 .715.314.715.714a.751.751 0 01-.743.714zm5 11.257h-7.172a.707.707 0 01-.714-.714c0-.4.314-.714.714-.714h7.172c.4 0 .714.314.714.714 0 .4-.314.714-.714.714zm4.457-3.228a.746.746 0 01-.572-.286l-7.6-9.885a2.856 2.856 0 01.515-4c1.257-.943 3.057-.715 4 .514l3.085 4.028 6.915-11.8c.8-1.371 2.543-1.8 3.914-1.028 1.371.8 1.8 2.543 1.029 3.914L32.943 26a.686.686 0 01-.572.343h-.028zM26.429 13c-.315 0-.6.086-.858.286a1.417 1.417 0 00-.257 2l6.943 9.057L42.4 7.057a1.41 1.41 0 00-.514-1.943 1.41 1.41 0 00-1.943.515l-7.457 12.714a.686.686 0 01-.572.343.65.65 0 01-.6-.286L27.6 13.543c-.314-.343-.743-.543-1.171-.543z" fill="#2B1FC7"/></svg>