<svg width="44" height="50" fill="none" xmlns="http://www.w3.org/2000/svg"><path d="M22 32.017a.72.72 0 01-.522-.215c-.4-.369-9.894-9.464-9.894-20.403C11.584 5.9 14.318 0 22 0c7.681 0 10.416 5.9 10.416 11.4 0 10.938-9.494 20.002-9.894 20.402a.802.802 0 01-.522.215zm0-30.48c-8.02 0-8.88 6.882-8.88 9.862 0 8.819 6.883 16.654 8.88 18.743 1.997-2.089 8.88-9.924 8.88-18.743 0-2.95-.86-9.863-8.88-9.863z" fill="#2B1FC7"/><path d="M22 17.729a6.452 6.452 0 01-6.453-6.452A6.452 6.452 0 0122 4.824a6.452 6.452 0 016.453 6.453A6.452 6.452 0 0122 17.729zM22 6.36a4.93 4.93 0 00-4.916 4.917A4.93 4.93 0 0022 16.193a4.93 4.93 0 004.916-4.917A4.93 4.93 0 0022 6.36z" fill="#2B1FC7"/><path d="M32.631 49.5c-.061 0-.123 0-.153-.03L22.03 47.195l-10.447 2.273a.632.632 0 01-.338 0L.615 47.165A.754.754 0 010 46.427V10.17c0-.245.092-.46.277-.614a.718.718 0 01.645-.154l8.296 1.813c.43.092.676.492.584.922-.062.43-.492.676-.891.584l-7.375-1.598v34.66l9.833 2.15 10.447-2.274a.632.632 0 01.338 0L32.6 47.933l9.832-2.15v-34.66l-7.344 1.598a.777.777 0 01-.921-.584.777.777 0 01.583-.922l8.297-1.813c.215-.061.46 0 .645.154a.774.774 0 01.276.614v36.257a.786.786 0 01-.614.769l-10.6 2.335c-.032-.031-.093-.031-.124-.031z" fill="#2B1FC7"/></svg>