<svg width="44" height="44" fill="none" xmlns="http://www.w3.org/2000/svg"><path d="M20.47 28.493l-8.585-.108a.672.672 0 01-.483-.214.647.647 0 01-.187-.483c.053-3.649 3.273-4.803 4.99-4.91h.054c2.038 0 3.648-1.583 3.675-3.568 0-.966-.349-1.878-1.02-2.576-.67-.697-1.582-1.073-2.548-1.1h-.054c-.939 0-1.851.376-2.522 1.02-.697.67-1.073 1.583-1.1 2.548 0 .376-.322.644-.67.671a.664.664 0 01-.671-.67c.027-1.315.536-2.576 1.502-3.488a4.635 4.635 0 013.515-1.422c1.314.027 2.575.536 3.488 1.502a4.902 4.902 0 011.395 3.515c-.027 2.736-2.308 4.91-5.017 4.883-.08 0-3.14.268-3.595 2.95l7.86.108c.376 0 .671.295.671.67a.705.705 0 01-.697.672zM30.8 22.67l-6.654-.08a.664.664 0 01-.67-.67l.08-6.976c0-.376.295-.698.67-.671.376 0 .672.295.672.67l-.054 6.333 5.983.08c.375 0 .67.295.67.67a.702.702 0 01-.697.645z" fill="#2B1FC7"/><path d="M30.72 28.6a.664.664 0 01-.671-.67l.16-12.906c0-.375.296-.67.671-.67.376 0 .671.295.671.67l-.16 12.905c0 .403-.296.67-.672.67z" fill="#2B1FC7"/><path d="M.67 22.67A.664.664 0 010 22C0 9.873 9.873 0 22 0c7.942 0 15.266 4.293 19.183 11.215a.662.662 0 01-.242.912.662.662 0 01-.912-.242A20.705 20.705 0 0022 1.341C10.598 1.341 1.341 10.624 1.341 22c0 .376-.295.67-.67.67z" fill="#2B1FC7"/><path d="M42.498 16.017c-1.69-1.744-4.132-3.783-6.252-4.776l4.052-.268 2.95-2.79c-.697 2.227-.911 5.393-.75 7.834z" fill="#000"/><path d="M42.873 16.876l-.617-.644c-1.449-1.503-3.944-3.649-6.144-4.695l-1.18-.564 5.231-.322 3.81-3.595-.402 1.234c-.725 2.334-.859 5.608-.751 7.7l.053.886zm-5.446-5.393c1.69.993 3.38 2.415 4.668 3.676-.053-1.798.08-3.998.51-5.93l-2.173 2.066-3.005.188zM22 44A22.03 22.03 0 012.79 32.732c-.188-.322-.053-.725.268-.912.322-.188.725-.054.913.268A20.698 20.698 0 0022 42.658c11.402 0 20.658-9.282 20.658-20.658 0-.375.296-.67.671-.67.376 0 .67.295.67.67 0 12.127-9.872 22-22 22z" fill="#2B1FC7"/><path d="M1.502 27.956c1.69 1.77 4.132 3.783 6.225 4.802L3.676 33 .724 35.79c.698-2.254.913-5.42.778-7.834z" fill="#000"/><path d="M0 36.89l.402-1.234c.752-2.334.886-5.607.778-7.7l-.053-.912.617.644c1.449 1.53 3.917 3.675 6.144 4.722l1.153.563-5.231.322L0 36.89zm1.878-8.102c.027 1.797-.08 4.024-.51 5.93l2.2-2.067 3.005-.188c-1.717-.992-3.407-2.414-4.695-3.675z" fill="#2B1FC7"/></svg>