<svg width="44" height="46" fill="none" xmlns="http://www.w3.org/2000/svg"><path d="M25.793 31.8c-.99 0-1.982-.186-2.941-.557-4.088-1.641-6.07-6.286-4.46-10.373a7.982 7.982 0 014.274-4.366c1.95-.867 4.118-.867 6.1-.093 4.087 1.641 6.069 6.286 4.459 10.373-1.239 3.127-4.242 5.016-7.432 5.016zm.031-14.398c-.867 0-1.734.186-2.539.526a6.253 6.253 0 00-3.437 3.5c-1.331 3.312.279 7.059 3.592 8.36a6.449 6.449 0 008.36-3.592c1.332-3.283-.279-7.06-3.592-8.36a7.05 7.05 0 00-2.384-.434zM5.48 32.265a5.34 5.34 0 01-2.043-.403C.619 30.747-.743 27.527.372 24.74a5.525 5.525 0 017.152-3.065c2.818 1.115 4.18 4.335 3.066 7.122A5.485 5.485 0 017.648 31.8a5.246 5.246 0 01-2.167.465zm0-9.444a3.94 3.94 0 00-3.653 2.477c-.805 2.012.186 4.304 2.198 5.109a3.891 3.891 0 003.004-.031c.96-.403 1.703-1.177 2.105-2.168.806-2.012-.185-4.304-2.198-5.109a3.922 3.922 0 00-1.455-.278zm33.04 22.634a5.338 5.338 0 01-2.044-.402 5.484 5.484 0 01-3.004-2.942c-.588-1.331-.588-2.848-.062-4.21a5.485 5.485 0 012.942-3.004c1.331-.589 2.849-.589 4.211-.062 2.818 1.114 4.18 4.304 3.066 7.121a5.491 5.491 0 01-5.11 3.5zm0-9.413a3.84 3.84 0 00-1.549.31c-.96.402-1.703 1.177-2.105 2.167a3.885 3.885 0 00.03 3.004c.403.96 1.177 1.703 2.168 2.105 2.013.806 4.304-.185 5.11-2.198.804-2.013-.187-4.304-2.2-5.11a3.922 3.922 0 00-1.455-.278zm-5.388-25.081a5.34 5.34 0 01-2.044-.402 5.375 5.375 0 01-2.973-2.91c-.588-1.363-.619-2.85-.061-4.212C29.168.62 32.358-.743 35.175.372c2.818 1.114 4.18 4.335 3.066 7.121a5.477 5.477 0 01-5.11 3.468zm.03-9.413a3.94 3.94 0 00-3.653 2.477 3.754 3.754 0 00.03 3.004c.403.96 1.177 1.703 2.168 2.105 2.013.806 4.304-.185 5.11-2.198a3.94 3.94 0 00-2.2-5.109 4.172 4.172 0 00-1.454-.279z" fill="#2B1FC7"/><path d="M10.156 26.877a.795.795 0 01-.774-.65c-.062-.434.217-.836.65-.898l8.546-1.239a.77.77 0 01.867.65c.062.434-.216.837-.65.898l-8.546 1.239h-.093zm18.331-8.98a.877.877 0 01-.279-.062.764.764 0 01-.433-.99l2.91-7.277c.155-.403.62-.588 1.022-.434.403.155.589.62.434 1.022l-2.942 7.277a.782.782 0 01-.712.464zm7.122 19.136a.761.761 0 01-.62-.31l-5.325-6.75a.751.751 0 01.123-1.083.751.751 0 011.084.123l5.326 6.782a.751.751 0 01-.124 1.083c-.124.124-.31.155-.464.155z" fill="#2B1FC7"/></svg>