<svg width="44" height="42" fill="none" xmlns="http://www.w3.org/2000/svg"><path d="M40.017 26.01a.705.705 0 01-.494-.192L22 8.268 4.477 25.79c-.275.275-.714.275-.961 0L.22 22.494c-.275-.274-.275-.714 0-.96L18.127 3.597l.083-.082L21.506.22c.164-.192.412-.247.631-.22a.656.656 0 01.357.192l3.296 3.296a.38.38 0 00.083.11L43.78 21.506c.275.274.275.714 0 .961l-3.296 3.296c-.137.165-.302.247-.467.247zM22 6.62a.7.7 0 01.494.192l17.523 17.523L42.352 22 24.829 4.477l-.082-.082L22 1.648l-2.747 2.747a64.01 64.01 0 00-.082.082L1.648 22l2.334 2.335L21.506 6.812A.855.855 0 0122 6.619z" fill="#2B1FC7"/><path d="M5.575 41.885a.68.68 0 01-.686-.686V23.73a.68.68 0 01.686-.686.68.68 0 01.687.686V41.2a.68.68 0 01-.687.686zm32.849 0a.68.68 0 01-.686-.686V23.73a.68.68 0 01.686-.686.68.68 0 01.687.686V41.2a.68.68 0 01-.687.686zm-.769-24.856a.68.68 0 01-.686-.687V3.214h-5.74v6.015a.68.68 0 01-.687.686.68.68 0 01-.687-.686V2.527a.68.68 0 01.687-.687h7.113a.68.68 0 01.687.687v13.788c0 .412-.33.714-.687.714z" fill="#2B1FC7"/><path d="M41.446 41.885H2.554a.68.68 0 01-.686-.686.68.68 0 01.686-.687h38.892a.68.68 0 01.686.687.68.68 0 01-.686.686zM21.808 35.43a.74.74 0 01-.412-.137c-.687-.521-6.62-5.19-7.58-8.13-.55-1.373-.413-3.103.356-4.366.66-1.1 1.73-1.786 3.076-1.95 2.225-.248 3.763 1.455 4.56 2.664.796-1.209 2.334-2.912 4.559-2.665 1.318.165 2.417.852 3.076 1.95.77 1.264.906 2.994.357 4.395-.934 2.911-6.894 7.58-7.58 8.102a.62.62 0 01-.412.138zm-4.12-13.238c-.083 0-.192 0-.275.028-1.153.137-1.758.769-2.087 1.29-.55.907-.632 2.198-.248 3.187.66 2.032 4.725 5.603 6.702 7.168 1.978-1.593 6.043-5.136 6.702-7.14.412-1.045.302-2.335-.22-3.242-.302-.522-.934-1.153-2.06-1.29-2.307-.248-3.763 2.993-3.763 3.02a.694.694 0 01-.631.412.694.694 0 01-.632-.412c-.027-.027-1.346-3.02-3.488-3.02z" fill="#2B1FC7"/></svg>