<svg width="44" height="42" fill="none" xmlns="http://www.w3.org/2000/svg"><path d="M15.611 26.972c-.214 0-.454-.107-.561-.32-.214-.321-.134-.722.187-.91l6.282-3.929a.689.689 0 01.935.214c.188.294.08.695-.24.909l-6.282 3.93c-.08.08-.214.106-.32.106z" fill="#2B1FC7"/><path d="M28.309 27.16a.668.668 0 01-.375-.108l-6.442-4.116c-.294-.214-.4-.642-.187-.936.187-.32.615-.4.936-.214l6.442 4.144c.32.213.4.614.214.935a.788.788 0 01-.588.294z" fill="#2B1FC7"/><path d="M21.866 23.043a.662.662 0 01-.668-.669v-5.96c0-.375.294-.67.668-.67.375 0 .669.295.669.67v5.933c0 .375-.294.696-.669.696zm0-8.341a7.347 7.347 0 01-7.35-7.35A7.347 7.347 0 0121.865 0a7.347 7.347 0 017.352 7.351 7.347 7.347 0 01-7.352 7.351zm0-13.365a6.024 6.024 0 00-6.014 6.014c0 3.315 2.7 6.015 6.014 6.015 3.315 0 6.015-2.7 6.015-6.015 0-3.315-2.7-6.014-6.015-6.014zm14.783 40.097a7.347 7.347 0 01-7.351-7.351 7.347 7.347 0 017.35-7.352A7.347 7.347 0 0144 34.083a7.347 7.347 0 01-7.351 7.35zm0-13.366a6.024 6.024 0 00-6.015 6.015c0 3.314 2.7 6.014 6.015 6.014 3.315 0 6.014-2.7 6.014-6.014 0-3.315-2.7-6.015-6.014-6.015zM7.351 41.434C3.288 41.434 0 38.119 0 34.083c0-4.037 3.288-7.352 7.351-7.352a7.347 7.347 0 017.351 7.352 7.347 7.347 0 01-7.35 7.35zm0-13.366a6.024 6.024 0 00-6.014 6.015c0 3.314 2.7 6.014 6.014 6.014 3.315 0 6.015-2.7 6.015-6.014 0-3.315-2.7-6.015-6.015-6.015z" fill="#2B1FC7"/></svg>