<svg width="44" height="42" fill="none" xmlns="http://www.w3.org/2000/svg"><path d="M28.308 41.372H.658a.686.686 0 01-.553-.29.696.696 0 01-.052-.604l7.123-18.294v-6.703H6.072a.65.65 0 01-.657-.657v-5.65a.65.65 0 01.657-.658h16.716a.65.65 0 01.658.657v5.678a.65.65 0 01-.658.657h-.63v6.308a.65.65 0 01-.657.657.65.65 0 01-.658-.657v-6.965a.65.65 0 01.658-.658h.657V9.83H6.728v4.364h1.078a.65.65 0 01.658.657v7.464c0 .08-.027.158-.053.237L1.603 40.057H27.73c.079-.079.158-.157.263-.184a.652.652 0 01.84.395l.08.236c.079.21.052.42-.08.605a.612.612 0 01-.525.263zM11.723 6.492a2.412 2.412 0 01-2.418-2.418 2.412 2.412 0 012.418-2.418 2.412 2.412 0 012.418 2.418c.026 1.314-1.078 2.418-2.418 2.418zm0-3.548c-.605 0-1.104.5-1.104 1.104 0 .604.5 1.104 1.104 1.104.604 0 1.104-.5 1.104-1.104.026-.605-.473-1.104-1.104-1.104zM18.215 4.1c-1.13 0-2.05-.92-2.05-2.05S17.085 0 18.215 0s2.05.92 2.05 2.05-.92 2.05-2.05 2.05zm0-2.786a.752.752 0 00-.736.736c0 .394.342.736.736.736a.752.752 0 00.736-.736.752.752 0 00-.736-.736z" fill="#2B1FC7"/><path d="M31.278 41.53c-7.017 0-12.721-5.704-12.721-12.722 0-4.81 2.733-9.226 7.018-11.355V6.545h-1.183a.65.65 0 01-.657-.657V2.68a.65.65 0 01.657-.657h13.8a.65.65 0 01.656.657v3.233a.65.65 0 01-.657.657h-1.209v10.91C41.266 19.634 44 24.05 44 28.834c0 6.992-5.704 12.695-12.722 12.695zM25.05 5.23h1.21a.65.65 0 01.656.658v11.985c0 .263-.157.5-.394.605-4.048 1.866-6.65 5.914-6.65 10.356 0 6.282 5.125 11.407 11.407 11.407s11.408-5.125 11.408-11.407c0-4.442-2.602-8.49-6.65-10.356a.664.664 0 01-.394-.605V5.888a.65.65 0 01.657-.657h1.209V3.338h-12.46v1.893z" fill="#2B1FC7"/></svg>