<svg width="44" height="48" fill="none" xmlns="http://www.w3.org/2000/svg"><path d="M29.181 34.36a.867.867 0 01-.39-.098l-6.807-3.582-6.807 3.582c-.26.13-.619.13-.847-.065-.26-.195-.39-.489-.325-.782l1.302-7.556-5.504-5.373c-.195-.228-.293-.554-.195-.847.097-.293.358-.521.651-.554l7.588-1.107 3.388-6.872c.26-.554 1.172-.554 1.465 0l3.387 6.872 7.589 1.107c.293.033.553.26.651.554.098.293 0 .619-.195.847l-5.44 5.34 1.304 7.557a.747.747 0 01-.326.781c-.163.13-.326.196-.489.196zm-7.197-5.407c.13 0 .26.033.39.098l5.7 2.996-1.075-6.35c-.032-.261.033-.554.228-.717l4.625-4.494-6.383-.945c-.261-.032-.489-.228-.62-.456l-2.865-5.797-2.834 5.797c-.13.228-.358.424-.618.456l-6.384.912 4.625 4.495c.195.195.293.456.228.716l-1.108 6.383 5.7-2.996a.868.868 0 01.39-.098zm0 18.499a.806.806 0 01-.815-.814V39.44c0-.456.359-.814.815-.814.456 0 .814.358.814.814v7.198a.827.827 0 01-.814.814zm0-41.166a.806.806 0 01-.815-.814V.813c0-.456.391-.814.815-.814.456 0 .814.358.814.814V5.47a.806.806 0 01-.814.815zm21.202 19.476h-4.592a.806.806 0 01-.815-.814c0-.456.359-.815.815-.815h4.592c.456 0 .814.359.814.815a.806.806 0 01-.814.814zm-37.78 0H.814A.806.806 0 010 24.948c0-.456.358-.815.814-.815h4.592c.456 0 .815.359.815.815a.806.806 0 01-.815.814zM41.785 44.75a.837.837 0 01-.586-.229l-6.741-6.742c-.326-.325-.326-.846 0-1.14.325-.325.846-.325 1.14 0l6.741 6.742c.326.326.326.847 0 1.14a.785.785 0 01-.554.228zM10.194 13.972a.836.836 0 01-.586-.228l-7.98-8.012c-.325-.326-.325-.847 0-1.14.326-.326.847-.326 1.14 0l8.012 8.012c.326.326.326.847 0 1.14a.936.936 0 01-.586.228zM2.215 44.75a.836.836 0 01-.587-.229c-.325-.325-.325-.847 0-1.14l6.677-6.676c.326-.326.847-.326 1.14 0 .326.325.326.846 0 1.14L2.768 44.52c-.163.13-.358.228-.553.228zm31.2-30.42a.836.836 0 01-.586-.228c-.326-.325-.326-.847 0-1.14l8.37-8.37c.326-.326.847-.326 1.14 0 .326.326.326.847 0 1.14l-8.37 8.37a.786.786 0 01-.554.228z" fill="#2B1FC7"/></svg>