<svg width="44" height="43" fill="none" xmlns="http://www.w3.org/2000/svg"><path d="M22.017 43c-9.804 0-16.463-1.658-19.742-4.907C0 35.84 0 33.385 0 32.457v-.1c0-2.055.268-5.768 2.175-7.658.268-.265.569-.563.903-.862 1.573-1.558 3.346-3.282 4.417-5.072 1.405-2.354 3.078-4.178 4.852-5.338 1.807-1.16 8.331-1.127 9.636-1.094 1.339-.033 7.83-.066 9.637 1.094 1.773 1.127 3.48 2.984 4.851 5.338 1.071 1.79 2.845 3.514 4.417 5.04.301.297.602.596.904.861 1.907 1.89 2.175 5.603 2.175 7.659v.099c0 .928 0 3.382-2.276 5.636C38.48 41.342 31.821 43 22.017 43zm-.837-29.01c-2.978 0-6.993.233-7.93.83-1.572.994-3.078 2.652-4.316 4.774-1.171 1.989-3.112 3.879-4.685 5.404l-.87.862c-1.07 1.06-1.706 3.48-1.706 6.498v.1c0 .861 0 2.685 1.773 4.475 2.041 2.022 6.893 4.41 18.537 4.41 11.644 0 16.53-2.388 18.537-4.41 1.807-1.79 1.807-3.614 1.773-4.476v-.1c0-3.016-.635-5.436-1.706-6.497l-.87-.862c-1.572-1.525-3.513-3.415-4.684-5.404-1.272-2.122-2.744-3.78-4.317-4.774-1.004-.664-5.721-.862-8.733-.83h-.803z" fill="#2B1FC7"/><path d="M40.286 25.197c-.167 0-.335-.067-.502-.166-.334-.265-.435-.696-.234-1.061.033-.133.334-1.26-.234-5.537-.636-4.674-3.882-6.332-7.696-7.857-3.447-1.36-9.57-1.459-9.637-1.459-.033 0-6.156.1-9.603 1.459-3.814 1.525-7.06 3.183-7.696 7.857-.568 4.277-.3 5.404-.234 5.537.201.365.1.796-.234 1.06-.368.266-.903.2-1.171-.165-.636-.862-.368-4.078 0-6.63.836-6.035 5.588-7.924 8.733-9.184 3.714-1.492 9.971-1.592 10.205-1.592.301 0 6.525.1 10.24 1.592 3.144 1.26 7.93 3.15 8.732 9.183.368 2.553.636 5.802 0 6.631-.134.199-.401.332-.669.332zM18.503 6.2c-1.74 0-3.145-1.393-3.145-3.117S16.763 0 18.503 0s3.146 1.392 3.146 3.116c0 1.724-1.44 3.084-3.146 3.084zm0-4.542c-.803 0-1.472.663-1.472 1.458 0 .796.67 1.46 1.472 1.46.803 0 1.473-.664 1.473-1.46 0-.795-.67-1.458-1.473-1.458zM25.53 6.2c-1.74 0-3.145-1.393-3.145-3.117S23.79 0 25.53 0s3.145 1.392 3.145 3.116c0 1.724-1.439 3.084-3.145 3.084zm0-4.542c-.803 0-1.472.663-1.472 1.458 0 .796.669 1.46 1.472 1.46a1.48 1.48 0 001.472-1.46c0-.795-.669-1.458-1.472-1.458z" fill="#2B1FC7"/><path d="M13.886 10.112a.907.907 0 01-.502-.166.878.878 0 01-.167-1.193l3.346-4.277a.888.888 0 011.204-.1.8.8 0 01.134 1.16l-3.346 4.277a.895.895 0 01-.669.299zm16.228 0a.826.826 0 01-.67-.332L26.1 5.503c-.268-.331-.2-.862.167-1.127.335-.298.87-.232 1.171.133l3.346 4.277c.301.331.234.862-.134 1.16a1.01 1.01 0 01-.535.166z" fill="#2B1FC7"/></svg>