<svg width="44" height="44" fill="none" xmlns="http://www.w3.org/2000/svg"><path d="M8.616 28.376H.718a.733.733 0 01-.69-.546.681.681 0 01.374-.804c5.199-2.757 7.094-4.595 7.496-7.295-.029-1.752-1.465-3.16-3.245-3.16a3.211 3.211 0 00-3.217 3.217.711.711 0 01-.718.718.711.711 0 01-.718-.718c0-2.556 2.097-4.652 4.653-4.652 2.556 0 4.681 2.096 4.681 4.652v.115c-.46 3.016-2.412 4.969-5.859 7.037h5.141c.402 0 .718.316.718.718a.73.73 0 01-.718.718zm8.645 0a.711.711 0 01-.718-.718v-2.441H11.46a.714.714 0 01-.632-.374c-.115-.23-.115-.517.028-.718l5.802-8.673a.722.722 0 01.804-.287.707.707 0 01.517.689v7.955h1.465c.402 0 .718.316.718.718a.711.711 0 01-.718.718h-1.465v2.442a.705.705 0 01-.718.689zm-4.452-4.595h3.734v-5.572L12.81 23.78z" fill="#2B1FC7"/><path d="M22.23 43.512c-6.836 0-13.126-3.102-17.261-8.53-.23-.316-.173-.776.143-1.005.316-.23.776-.173 1.005.143 3.878 5.055 9.765 7.956 16.142 7.956 11.2 0 20.334-9.105 20.334-20.335 0-11.2-9.105-20.334-20.335-20.334-3.503 0-6.95.92-9.994 2.643a.696.696 0 01-.862-.115l-1.206-1.207-2.585 8.99 9.076-2.269-.977-1.034a.74.74 0 01-.2-.632c.057-.23.2-.43.43-.517 2.01-.861 4.136-1.32 6.319-1.32 8.73 0 15.825 7.093 15.825 15.824S30.99 37.595 22.258 37.595c-4.968 0-9.535-2.269-12.55-6.203-.23-.316-.173-.776.143-1.006.316-.23.776-.172 1.005.144 2.758 3.59 6.922 5.63 11.431 5.63 7.927 0 14.39-6.463 14.39-14.39 0-7.927-6.463-14.389-14.39-14.389-1.637 0-3.216.287-4.767.804l1.12 1.15c.172.172.258.459.172.688-.115.259-.316.46-.546.518L6.778 13.412c-.258.058-.517 0-.69-.2-.172-.202-.258-.46-.172-.69L9.162 1.15c.057-.26.258-.432.517-.49.258-.058.517 0 .69.2l1.665 1.724A21.505 21.505 0 0122.23 0C34.235 0 44 9.765 44 21.741c0 12.006-9.765 21.77-21.77 21.77z" fill="#2B1FC7"/><path d="M29.266 27.658a.737.737 0 01-.517-.201l-5.17-5.17c-.114-.172-.2-.345-.2-.546v-9.477c0-.402.316-.718.718-.718.402 0 .718.316.718.718v9.219l4.968 4.969c.287.287.287.746 0 1.005a.826.826 0 01-.517.2z" fill="#2B1FC7"/></svg>