<svg width="44" height="45" fill="none" xmlns="http://www.w3.org/2000/svg"><path d="M33.625 21.022h-.223a.64.64 0 01-.594-.446l-.52-1.881a7.866 7.866 0 01-2.377-.768l-1.51 1.238a.633.633 0 01-.743.025 10.839 10.839 0 01-2.451-2.303.596.596 0 010-.743l1.139-1.584a7.96 7.96 0 01-.892-2.353l-1.882-.396a.63.63 0 01-.495-.545c-.074-1.139 0-2.253.272-3.342.1-.298.322-.47.595-.496L25.9 7.33c.149-.396.347-.767.545-1.139a7.73 7.73 0 01.718-1.04l-.867-1.758a.598.598 0 01.124-.718A10.206 10.206 0 0129.218.817a.604.604 0 01.718.149l1.312 1.51a8.426 8.426 0 012.476-.346l.842-1.758c.124-.248.372-.397.644-.347a10.94 10.94 0 013.194 1.015.615.615 0 01.322.669l-.347 1.93a8.112 8.112 0 011.833 1.734l1.906-.445a.57.57 0 01.669.297c.57.99.965 2.03 1.188 3.144a.615.615 0 01-.322.669l-1.708.866a8.488 8.488 0 01-.223 2.501l1.535 1.214c.223.173.297.47.198.718-.198.52-.445 1.04-.718 1.51-.272.47-.619.941-.965 1.387-.174.222-.47.272-.718.173l-1.783-.768a7.83 7.83 0 01-2.08 1.387l.025 1.956a.61.61 0 01-.446.594c-1.04.297-2.08.446-3.145.446zm-3.763-4.432c.099 0 .198.025.297.074.842.47 1.758.768 2.699.867a.58.58 0 01.52.446l.495 1.807a9.13 9.13 0 002.03-.297l-.024-1.882a.61.61 0 01.396-.57 7.273 7.273 0 002.377-1.584.64.64 0 01.693-.124l1.733.743c.198-.273.396-.57.57-.867.173-.297.322-.594.47-.916l-1.485-1.164c-.199-.148-.273-.42-.223-.668a7.347 7.347 0 00.247-2.848.638.638 0 01.322-.619l1.66-.891a9.15 9.15 0 00-.744-1.931l-1.782.47a.645.645 0 01-.644-.248 7.453 7.453 0 00-2.08-1.956c-.223-.124-.322-.396-.272-.643l.346-1.858a8.99 8.99 0 00-1.956-.619l-.842 1.709a.6.6 0 01-.594.347 7.298 7.298 0 00-2.823.396c-.247.074-.495.025-.668-.174l-1.238-1.41a7.9 7.9 0 00-1.709 1.138l.842 1.684c.124.223.074.495-.099.693a6.648 6.648 0 00-.842 1.164c-.247.42-.446.842-.594 1.287-.074.248-.297.397-.545.421l-1.931.075a11.326 11.326 0 00-.173 2.055l1.832.396a.58.58 0 01.47.495 6.796 6.796 0 001.015 2.65c.124.222.124.495-.024.693l-1.09 1.56c.446.52.941.99 1.486 1.411l1.46-1.188a.691.691 0 01.422-.124z" fill="#2B1FC7"/><path d="M33.625 14.98c-.792 0-1.56-.198-2.278-.619a4.455 4.455 0 01-2.08-2.773 4.472 4.472 0 01.496-3.417 4.455 4.455 0 012.773-2.08 4.472 4.472 0 013.417.495c2.13 1.263 2.847 4.037 1.584 6.19a4.605 4.605 0 01-3.912 2.204zm-1.659-1.708a3.273 3.273 0 004.482-1.164 3.273 3.273 0 00-1.164-4.482 3.21 3.21 0 00-2.476-.346 3.246 3.246 0 00-2.005 1.51 3.21 3.21 0 00-.347 2.476c.223.867.768 1.56 1.51 2.006zm-17.01 31.421c-.545 0-1.115-.024-1.66-.099-.272-.024-.47-.223-.544-.47l-.718-3.219a11.72 11.72 0 01-2.55-1.114l-3.021 1.807c-.223.124-.496.124-.694-.05-.57-.445-1.114-.94-1.634-1.46a.638.638 0 01-.099-.718l1.659-3.17a12.136 12.136 0 01-1.288-2.525l-3.64-.62a.636.636 0 01-.495-.494l-.024-.1c-.025-.074-.025-.173-.05-.247A12.509 12.509 0 010 30.53c-.025-.272.149-.495.371-.594l3.368-1.387c.099-1.015.297-1.98.644-2.921l-2.328-2.724a.639.639 0 01-.074-.718c.347-.595.743-1.164 1.164-1.709a.576.576 0 01.668-.198l3.293 1.04a12.933 12.933 0 012.55-1.956l-.024-3.219c0-.272.173-.495.42-.594a18.91 18.91 0 012.106-.57c.247-.05.495.075.643.273l1.66 2.6a12.367 12.367 0 013.317.198l1.808-2.18a.613.613 0 01.693-.173c.743.273 1.461.62 2.13.99a.582.582 0 01.297.62l-.372 2.724a12.02 12.02 0 012.427 2.327l2.526-.47a.6.6 0 01.643.297c.421.718.768 1.46 1.065 2.253a.577.577 0 01-.173.669l-1.907 1.733c.074.272.124.545.173.792.149.793.198 1.634.149 2.451l2.228 1.263a.6.6 0 01.298.644 13.88 13.88 0 01-.595 2.476.587.587 0 01-.57.421l-2.649.1c-.47.915-1.04 1.757-1.733 2.525l.966 2.6a.577.577 0 01-.173.668 14.63 14.63 0 01-1.981 1.535c-.223.149-.496.124-.718-.024l-2.328-1.783c-.842.346-1.709.594-2.6.743-.05 0-.124.024-.173.024l-1.065 2.996c-.074.248-.297.397-.545.421h-.643zm-1.09-1.262c.446.024.867.05 1.312.05l1.04-2.947a.592.592 0 01.52-.397c.174-.024.347-.05.496-.074a9.789 9.789 0 002.624-.817.615.615 0 01.644.074l2.253 1.734c.396-.273.768-.57 1.14-.892l-.966-2.575a.67.67 0 01.123-.644 10.033 10.033 0 001.932-2.822.61.61 0 01.544-.347l2.576-.1c.148-.47.247-.965.346-1.46l-2.179-1.238a.697.697 0 01-.322-.594 9.563 9.563 0 00-.123-2.526c-.05-.347-.149-.693-.223-1.04-.05-.223 0-.47.173-.619l1.857-1.708a12.68 12.68 0 00-.619-1.313l-2.377.47a.606.606 0 01-.619-.247 10.915 10.915 0 00-2.674-2.55.653.653 0 01-.273-.595l.347-2.674c-.371-.223-.767-.396-1.164-.57l-1.758 2.13a.644.644 0 01-.619.198 10.694 10.694 0 00-3.664-.198.671.671 0 01-.62-.272l-1.609-2.575a8.19 8.19 0 00-1.114.297l.025 3.145a.615.615 0 01-.322.544c-1.065.545-2.006 1.288-2.823 2.154a.635.635 0 01-.644.174l-3.219-1.015c-.222.272-.396.544-.594.841l2.278 2.65c.149.173.198.42.1.619a10.211 10.211 0 00-.719 3.293.68.68 0 01-.371.545l-3.293 1.362c.024.346.074.693.123 1.04l3.59.594a.66.66 0 01.496.42 10.861 10.861 0 001.46 2.873.609.609 0 01.05.644l-1.61 3.095c.273.272.57.52.843.768l2.996-1.758a.604.604 0 01.644 0c.891.569 1.881.99 2.897 1.262.223.05.396.248.445.47l.644 3.12z" fill="#2B1FC7"/><path d="M15.426 36.894c-3.491 0-6.586-2.526-7.205-6.091-.669-3.962 2.005-7.75 5.992-8.42a7.318 7.318 0 015.447 1.239 7.314 7.314 0 012.971 4.73 7.318 7.318 0 01-1.238 5.447 7.315 7.315 0 01-4.729 2.971c-.42.074-.842.124-1.238.124zm.025-13.371c-.347 0-.694.025-1.016.074-3.293.57-5.521 3.69-4.976 6.983.57 3.293 3.689 5.521 6.982 4.977a5.97 5.97 0 003.937-2.476 6.002 6.002 0 001.04-4.532 5.97 5.97 0 00-2.476-3.937 6.128 6.128 0 00-3.491-1.09z" fill="#2B1FC7"/></svg>