<svg width="44" height="40" fill="none" xmlns="http://www.w3.org/2000/svg"><path d="M32.32 10.714H7.735a.63.63 0 01-.636-.636.63.63 0 01.636-.637H32.32a.63.63 0 01.636.637.63.63 0 01-.636.636zm-6.643 6.616H7.737a.63.63 0 01-.637-.636.63.63 0 01.636-.636h17.941a.63.63 0 01.637.636.63.63 0 01-.637.636z" fill="#2B1FC7"/><path d="M8.805 32.6c-.076 0-.153-.026-.254-.052a.643.643 0 01-.382-.585v-5.217h-3.08C2.29 26.746 0 24.456 0 21.656V5.09C0 2.29 2.29 0 5.09 0h29.9c2.8 0 5.09 2.29 5.09 5.09v16.592c0 2.8-2.29 5.09-5.09 5.09H14.913l-5.65 5.65a.698.698 0 01-.458.177zM5.09 1.271A3.812 3.812 0 001.272 5.09v16.592a3.812 3.812 0 003.818 3.817h3.715a.63.63 0 01.636.636v4.301l4.76-4.759a.613.613 0 01.457-.178h20.333a3.812 3.812 0 003.818-3.817V5.09a3.812 3.812 0 00-3.818-3.818H5.09z" fill="#2B1FC7"/><path d="M38.401 39.063a.793.793 0 01-.458-.178l-3.359-3.36H22.471a3.345 3.345 0 01-3.334-3.333v-3.766a.63.63 0 01.636-.636.63.63 0 01.637.636v3.766c0 1.145.941 2.061 2.06 2.061h12.37c.178 0 .33.077.458.178l2.468 2.469v-2.036a.63.63 0 01.636-.636h2.265a2.069 2.069 0 002.062-2.061V22.064c0-.84-.51-1.604-1.273-1.909a.616.616 0 01-.33-.84.616.616 0 01.84-.33c1.246.534 2.06 1.73 2.06 3.079v10.103a3.345 3.345 0 01-3.333 3.333h-1.629v2.927a.643.643 0 01-.382.585 1.31 1.31 0 01-.28.051z" fill="#2B1FC7"/></svg>