<svg width="44" height="39" fill="none" xmlns="http://www.w3.org/2000/svg"><path d="M11.159 21.25a6.01 6.01 0 01-5.999-5.999v-4.804a6.01 6.01 0 015.999-5.999 6.01 6.01 0 015.999 6v4.803a6.01 6.01 0 01-6 6zm0-15.53a4.735 4.735 0 00-4.728 4.727v4.804a4.735 4.735 0 004.728 4.728 4.735 4.735 0 004.728-4.728v-4.804a4.735 4.735 0 00-4.728-4.728zm6.609 30.603H4.27A4.28 4.28 0 010 32.053v-4.957c0-.965.61-1.931 1.78-2.872.965-.762 2.11-1.322 3.43-1.703l4.195-1.17a.642.642 0 01.788.433.642.642 0 01-.432.788l-4.194 1.195c-1.144.33-2.16.813-2.974 1.474-.585.457-1.297 1.17-1.297 1.855v4.957c0 1.652 1.348 3 3 3h13.497c1.652 0 3-1.348 3-3v-4.957c0-.686-.712-1.398-1.297-1.855-.864-.661-1.855-1.144-3-1.474l-4.066-1.144a.667.667 0 01-.458-.788.642.642 0 01.788-.432l4.067 1.143c1.297.356 2.466.94 3.432 1.704 1.194.94 1.78 1.906 1.78 2.872v4.956c0 2.339-1.907 4.245-4.271 4.245z" fill="#2B1FC7"/><path d="M9.557 22.623a.63.63 0 01-.635-.636v-1.372a.63.63 0 01.635-.636.63.63 0 01.636.636v1.372c.025.356-.28.636-.636.636zm3.051.025a.63.63 0 01-.636-.635v-1.398a.63.63 0 01.636-.636.63.63 0 01.635.636v1.398a.63.63 0 01-.635.635z" fill="#2B1FC7"/><path d="M11.032 28.215c-2.085 0-3.788-2.212-3.788-4.931 0-.305.026-.61.077-.915a.638.638 0 01.737-.534c.33.025.559.356.508.686-.025.254-.05.483-.05.737 0 1.983 1.143 3.66 2.516 3.66 1.347 0 2.516-1.677 2.516-3.66 0-.254-.025-.483-.05-.737-.077-.356.177-.66.533-.712.33-.05.661.178.712.534.05.305.076.61.076.915 0 2.72-1.703 4.957-3.787 4.957zm2.11-17.056a3.784 3.784 0 01-1.602-.356c-.635-.28-1.017-.712-1.347-1.042-.33-.356-.56-.56-.89-.636-.762-.178-1.804.432-3.025 1.729a.643.643 0 01-.915.025.614.614 0 01-.025-.89c1.576-1.703 2.974-2.414 4.245-2.11.737.179 1.17.61 1.525 1.018.28.305.534.559.94.762.712.305 1.78.508 4.068-.788a.627.627 0 01.864.229c.178.305.076.712-.229.864-1.398.788-2.567 1.195-3.61 1.195zm10.878 5.643a6.01 6.01 0 01-5.998-5.999V5.999A6.01 6.01 0 0124.02 0a6.01 6.01 0 015.999 5.999v4.804a6.01 6.01 0 01-6 5.999zm0-15.531a4.735 4.735 0 00-4.727 4.728v4.804a4.735 4.735 0 004.728 4.728 4.735 4.735 0 004.728-4.728V5.999c-.026-2.593-2.136-4.728-4.728-4.728zm-7.498 18.734a.675.675 0 01-.584-.356.64.64 0 01.305-.864c.559-.28 1.194-.509 1.83-.687l4.194-1.17a.642.642 0 01.788.433.68.68 0 01-.458.788l-4.194 1.17a8.674 8.674 0 00-1.601.61.512.512 0 01-.28.076zm8.16 11.87h-1.45a.63.63 0 01-.635-.635.63.63 0 01.636-.636h1.449a.63.63 0 01.635.636.646.646 0 01-.635.635zm6.507-11.895a.58.58 0 01-.28-.077 9.63 9.63 0 00-1.576-.585l-4.067-1.144a.642.642 0 01-.432-.788.642.642 0 01.788-.432l4.067 1.144c.636.178 1.22.407 1.78.686a.663.663 0 01.304.865.705.705 0 01-.584.33z" fill="#2B1FC7"/><path d="M22.42 18.174a.63.63 0 01-.636-.635V16.14a.63.63 0 01.635-.636.63.63 0 01.636.636v1.398c0 .33-.28.635-.636.635zm3.024.026a.63.63 0 01-.635-.636v-1.423a.63.63 0 01.635-.636.63.63 0 01.636.636v1.398c0 .381-.28.66-.636.66z" fill="#2B1FC7"/><path d="M23.868 23.767c-2.084 0-3.787-2.237-3.787-4.957 0-.305.025-.61.076-.915a.627.627 0 01.712-.534c.356.05.584.381.534.737-.026.229-.026.458-.026.712 0 1.983 1.144 3.66 2.517 3.66 1.347 0 2.516-1.677 2.516-3.66a6.72 6.72 0 00-.05-.737.657.657 0 01.533-.737.657.657 0 01.737.533c.051.305.076.61.076.916-.05 2.745-1.753 4.982-3.838 4.982zm2.11-17.057c-.56 0-1.093-.127-1.601-.355-.636-.28-1.017-.712-1.348-1.042-.33-.356-.533-.56-.864-.636-.788-.178-1.83.432-3.05 1.729a.643.643 0 01-.915.025.643.643 0 01-.026-.915c1.551-1.678 3-2.39 4.245-2.11.738.178 1.17.61 1.526 1.017.28.305.533.56.94.762.686.305 1.78.509 4.042-.788a.627.627 0 01.864.23.627.627 0 01-.229.863c-1.347.814-2.542 1.22-3.584 1.22zm8.846 31.291c-5.058 0-9.176-4.118-9.176-9.176s4.117-9.176 9.176-9.176c5.058 0 9.176 4.117 9.176 9.176C44 33.883 39.882 38 34.824 38zm0-17.056c-4.347 0-7.88 3.533-7.88 7.88 0 4.347 3.533 7.88 7.88 7.88 4.346 0 7.88-3.533 7.88-7.88 0-4.347-3.534-7.88-7.88-7.88z" fill="#2B1FC7"/><path d="M33.451 33.96a.659.659 0 01-.534-.28l-2.923-4.5c-.203-.304-.102-.685.178-.889.305-.203.686-.101.89.178l2.415 3.737 5.109-6.71c.203-.28.61-.331.89-.128s.33.61.127.89l-5.669 7.448c-.101.177-.28.254-.483.254z" fill="#2B1FC7"/></svg>