<svg width="14" height="18" fill="none" xmlns="http://www.w3.org/2000/svg"><path d="M7.366.354C3.96.354.593 2.684.593 6.454c0 2.398 1.314 3.76 2.111 3.76.33 0 .518-.94.518-1.205 0-.317-.786-.991-.786-2.31 0-2.738 2.032-4.68 4.661-4.68 2.262 0 3.935 1.319 3.935 3.74 0 1.809-.707 5.201-2.998 5.201-.827 0-1.535-.613-1.535-1.491 0-1.288.877-2.534.877-3.863 0-2.254-3.118-1.845-3.118.88 0 .571.07 1.205.319 1.726-.459 2.024-1.395 5.038-1.395 7.122 0 .643.09 1.277.15 1.92.112.13.056.117.228.052 1.674-2.35 1.614-2.81 2.371-5.885.409.797 1.464 1.226 2.301 1.226 3.526 0 5.11-3.525 5.11-6.703 0-3.382-2.849-5.589-5.976-5.589z" fill="#B8B7CC"/></svg>