<svg width="18" height="18" fill="none" xmlns="http://www.w3.org/2000/svg"><path fill-rule="evenodd" clip-rule="evenodd" d="M5.588.405c.907-.042 1.196-.05 3.505-.05 2.308 0 2.597.01 3.503.05.906.041 1.524.186 2.065.395.566.214 1.08.549 1.505.981.433.425.767.938.98 1.505.21.54.354 1.159.395 2.063.042.908.052 1.197.052 3.505 0 2.309-.01 2.598-.052 3.504-.04.904-.185 1.523-.395 2.064a4.171 4.171 0 01-.98 1.506 4.169 4.169 0 01-1.505.98c-.541.21-1.16.353-2.063.395-.908.042-1.197.051-3.505.051-2.31 0-2.598-.01-3.505-.05-.904-.042-1.522-.186-2.063-.396a4.171 4.171 0 01-1.506-.98 4.167 4.167 0 01-.98-1.506c-.21-.54-.354-1.159-.395-2.063-.042-.908-.051-1.197-.051-3.505 0-2.309.01-2.598.05-3.503.041-.906.186-1.524.395-2.065A4.17 4.17 0 012.02 1.78 4.166 4.166 0 013.524.8C4.065.59 4.684.447 5.587.405h.001zm6.94 1.53c-.897-.04-1.166-.05-3.435-.05-2.27 0-2.539.01-3.435.05-.83.038-1.28.176-1.579.293a2.64 2.64 0 00-.977.635 2.637 2.637 0 00-.636.978c-.116.3-.255.75-.292 1.578-.041.897-.05 1.166-.05 3.435 0 2.27.009 2.539.05 3.435.037.829.176 1.279.292 1.579.136.368.354.703.636.977.274.282.608.5.977.635.3.117.75.255 1.579.293.896.041 1.164.05 3.435.05 2.27 0 2.538-.009 3.434-.05.83-.038 1.28-.176 1.579-.293a2.64 2.64 0 00.978-.635c.282-.274.499-.609.635-.977.116-.3.255-.75.293-1.58.04-.896.049-1.164.049-3.434 0-2.27-.009-2.538-.05-3.435-.037-.829-.176-1.279-.292-1.578a2.64 2.64 0 00-.635-.978 2.638 2.638 0 00-.978-.635c-.3-.117-.75-.255-1.579-.293zm-4.521 9.54a2.835 2.835 0 102.04-5.29 2.836 2.836 0 00-2.04 5.29zm-2.004-5.71a4.369 4.369 0 116.179 6.178 4.369 4.369 0 01-6.179-6.178zm8.428-.63a1.033 1.033 0 10-1.418-1.502 1.033 1.033 0 001.418 1.503z" fill="#B8B7CC"/></svg>