<svg width="17" height="17" fill="none" xmlns="http://www.w3.org/2000/svg"><path fill-rule="evenodd" clip-rule="evenodd" d="M4.996.051C5.902.009 6.19 0 8.5 0s2.598.01 3.504.051c.905.041 1.523.185 2.064.395.567.214 1.08.549 1.505.981.433.424.767.938.98 1.505.21.54.354 1.159.396 2.063.042.908.051 1.197.051 3.505 0 2.309-.01 2.598-.051 3.504-.041.904-.186 1.523-.396 2.064a4.169 4.169 0 01-.98 1.505 4.167 4.167 0 01-1.505.98c-.54.21-1.159.354-2.063.396-.907.042-1.196.051-3.505.051s-2.598-.01-3.504-.051c-.904-.041-1.523-.186-2.064-.396a4.17 4.17 0 01-1.506-.98 4.166 4.166 0 01-.98-1.505c-.21-.54-.353-1.159-.395-2.063C.009 11.097 0 10.808 0 8.5c0-2.309.01-2.598.051-3.504.041-.905.185-1.523.395-2.064a4.17 4.17 0 01.981-1.506 4.167 4.167 0 011.505-.98C3.472.236 4.09.093 4.995.05zm6.939 1.53c-.897-.041-1.165-.05-3.435-.05s-2.538.01-3.435.05c-.829.038-1.279.176-1.578.293a2.64 2.64 0 00-.978.635 2.636 2.636 0 00-.635.978c-.117.3-.255.75-.293 1.578-.041.897-.05 1.165-.05 3.435s.01 2.538.05 3.435c.038.829.176 1.279.293 1.579.136.368.353.703.635.977.274.282.609.5.978.635.3.117.75.255 1.578.293.897.041 1.165.05 3.435.05s2.538-.009 3.435-.05c.829-.038 1.279-.176 1.579-.293.396-.154.68-.337.977-.635.282-.274.5-.609.635-.977.117-.3.255-.75.293-1.58.041-.896.05-1.164.05-3.434 0-2.27-.009-2.538-.05-3.435-.038-.829-.176-1.279-.293-1.578a2.639 2.639 0 00-.635-.978 2.638 2.638 0 00-.977-.635c-.3-.117-.75-.255-1.58-.293zm-4.52 9.54a2.835 2.835 0 102.04-5.29 2.836 2.836 0 00-2.04 5.29zM5.41 5.41a4.37 4.37 0 116.178 6.178A4.37 4.37 0 015.41 5.41zm8.427-.63a1.034 1.034 0 10-1.42-1.504 1.034 1.034 0 001.42 1.505z" fill="#fff" fill-opacity=".5"/></svg>