<svg width="13" height="17" fill="none" xmlns="http://www.w3.org/2000/svg"><path d="M6.774 0C3.367 0 0 2.33 0 6.1c0 2.398 1.315 3.76 2.112 3.76.329 0 .518-.94.518-1.205 0-.317-.787-.992-.787-2.31 0-2.738 2.032-4.68 4.662-4.68 2.261 0 3.935 1.319 3.935 3.74 0 1.809-.708 5.201-2.999 5.201-.827 0-1.534-.613-1.534-1.491 0-1.288.876-2.534.876-3.863 0-2.254-3.118-1.846-3.118.88 0 .571.07 1.205.319 1.726-.458 2.023-1.395 5.037-1.395 7.122 0 .643.09 1.277.15 1.92.112.13.056.117.229.052 1.673-2.35 1.614-2.81 2.37-5.885.41.797 1.465 1.226 2.302 1.226 3.526 0 5.11-3.525 5.11-6.703C12.75 2.208 9.9.001 6.773.001V0z" fill="#CBC7FF"/></svg>